<svg xmlns="http://www.w3.org/2000/svg" xmlns:xlink="http://www.w3.org/1999/xlink" width="500" zoomAndPan="magnify" viewBox="0 0 375 60" height="80" preserveAspectRatio="xMidYMid meet" version="1.0"><defs><g/></defs><g fill="#000000" fill-opacity="1"><g transform="translate(174.666925, 27.448836)"><g><path d="M 0.015625 -0.296875 C 0.015625 -0.304688 0.0195312 -0.316406 0.03125 -0.328125 C 0.0390625 -0.335938 0.0507812 -0.34375 0.0625 -0.34375 C 0.0820312 -0.34375 0.09375 -0.335938 0.09375 -0.328125 C 0.101562 -0.316406 0.109375 -0.304688 0.109375 -0.296875 C 0.109375 -0.285156 0.101562 -0.273438 0.09375 -0.265625 C 0.09375 -0.253906 0.0820312 -0.25 0.0625 -0.25 C 0.0507812 -0.25 0.0390625 -0.253906 0.03125 -0.265625 C 0.0195312 -0.273438 0.015625 -0.285156 0.015625 -0.296875 Z M 0.109375 0 C 0.109375 0 0.101562 0 0.09375 0 C 0.0820312 0 0.078125 0 0.078125 0 C 0.0664062 0 0.0546875 0 0.046875 0 C 0.046875 0 0.0390625 0 0.03125 0 C 0.03125 -0.0078125 0.03125 -0.0195312 0.03125 -0.03125 L 0.03125 -0.234375 C 0.0390625 -0.234375 0.0507812 -0.234375 0.0625 -0.234375 C 0.0703125 -0.234375 0.078125 -0.234375 0.078125 -0.234375 C 0.0859375 -0.234375 0.09375 -0.226562 0.09375 -0.21875 C 0.101562 -0.21875 0.109375 -0.210938 0.109375 -0.203125 Z M 0.109375 0 "/></g></g></g><g fill="#000000" fill-opacity="1"><g transform="translate(174.802819, 27.448836)"><g><path d="M 0.140625 -0.234375 C 0.148438 -0.234375 0.160156 -0.234375 0.171875 -0.234375 C 0.191406 -0.234375 0.203125 -0.226562 0.203125 -0.21875 C 0.210938 -0.21875 0.222656 -0.21875 0.234375 -0.21875 C 0.242188 -0.226562 0.257812 -0.234375 0.28125 -0.234375 C 0.289062 -0.234375 0.300781 -0.234375 0.3125 -0.234375 C 0.332031 -0.234375 0.347656 -0.226562 0.359375 -0.21875 C 0.367188 -0.207031 0.375 -0.195312 0.375 -0.1875 C 0.382812 -0.175781 0.390625 -0.164062 0.390625 -0.15625 L 0.390625 0 C 0.378906 0 0.367188 0 0.359375 0 C 0.359375 0 0.351562 0 0.34375 0 C 0.34375 0 0.335938 0 0.328125 0 C 0.316406 0 0.3125 0 0.3125 0 C 0.3125 0 0.304688 0 0.296875 0 C 0.296875 -0.0078125 0.296875 -0.0195312 0.296875 -0.03125 L 0.296875 -0.15625 C 0.296875 -0.164062 0.289062 -0.171875 0.28125 -0.171875 C 0.28125 -0.179688 0.273438 -0.1875 0.265625 -0.1875 C 0.265625 -0.1875 0.257812 -0.179688 0.25 -0.171875 C 0.25 -0.171875 0.242188 -0.171875 0.234375 -0.171875 C 0.242188 -0.171875 0.25 -0.171875 0.25 -0.171875 C 0.25 -0.171875 0.25 -0.164062 0.25 -0.15625 L 0.25 0 C 0.238281 0 0.226562 0 0.21875 0 C 0.21875 0 0.210938 0 0.203125 0 C 0.203125 0 0.195312 0 0.1875 0 C 0.1875 0 0.179688 0 0.171875 0 C 0.171875 -0.0078125 0.171875 -0.0195312 0.171875 -0.03125 L 0.171875 -0.15625 C 0.171875 -0.164062 0.164062 -0.171875 0.15625 -0.171875 C 0.144531 -0.179688 0.140625 -0.1875 0.140625 -0.1875 C 0.128906 -0.1875 0.117188 -0.179688 0.109375 -0.171875 L 0.109375 0 C 0.109375 0 0.101562 0 0.09375 0 C 0.0820312 0 0.0703125 0 0.0625 0 C 0.0625 0 0.0546875 0 0.046875 0 C 0.046875 0 0.0390625 0 0.03125 0 C 0.03125 0 0.0234375 0 0.015625 0 C 0.015625 -0.0078125 0.015625 -0.0195312 0.015625 -0.03125 L 0.015625 -0.1875 C 0.015625 -0.195312 0.015625 -0.203125 0.015625 -0.203125 C 0.0234375 -0.203125 0.0351562 -0.207031 0.046875 -0.21875 C 0.0546875 -0.21875 0.0664062 -0.21875 0.078125 -0.21875 C 0.0976562 -0.226562 0.117188 -0.234375 0.140625 -0.234375 Z M 0.140625 -0.234375 "/></g></g></g><g fill="#000000" fill-opacity="1"><g transform="translate(175.210501, 27.448836)"><g><path d="M 0.140625 -0.234375 C 0.148438 -0.234375 0.160156 -0.226562 0.171875 -0.21875 C 0.191406 -0.21875 0.207031 -0.210938 0.21875 -0.203125 C 0.238281 -0.203125 0.25 -0.191406 0.25 -0.171875 C 0.257812 -0.160156 0.265625 -0.140625 0.265625 -0.109375 C 0.265625 -0.0859375 0.257812 -0.0664062 0.25 -0.046875 C 0.25 -0.0351562 0.242188 -0.0234375 0.234375 -0.015625 C 0.222656 -0.00390625 0.207031 0 0.1875 0 C 0.175781 0 0.160156 0 0.140625 0 C 0.128906 0 0.117188 0 0.109375 0 L 0.109375 0.078125 C 0.109375 0.078125 0.101562 0.078125 0.09375 0.078125 C 0.0820312 0.078125 0.0703125 0.078125 0.0625 0.078125 C 0.0625 0.078125 0.0546875 0.078125 0.046875 0.078125 C 0.046875 0.078125 0.0390625 0.078125 0.03125 0.078125 C 0.03125 0.078125 0.0234375 0.0703125 0.015625 0.0625 C 0.015625 0.0625 0.015625 0.0546875 0.015625 0.046875 L 0.015625 -0.1875 C 0.015625 -0.195312 0.015625 -0.203125 0.015625 -0.203125 C 0.0234375 -0.203125 0.0351562 -0.207031 0.046875 -0.21875 C 0.0546875 -0.226562 0.0664062 -0.234375 0.078125 -0.234375 C 0.0976562 -0.234375 0.117188 -0.234375 0.140625 -0.234375 Z M 0.140625 -0.0625 C 0.171875 -0.0625 0.1875 -0.078125 0.1875 -0.109375 C 0.1875 -0.140625 0.179688 -0.160156 0.171875 -0.171875 C 0.160156 -0.179688 0.148438 -0.1875 0.140625 -0.1875 C 0.128906 -0.1875 0.117188 -0.179688 0.109375 -0.171875 L 0.109375 -0.0625 C 0.117188 -0.0625 0.128906 -0.0625 0.140625 -0.0625 Z M 0.140625 -0.0625 "/></g></g></g><g fill="#000000" fill-opacity="1"><g transform="translate(175.492409, 27.448836)"><g><path d="M 0.125 -0.046875 C 0.132812 -0.046875 0.140625 -0.046875 0.140625 -0.046875 C 0.148438 -0.046875 0.15625 -0.0507812 0.15625 -0.0625 L 0.15625 -0.09375 L 0.125 -0.09375 C 0.113281 -0.09375 0.101562 -0.0859375 0.09375 -0.078125 C 0.09375 -0.0664062 0.09375 -0.0546875 0.09375 -0.046875 C 0.101562 -0.046875 0.113281 -0.046875 0.125 -0.046875 Z M 0.125 -0.234375 C 0.144531 -0.234375 0.160156 -0.234375 0.171875 -0.234375 C 0.179688 -0.234375 0.191406 -0.226562 0.203125 -0.21875 C 0.210938 -0.207031 0.21875 -0.195312 0.21875 -0.1875 C 0.226562 -0.175781 0.234375 -0.164062 0.234375 -0.15625 L 0.234375 -0.046875 C 0.234375 -0.0351562 0.226562 -0.0234375 0.21875 -0.015625 C 0.21875 -0.015625 0.210938 -0.0078125 0.203125 0 C 0.191406 0 0.164062 0 0.125 0 C 0.101562 0 0.0859375 0 0.078125 0 C 0.0664062 0 0.0546875 0 0.046875 0 C 0.0351562 -0.0078125 0.0234375 -0.0195312 0.015625 -0.03125 C 0.015625 -0.0390625 0.015625 -0.0507812 0.015625 -0.0625 C 0.015625 -0.09375 0.0195312 -0.113281 0.03125 -0.125 C 0.0390625 -0.132812 0.0625 -0.140625 0.09375 -0.140625 L 0.15625 -0.15625 C 0.15625 -0.164062 0.148438 -0.171875 0.140625 -0.171875 C 0.140625 -0.179688 0.128906 -0.1875 0.109375 -0.1875 C 0.0976562 -0.1875 0.0859375 -0.179688 0.078125 -0.171875 C 0.0664062 -0.171875 0.0546875 -0.171875 0.046875 -0.171875 C 0.0351562 -0.171875 0.03125 -0.171875 0.03125 -0.171875 C 0.03125 -0.179688 0.03125 -0.191406 0.03125 -0.203125 C 0.03125 -0.210938 0.0351562 -0.222656 0.046875 -0.234375 C 0.0546875 -0.234375 0.0664062 -0.234375 0.078125 -0.234375 C 0.0976562 -0.234375 0.113281 -0.234375 0.125 -0.234375 Z M 0.125 -0.234375 "/></g></g></g><g fill="#000000" fill-opacity="1"><g transform="translate(175.754559, 27.448836)"><g><path d="M 0.15625 -0.171875 C 0.144531 -0.171875 0.132812 -0.171875 0.125 -0.171875 C 0.125 -0.171875 0.117188 -0.164062 0.109375 -0.15625 C 0.109375 -0.15625 0.101562 -0.148438 0.09375 -0.140625 C 0.09375 -0.140625 0.09375 -0.132812 0.09375 -0.125 C 0.09375 -0.101562 0.0976562 -0.0859375 0.109375 -0.078125 C 0.128906 -0.0664062 0.144531 -0.0625 0.15625 -0.0625 C 0.164062 -0.0625 0.175781 -0.0625 0.1875 -0.0625 C 0.195312 -0.0625 0.203125 -0.0625 0.203125 -0.0625 C 0.203125 -0.0625 0.203125 -0.0546875 0.203125 -0.046875 C 0.210938 -0.046875 0.21875 -0.0390625 0.21875 -0.03125 C 0.21875 -0.0195312 0.210938 -0.0078125 0.203125 0 C 0.191406 0 0.175781 0 0.15625 0 C 0.132812 0 0.113281 0 0.09375 0 C 0.0703125 0 0.0546875 -0.00390625 0.046875 -0.015625 C 0.0351562 -0.0351562 0.0234375 -0.0507812 0.015625 -0.0625 C 0.015625 -0.0820312 0.015625 -0.0976562 0.015625 -0.109375 C 0.015625 -0.140625 0.015625 -0.160156 0.015625 -0.171875 C 0.0234375 -0.191406 0.0351562 -0.203125 0.046875 -0.203125 C 0.0546875 -0.210938 0.0703125 -0.21875 0.09375 -0.21875 C 0.113281 -0.226562 0.128906 -0.234375 0.140625 -0.234375 C 0.171875 -0.234375 0.191406 -0.226562 0.203125 -0.21875 C 0.210938 -0.21875 0.21875 -0.210938 0.21875 -0.203125 C 0.21875 -0.191406 0.210938 -0.179688 0.203125 -0.171875 C 0.203125 -0.171875 0.195312 -0.171875 0.1875 -0.171875 C 0.175781 -0.171875 0.164062 -0.171875 0.15625 -0.171875 Z M 0.15625 -0.171875 "/></g></g></g><g fill="#000000" fill-opacity="1"><g transform="translate(175.990205, 27.448836)"><g><path d="M 0.109375 -0.078125 C 0.109375 -0.0664062 0.109375 -0.0625 0.109375 -0.0625 C 0.117188 -0.0625 0.128906 -0.0625 0.140625 -0.0625 C 0.148438 -0.0625 0.160156 -0.0625 0.171875 -0.0625 C 0.171875 -0.0507812 0.171875 -0.046875 0.171875 -0.046875 C 0.171875 -0.046875 0.171875 -0.0390625 0.171875 -0.03125 C 0.171875 -0.0195312 0.164062 -0.0078125 0.15625 0 C 0.15625 0 0.140625 0 0.109375 0 C 0.0859375 0 0.0664062 -0.00390625 0.046875 -0.015625 C 0.0234375 -0.0234375 0.015625 -0.046875 0.015625 -0.078125 L 0.015625 -0.28125 C 0.0234375 -0.28125 0.03125 -0.28125 0.03125 -0.28125 C 0.0390625 -0.28125 0.0507812 -0.28125 0.0625 -0.28125 C 0.0703125 -0.28125 0.0820312 -0.273438 0.09375 -0.265625 C 0.101562 -0.265625 0.109375 -0.257812 0.109375 -0.25 L 0.109375 -0.21875 L 0.171875 -0.21875 C 0.171875 -0.207031 0.171875 -0.203125 0.171875 -0.203125 C 0.179688 -0.203125 0.1875 -0.195312 0.1875 -0.1875 C 0.1875 -0.175781 0.179688 -0.164062 0.171875 -0.15625 C 0.171875 -0.15625 0.164062 -0.15625 0.15625 -0.15625 L 0.109375 -0.15625 Z M 0.109375 -0.078125 "/></g></g></g><g fill="#000000" fill-opacity="1"><g transform="translate(176.182962, 27.448836)"><g><path d="M 0.15625 0 C 0.132812 0 0.113281 0 0.09375 0 C 0.0820312 0 0.0664062 -0.00390625 0.046875 -0.015625 C 0.0351562 -0.0234375 0.0234375 -0.0390625 0.015625 -0.0625 C 0.015625 -0.0820312 0.015625 -0.101562 0.015625 -0.125 C 0.015625 -0.144531 0.015625 -0.160156 0.015625 -0.171875 C 0.0234375 -0.191406 0.0351562 -0.203125 0.046875 -0.203125 C 0.0546875 -0.210938 0.0664062 -0.21875 0.078125 -0.21875 C 0.0976562 -0.226562 0.117188 -0.234375 0.140625 -0.234375 C 0.148438 -0.234375 0.160156 -0.226562 0.171875 -0.21875 C 0.191406 -0.21875 0.207031 -0.210938 0.21875 -0.203125 C 0.226562 -0.203125 0.234375 -0.191406 0.234375 -0.171875 C 0.242188 -0.160156 0.25 -0.148438 0.25 -0.140625 C 0.25 -0.128906 0.242188 -0.117188 0.234375 -0.109375 C 0.234375 -0.109375 0.226562 -0.109375 0.21875 -0.109375 L 0.09375 -0.078125 C 0.101562 -0.0664062 0.113281 -0.0546875 0.125 -0.046875 C 0.132812 -0.046875 0.144531 -0.046875 0.15625 -0.046875 C 0.164062 -0.046875 0.175781 -0.046875 0.1875 -0.046875 C 0.195312 -0.0546875 0.207031 -0.0625 0.21875 -0.0625 C 0.21875 -0.0625 0.21875 -0.0546875 0.21875 -0.046875 C 0.226562 -0.046875 0.234375 -0.0390625 0.234375 -0.03125 C 0.234375 -0.0195312 0.226562 -0.0078125 0.21875 0 C 0.207031 0 0.195312 0 0.1875 0 C 0.175781 0 0.164062 0 0.15625 0 Z M 0.140625 -0.1875 C 0.128906 -0.1875 0.117188 -0.179688 0.109375 -0.171875 C 0.109375 -0.171875 0.101562 -0.171875 0.09375 -0.171875 C 0.09375 -0.171875 0.09375 -0.164062 0.09375 -0.15625 C 0.09375 -0.15625 0.09375 -0.148438 0.09375 -0.140625 L 0.171875 -0.15625 C 0.171875 -0.164062 0.164062 -0.171875 0.15625 -0.171875 C 0.15625 -0.179688 0.148438 -0.1875 0.140625 -0.1875 Z M 0.140625 -0.1875 "/></g></g></g><g fill="#000000" fill-opacity="1"><g transform="translate(176.447522, 27.448836)"><g><path d="M 0.109375 0 C 0.109375 0 0.101562 0 0.09375 0 C 0.0820312 0 0.0703125 0 0.0625 0 C 0.0625 0 0.0546875 0 0.046875 0 C 0.046875 0 0.0390625 0 0.03125 0 C 0.03125 0 0.0234375 0 0.015625 0 C 0.015625 -0.0078125 0.015625 -0.0195312 0.015625 -0.03125 L 0.015625 -0.1875 C 0.0234375 -0.195312 0.03125 -0.203125 0.03125 -0.203125 C 0.0390625 -0.210938 0.046875 -0.21875 0.046875 -0.21875 C 0.0546875 -0.21875 0.0664062 -0.21875 0.078125 -0.21875 C 0.0859375 -0.226562 0.0976562 -0.234375 0.109375 -0.234375 C 0.117188 -0.234375 0.128906 -0.234375 0.140625 -0.234375 C 0.160156 -0.234375 0.171875 -0.226562 0.171875 -0.21875 C 0.179688 -0.21875 0.1875 -0.210938 0.1875 -0.203125 C 0.1875 -0.203125 0.1875 -0.195312 0.1875 -0.1875 C 0.175781 -0.1875 0.164062 -0.179688 0.15625 -0.171875 C 0.15625 -0.171875 0.148438 -0.171875 0.140625 -0.171875 C 0.128906 -0.171875 0.117188 -0.171875 0.109375 -0.171875 Z M 0.109375 0 "/></g></g></g><g fill="#000000" fill-opacity="1"><g transform="translate(176.64558, 27.448836)"><g><path d="M 0.125 -0.046875 C 0.132812 -0.046875 0.140625 -0.046875 0.140625 -0.046875 C 0.148438 -0.046875 0.15625 -0.0507812 0.15625 -0.0625 L 0.15625 -0.09375 L 0.125 -0.09375 C 0.113281 -0.09375 0.101562 -0.0859375 0.09375 -0.078125 C 0.09375 -0.0664062 0.09375 -0.0546875 0.09375 -0.046875 C 0.101562 -0.046875 0.113281 -0.046875 0.125 -0.046875 Z M 0.125 -0.234375 C 0.144531 -0.234375 0.160156 -0.234375 0.171875 -0.234375 C 0.179688 -0.234375 0.191406 -0.226562 0.203125 -0.21875 C 0.210938 -0.207031 0.21875 -0.195312 0.21875 -0.1875 C 0.226562 -0.175781 0.234375 -0.164062 0.234375 -0.15625 L 0.234375 -0.046875 C 0.234375 -0.0351562 0.226562 -0.0234375 0.21875 -0.015625 C 0.21875 -0.015625 0.210938 -0.0078125 0.203125 0 C 0.191406 0 0.164062 0 0.125 0 C 0.101562 0 0.0859375 0 0.078125 0 C 0.0664062 0 0.0546875 0 0.046875 0 C 0.0351562 -0.0078125 0.0234375 -0.0195312 0.015625 -0.03125 C 0.015625 -0.0390625 0.015625 -0.0507812 0.015625 -0.0625 C 0.015625 -0.09375 0.0195312 -0.113281 0.03125 -0.125 C 0.0390625 -0.132812 0.0625 -0.140625 0.09375 -0.140625 L 0.15625 -0.15625 C 0.15625 -0.164062 0.148438 -0.171875 0.140625 -0.171875 C 0.140625 -0.179688 0.128906 -0.1875 0.109375 -0.1875 C 0.0976562 -0.1875 0.0859375 -0.179688 0.078125 -0.171875 C 0.0664062 -0.171875 0.0546875 -0.171875 0.046875 -0.171875 C 0.0351562 -0.171875 0.03125 -0.171875 0.03125 -0.171875 C 0.03125 -0.179688 0.03125 -0.191406 0.03125 -0.203125 C 0.03125 -0.210938 0.0351562 -0.222656 0.046875 -0.234375 C 0.0546875 -0.234375 0.0664062 -0.234375 0.078125 -0.234375 C 0.0976562 -0.234375 0.113281 -0.234375 0.125 -0.234375 Z M 0.125 -0.234375 "/></g></g></g><g fill="#000000" fill-opacity="1"><g transform="translate(176.90773, 27.448836)"><g><path d="M 0 -0.03125 C 0 -0.0507812 0.00390625 -0.0625 0.015625 -0.0625 C 0.0234375 -0.0703125 0.0390625 -0.078125 0.0625 -0.078125 C 0.0703125 -0.078125 0.0820312 -0.0703125 0.09375 -0.0625 C 0.101562 -0.0625 0.109375 -0.0507812 0.109375 -0.03125 C 0.109375 -0.0195312 0.101562 -0.0078125 0.09375 0 C 0.0820312 0 0.0703125 0 0.0625 0 C 0.0390625 0 0.0234375 0 0.015625 0 C 0.00390625 -0.0078125 0 -0.0195312 0 -0.03125 Z M 0 -0.03125 "/></g></g></g><g fill="#212f3d" fill-opacity="1"><g transform="translate(28.171874, 29.953009)"><g><path d="M 1.90625 -24.6875 C 1.90625 -25.695312 2.242188 -26.546875 2.921875 -27.234375 C 3.597656 -27.921875 4.492188 -28.265625 5.609375 -28.265625 C 6.722656 -28.265625 7.613281 -27.921875 8.28125 -27.234375 C 8.957031 -26.546875 9.296875 -25.695312 9.296875 -24.6875 C 9.296875 -23.675781 8.957031 -22.828125 8.28125 -22.140625 C 7.613281 -21.453125 6.722656 -21.109375 5.609375 -21.109375 C 4.492188 -21.109375 3.597656 -21.453125 2.921875 -22.140625 C 2.242188 -22.828125 1.90625 -23.675781 1.90625 -24.6875 Z M 8.984375 -0.046875 C 8.691406 0.015625 8.257812 0.0859375 7.6875 0.171875 C 7.125 0.265625 6.550781 0.3125 5.96875 0.3125 C 5.382812 0.3125 4.859375 0.269531 4.390625 0.1875 C 3.929688 0.113281 3.539062 -0.0390625 3.21875 -0.28125 C 2.90625 -0.519531 2.660156 -0.84375 2.484375 -1.25 C 2.304688 -1.664062 2.21875 -2.203125 2.21875 -2.859375 L 2.21875 -19.046875 C 2.507812 -19.097656 2.941406 -19.164062 3.515625 -19.25 C 4.085938 -19.34375 4.664062 -19.390625 5.25 -19.390625 C 5.832031 -19.390625 6.351562 -19.347656 6.8125 -19.265625 C 7.28125 -19.191406 7.671875 -19.035156 7.984375 -18.796875 C 8.304688 -18.554688 8.550781 -18.234375 8.71875 -17.828125 C 8.894531 -17.421875 8.984375 -16.882812 8.984375 -16.21875 Z M 8.984375 -0.046875 "/></g></g></g><g fill="#212f3d" fill-opacity="1"><g transform="translate(39.381373, 29.953009)"><g><path d="M 11.328125 -19.921875 C 12.410156 -19.921875 13.472656 -19.765625 14.515625 -19.453125 C 15.566406 -19.148438 16.476562 -18.695312 17.25 -18.09375 C 18.039062 -18.613281 18.929688 -19.046875 19.921875 -19.390625 C 20.921875 -19.742188 22.125 -19.921875 23.53125 -19.921875 C 24.539062 -19.921875 25.523438 -19.785156 26.484375 -19.515625 C 27.453125 -19.253906 28.3125 -18.835938 29.0625 -18.265625 C 29.820312 -17.691406 30.425781 -16.9375 30.875 -16 C 31.332031 -15.0625 31.5625 -13.914062 31.5625 -12.5625 L 31.5625 -0.046875 C 31.300781 0.0351562 30.882812 0.113281 30.3125 0.1875 C 29.738281 0.269531 29.148438 0.3125 28.546875 0.3125 C 27.960938 0.3125 27.4375 0.269531 26.96875 0.1875 C 26.507812 0.113281 26.117188 -0.0390625 25.796875 -0.28125 C 25.484375 -0.519531 25.238281 -0.84375 25.0625 -1.25 C 24.882812 -1.664062 24.796875 -2.203125 24.796875 -2.859375 L 24.796875 -12.359375 C 24.796875 -13.160156 24.570312 -13.738281 24.125 -14.09375 C 23.675781 -14.445312 23.066406 -14.625 22.296875 -14.625 C 21.929688 -14.625 21.535156 -14.535156 21.109375 -14.359375 C 20.679688 -14.191406 20.363281 -14.015625 20.15625 -13.828125 C 20.175781 -13.722656 20.1875 -13.625 20.1875 -13.53125 C 20.1875 -13.4375 20.1875 -13.351562 20.1875 -13.28125 L 20.1875 -0.046875 C 19.894531 0.0351562 19.460938 0.113281 18.890625 0.1875 C 18.328125 0.269531 17.753906 0.3125 17.171875 0.3125 C 16.585938 0.3125 16.0625 0.269531 15.59375 0.1875 C 15.132812 0.113281 14.742188 -0.0390625 14.421875 -0.28125 C 14.109375 -0.519531 13.863281 -0.84375 13.6875 -1.25 C 13.519531 -1.664062 13.4375 -2.203125 13.4375 -2.859375 L 13.4375 -12.359375 C 13.4375 -13.160156 13.191406 -13.738281 12.703125 -14.09375 C 12.210938 -14.445312 11.625 -14.625 10.9375 -14.625 C 10.457031 -14.625 10.046875 -14.550781 9.703125 -14.40625 C 9.359375 -14.257812 9.066406 -14.117188 8.828125 -13.984375 L 8.828125 -0.046875 C 8.554688 0.0351562 8.132812 0.113281 7.5625 0.1875 C 7 0.269531 6.410156 0.3125 5.796875 0.3125 C 5.210938 0.3125 4.6875 0.269531 4.21875 0.1875 C 3.757812 0.113281 3.367188 -0.0390625 3.046875 -0.28125 C 2.734375 -0.519531 2.488281 -0.84375 2.3125 -1.25 C 2.144531 -1.664062 2.0625 -2.203125 2.0625 -2.859375 L 2.0625 -14.859375 C 2.0625 -15.578125 2.210938 -16.148438 2.515625 -16.578125 C 2.828125 -17.003906 3.25 -17.398438 3.78125 -17.765625 C 4.675781 -18.398438 5.789062 -18.914062 7.125 -19.3125 C 8.46875 -19.71875 9.867188 -19.921875 11.328125 -19.921875 Z M 11.328125 -19.921875 "/></g></g></g><g fill="#212f3d" fill-opacity="1"><g transform="translate(73.009858, 29.953009)"><g><path d="M 10.9375 -19.921875 C 12.519531 -19.921875 13.992188 -19.710938 15.359375 -19.296875 C 16.722656 -18.890625 17.894531 -18.257812 18.875 -17.40625 C 19.863281 -16.5625 20.632812 -15.492188 21.1875 -14.203125 C 21.738281 -12.921875 22.015625 -11.394531 22.015625 -9.625 C 22.015625 -7.925781 21.773438 -6.441406 21.296875 -5.171875 C 20.828125 -3.898438 20.15625 -2.832031 19.28125 -1.96875 C 18.40625 -1.101562 17.347656 -0.457031 16.109375 -0.03125 C 14.878906 0.382812 13.507812 0.59375 12 0.59375 C 10.863281 0.59375 9.804688 0.421875 8.828125 0.078125 L 8.828125 6.671875 C 8.554688 6.753906 8.128906 6.84375 7.546875 6.9375 C 6.960938 7.03125 6.367188 7.078125 5.765625 7.078125 C 5.179688 7.078125 4.65625 7.035156 4.1875 6.953125 C 3.726562 6.878906 3.335938 6.722656 3.015625 6.484375 C 2.703125 6.242188 2.460938 5.914062 2.296875 5.5 C 2.140625 5.09375 2.0625 4.554688 2.0625 3.890625 L 2.0625 -15.1875 C 2.0625 -15.894531 2.210938 -16.472656 2.515625 -16.921875 C 2.828125 -17.378906 3.25 -17.796875 3.78125 -18.171875 C 4.601562 -18.691406 5.625 -19.113281 6.84375 -19.4375 C 8.0625 -19.757812 9.425781 -19.921875 10.9375 -19.921875 Z M 11.015625 -4.734375 C 13.742188 -4.734375 15.109375 -6.363281 15.109375 -9.625 C 15.109375 -11.3125 14.769531 -12.566406 14.09375 -13.390625 C 13.414062 -14.210938 12.441406 -14.625 11.171875 -14.625 C 10.671875 -14.625 10.21875 -14.5625 9.8125 -14.4375 C 9.414062 -14.320312 9.070312 -14.1875 8.78125 -14.03125 L 8.78125 -5.28125 C 9.101562 -5.125 9.445312 -4.992188 9.8125 -4.890625 C 10.1875 -4.785156 10.585938 -4.734375 11.015625 -4.734375 Z M 11.015625 -4.734375 "/></g></g></g><g fill="#212f3d" fill-opacity="1"><g transform="translate(96.263599, 29.953009)"><g><path d="M 10.328125 -4.296875 C 10.785156 -4.296875 11.285156 -4.34375 11.828125 -4.4375 C 12.367188 -4.53125 12.769531 -4.65625 13.03125 -4.8125 L 13.03125 -7.984375 L 10.171875 -7.75 C 9.429688 -7.695312 8.820312 -7.535156 8.34375 -7.265625 C 7.863281 -7.003906 7.625 -6.609375 7.625 -6.078125 C 7.625 -5.546875 7.828125 -5.113281 8.234375 -4.78125 C 8.648438 -4.457031 9.347656 -4.296875 10.328125 -4.296875 Z M 10.015625 -19.921875 C 11.441406 -19.921875 12.742188 -19.773438 13.921875 -19.484375 C 15.109375 -19.191406 16.117188 -18.742188 16.953125 -18.140625 C 17.785156 -17.546875 18.425781 -16.789062 18.875 -15.875 C 19.332031 -14.96875 19.5625 -13.890625 19.5625 -12.640625 L 19.5625 -3.734375 C 19.5625 -3.046875 19.367188 -2.484375 18.984375 -2.046875 C 18.597656 -1.609375 18.140625 -1.234375 17.609375 -0.921875 C 15.890625 0.117188 13.460938 0.640625 10.328125 0.640625 C 8.929688 0.640625 7.664062 0.503906 6.53125 0.234375 C 5.40625 -0.0234375 4.4375 -0.421875 3.625 -0.953125 C 2.820312 -1.484375 2.203125 -2.160156 1.765625 -2.984375 C 1.328125 -3.804688 1.109375 -4.757812 1.109375 -5.84375 C 1.109375 -7.675781 1.648438 -9.082031 2.734375 -10.0625 C 3.828125 -11.039062 5.515625 -11.648438 7.796875 -11.890625 L 13 -12.4375 L 13 -12.71875 C 13 -13.488281 12.660156 -14.035156 11.984375 -14.359375 C 11.304688 -14.691406 10.332031 -14.859375 9.0625 -14.859375 C 8.050781 -14.859375 7.066406 -14.753906 6.109375 -14.546875 C 5.160156 -14.335938 4.300781 -14.070312 3.53125 -13.75 C 3.1875 -13.988281 2.894531 -14.351562 2.65625 -14.84375 C 2.425781 -15.332031 2.3125 -15.84375 2.3125 -16.375 C 2.3125 -17.0625 2.472656 -17.609375 2.796875 -18.015625 C 3.128906 -18.429688 3.640625 -18.785156 4.328125 -19.078125 C 5.097656 -19.367188 6.003906 -19.582031 7.046875 -19.71875 C 8.097656 -19.851562 9.085938 -19.921875 10.015625 -19.921875 Z M 10.015625 -19.921875 "/></g></g></g><g fill="#212f3d" fill-opacity="1"><g transform="translate(117.887587, 29.953009)"><g><path d="M 12.953125 -14.59375 C 12.296875 -14.59375 11.664062 -14.484375 11.0625 -14.265625 C 10.46875 -14.054688 9.953125 -13.742188 9.515625 -13.328125 C 9.078125 -12.921875 8.722656 -12.410156 8.453125 -11.796875 C 8.191406 -11.191406 8.0625 -10.476562 8.0625 -9.65625 C 8.0625 -8.007812 8.53125 -6.773438 9.46875 -5.953125 C 10.414062 -5.140625 11.566406 -4.734375 12.921875 -4.734375 C 13.710938 -4.734375 14.398438 -4.820312 14.984375 -5 C 15.566406 -5.1875 16.082031 -5.390625 16.53125 -5.609375 C 17.0625 -5.234375 17.457031 -4.828125 17.71875 -4.390625 C 17.988281 -3.953125 18.125 -3.429688 18.125 -2.828125 C 18.125 -1.734375 17.609375 -0.890625 16.578125 -0.296875 C 15.546875 0.296875 14.113281 0.59375 12.28125 0.59375 C 10.613281 0.59375 9.101562 0.347656 7.75 -0.140625 C 6.394531 -0.628906 5.234375 -1.316406 4.265625 -2.203125 C 3.304688 -3.085938 2.5625 -4.15625 2.03125 -5.40625 C 1.5 -6.65625 1.234375 -8.035156 1.234375 -9.546875 C 1.234375 -11.285156 1.515625 -12.8125 2.078125 -14.125 C 2.648438 -15.4375 3.425781 -16.515625 4.40625 -17.359375 C 5.394531 -18.210938 6.53125 -18.851562 7.8125 -19.28125 C 9.09375 -19.707031 10.453125 -19.921875 11.890625 -19.921875 C 13.796875 -19.921875 15.265625 -19.570312 16.296875 -18.875 C 17.328125 -18.1875 17.84375 -17.300781 17.84375 -16.21875 C 17.84375 -15.71875 17.722656 -15.25 17.484375 -14.8125 C 17.242188 -14.375 16.96875 -13.992188 16.65625 -13.671875 C 16.207031 -13.878906 15.664062 -14.082031 15.03125 -14.28125 C 14.394531 -14.488281 13.703125 -14.59375 12.953125 -14.59375 Z M 12.953125 -14.59375 "/></g></g></g><g fill="#212f3d" fill-opacity="1"><g transform="translate(137.32533, 29.953009)"><g><path d="M 8.828125 -6.640625 C 8.828125 -5.953125 9.046875 -5.460938 9.484375 -5.171875 C 9.921875 -4.878906 10.535156 -4.734375 11.328125 -4.734375 C 11.722656 -4.734375 12.132812 -4.765625 12.5625 -4.828125 C 12.988281 -4.890625 13.359375 -4.976562 13.671875 -5.09375 C 13.910156 -4.800781 14.113281 -4.472656 14.28125 -4.109375 C 14.457031 -3.753906 14.546875 -3.328125 14.546875 -2.828125 C 14.546875 -1.816406 14.164062 -0.992188 13.40625 -0.359375 C 12.65625 0.273438 11.328125 0.59375 9.421875 0.59375 C 7.085938 0.59375 5.289062 0.0664062 4.03125 -0.984375 C 2.769531 -2.046875 2.140625 -3.769531 2.140625 -6.15625 L 2.140625 -23.171875 C 2.429688 -23.253906 2.847656 -23.34375 3.390625 -23.4375 C 3.941406 -23.53125 4.519531 -23.578125 5.125 -23.578125 C 6.289062 -23.578125 7.195312 -23.367188 7.84375 -22.953125 C 8.5 -22.546875 8.828125 -21.679688 8.828125 -20.359375 L 8.828125 -17.8125 L 14.03125 -17.8125 C 14.1875 -17.519531 14.335938 -17.15625 14.484375 -16.71875 C 14.628906 -16.28125 14.703125 -15.796875 14.703125 -15.265625 C 14.703125 -14.335938 14.492188 -13.664062 14.078125 -13.25 C 13.671875 -12.84375 13.125 -12.640625 12.4375 -12.640625 L 8.828125 -12.640625 Z M 8.828125 -6.640625 "/></g></g></g><g fill="#3e3a4e" fill-opacity="1"><g transform="translate(153.222654, 29.953009)"><g><path d="M 1.265625 -15.703125 C 1.265625 -16.816406 1.609375 -17.742188 2.296875 -18.484375 C 2.992188 -19.222656 3.9375 -19.59375 5.125 -19.59375 C 6.320312 -19.59375 7.265625 -19.222656 7.953125 -18.484375 C 8.640625 -17.742188 8.984375 -16.816406 8.984375 -15.703125 C 8.984375 -14.585938 8.640625 -13.660156 7.953125 -12.921875 C 7.265625 -12.179688 6.320312 -11.8125 5.125 -11.8125 C 3.9375 -11.8125 2.992188 -12.179688 2.296875 -12.921875 C 1.609375 -13.660156 1.265625 -14.585938 1.265625 -15.703125 Z M 1.265625 -3.21875 C 1.265625 -4.332031 1.609375 -5.257812 2.296875 -6 C 2.992188 -6.738281 3.9375 -7.109375 5.125 -7.109375 C 6.320312 -7.109375 7.265625 -6.738281 7.953125 -6 C 8.640625 -5.257812 8.984375 -4.332031 8.984375 -3.21875 C 8.984375 -2.101562 8.640625 -1.175781 7.953125 -0.4375 C 7.265625 0.300781 6.320312 0.671875 5.125 0.671875 C 3.9375 0.671875 2.992188 0.300781 2.296875 -0.4375 C 1.609375 -1.175781 1.265625 -2.101562 1.265625 -3.21875 Z M 1.265625 -3.21875 "/></g></g></g><g fill="#212f3d" fill-opacity="1"><g transform="translate(163.476556, 29.953009)"><g><path d="M 12.28125 0.640625 C 10.71875 0.640625 9.265625 0.421875 7.921875 -0.015625 C 6.585938 -0.453125 5.421875 -1.109375 4.421875 -1.984375 C 3.429688 -2.859375 2.648438 -3.957031 2.078125 -5.28125 C 1.515625 -6.613281 1.234375 -8.164062 1.234375 -9.9375 C 1.234375 -11.6875 1.515625 -13.191406 2.078125 -14.453125 C 2.648438 -15.710938 3.398438 -16.742188 4.328125 -17.546875 C 5.253906 -18.359375 6.3125 -18.957031 7.5 -19.34375 C 8.695312 -19.726562 9.921875 -19.921875 11.171875 -19.921875 C 12.578125 -19.921875 13.851562 -19.707031 15 -19.28125 C 16.15625 -18.851562 17.148438 -18.269531 17.984375 -17.53125 C 18.816406 -16.789062 19.460938 -15.898438 19.921875 -14.859375 C 20.390625 -13.828125 20.625 -12.703125 20.625 -11.484375 C 20.625 -10.585938 20.375 -9.898438 19.875 -9.421875 C 19.375 -8.941406 18.671875 -8.632812 17.765625 -8.5 L 7.953125 -7.03125 C 8.242188 -6.15625 8.835938 -5.5 9.734375 -5.0625 C 10.640625 -4.625 11.675781 -4.40625 12.84375 -4.40625 C 13.925781 -4.40625 14.953125 -4.546875 15.921875 -4.828125 C 16.890625 -5.109375 17.675781 -5.429688 18.28125 -5.796875 C 18.707031 -5.535156 19.066406 -5.164062 19.359375 -4.6875 C 19.648438 -4.207031 19.796875 -3.707031 19.796875 -3.1875 C 19.796875 -1.988281 19.238281 -1.097656 18.125 -0.515625 C 17.28125 -0.0664062 16.328125 0.234375 15.265625 0.390625 C 14.203125 0.554688 13.207031 0.640625 12.28125 0.640625 Z M 11.171875 -14.984375 C 10.535156 -14.984375 9.984375 -14.875 9.515625 -14.65625 C 9.054688 -14.445312 8.679688 -14.175781 8.390625 -13.84375 C 8.097656 -13.519531 7.878906 -13.148438 7.734375 -12.734375 C 7.585938 -12.328125 7.5 -11.910156 7.46875 -11.484375 L 14.265625 -12.59375 C 14.191406 -13.125 13.898438 -13.65625 13.390625 -14.1875 C 12.890625 -14.71875 12.148438 -14.984375 11.171875 -14.984375 Z M 11.171875 -14.984375 "/></g></g></g><g fill="#212f3d" fill-opacity="1"><g transform="translate(185.299294, 29.953009)"><g><path d="M 8.828125 -0.046875 C 8.554688 0.0351562 8.132812 0.113281 7.5625 0.1875 C 7 0.269531 6.410156 0.3125 5.796875 0.3125 C 5.210938 0.3125 4.6875 0.269531 4.21875 0.1875 C 3.757812 0.113281 3.367188 -0.0390625 3.046875 -0.28125 C 2.734375 -0.519531 2.488281 -0.84375 2.3125 -1.25 C 2.144531 -1.664062 2.0625 -2.203125 2.0625 -2.859375 L 2.0625 -14.78125 C 2.0625 -15.394531 2.175781 -15.921875 2.40625 -16.359375 C 2.632812 -16.796875 2.957031 -17.1875 3.375 -17.53125 C 3.800781 -17.875 4.328125 -18.179688 4.953125 -18.453125 C 5.578125 -18.734375 6.242188 -18.976562 6.953125 -19.1875 C 7.671875 -19.40625 8.410156 -19.570312 9.171875 -19.6875 C 9.941406 -19.8125 10.710938 -19.875 11.484375 -19.875 C 12.753906 -19.875 13.757812 -19.628906 14.5 -19.140625 C 15.25 -18.648438 15.625 -17.847656 15.625 -16.734375 C 15.625 -16.359375 15.566406 -15.992188 15.453125 -15.640625 C 15.347656 -15.285156 15.21875 -14.960938 15.0625 -14.671875 C 14.507812 -14.671875 13.941406 -14.644531 13.359375 -14.59375 C 12.773438 -14.539062 12.203125 -14.457031 11.640625 -14.34375 C 11.085938 -14.238281 10.566406 -14.125 10.078125 -14 C 9.585938 -13.882812 9.171875 -13.75 8.828125 -13.59375 Z M 8.828125 -0.046875 "/></g></g></g><g fill="#212f3d" fill-opacity="1"><g transform="translate(201.636535, 29.953009)"><g><path d="M 10.328125 -4.296875 C 10.785156 -4.296875 11.285156 -4.34375 11.828125 -4.4375 C 12.367188 -4.53125 12.769531 -4.65625 13.03125 -4.8125 L 13.03125 -7.984375 L 10.171875 -7.75 C 9.429688 -7.695312 8.820312 -7.535156 8.34375 -7.265625 C 7.863281 -7.003906 7.625 -6.609375 7.625 -6.078125 C 7.625 -5.546875 7.828125 -5.113281 8.234375 -4.78125 C 8.648438 -4.457031 9.347656 -4.296875 10.328125 -4.296875 Z M 10.015625 -19.921875 C 11.441406 -19.921875 12.742188 -19.773438 13.921875 -19.484375 C 15.109375 -19.191406 16.117188 -18.742188 16.953125 -18.140625 C 17.785156 -17.546875 18.425781 -16.789062 18.875 -15.875 C 19.332031 -14.96875 19.5625 -13.890625 19.5625 -12.640625 L 19.5625 -3.734375 C 19.5625 -3.046875 19.367188 -2.484375 18.984375 -2.046875 C 18.597656 -1.609375 18.140625 -1.234375 17.609375 -0.921875 C 15.890625 0.117188 13.460938 0.640625 10.328125 0.640625 C 8.929688 0.640625 7.664062 0.503906 6.53125 0.234375 C 5.40625 -0.0234375 4.4375 -0.421875 3.625 -0.953125 C 2.820312 -1.484375 2.203125 -2.160156 1.765625 -2.984375 C 1.328125 -3.804688 1.109375 -4.757812 1.109375 -5.84375 C 1.109375 -7.675781 1.648438 -9.082031 2.734375 -10.0625 C 3.828125 -11.039062 5.515625 -11.648438 7.796875 -11.890625 L 13 -12.4375 L 13 -12.71875 C 13 -13.488281 12.660156 -14.035156 11.984375 -14.359375 C 11.304688 -14.691406 10.332031 -14.859375 9.0625 -14.859375 C 8.050781 -14.859375 7.066406 -14.753906 6.109375 -14.546875 C 5.160156 -14.335938 4.300781 -14.070312 3.53125 -13.75 C 3.1875 -13.988281 2.894531 -14.351562 2.65625 -14.84375 C 2.425781 -15.332031 2.3125 -15.84375 2.3125 -16.375 C 2.3125 -17.0625 2.472656 -17.609375 2.796875 -18.015625 C 3.128906 -18.429688 3.640625 -18.785156 4.328125 -19.078125 C 5.097656 -19.367188 6.003906 -19.582031 7.046875 -19.71875 C 8.097656 -19.851562 9.085938 -19.921875 10.015625 -19.921875 Z M 10.015625 -19.921875 "/></g></g></g><g fill="#545359" fill-opacity="1"><g transform="translate(224.662519, 25.436504)"><g><path d="M 2.660156 0 L 2.660156 -4.355469 L 4.253906 -4.355469 L 4.253906 -5.242188 L 0.0703125 -5.242188 L 0.0703125 -4.355469 L 1.667969 -4.355469 L 1.667969 0 Z M 2.660156 0 "/></g></g></g><g fill="#545359" fill-opacity="1"><g transform="translate(228.990458, 25.436504)"><g><path d="M 1.457031 0 L 1.457031 -4.472656 L 2.707031 0 L 3.675781 0 L 4.925781 -4.5 L 4.925781 0 L 5.914062 0 L 5.914062 -5.242188 L 4.265625 -5.242188 L 3.1875 -1.195312 L 2.101562 -5.242188 L 0.46875 -5.242188 L 0.46875 0 Z M 1.457031 0 "/></g></g></g><g fill="#5271ff" fill-opacity="1"><g transform="translate(152.624188, 48.123197)"><g><path d="M 3.15625 -9.546875 C 3.332031 -9.648438 3.609375 -9.75 3.984375 -9.84375 C 4.359375 -9.945312 4.734375 -10 5.109375 -10 C 5.648438 -10 6.128906 -9.921875 6.546875 -9.765625 C 6.960938 -9.609375 7.234375 -9.363281 7.359375 -9.03125 C 7.546875 -8.46875 7.753906 -7.8125 7.984375 -7.0625 C 8.210938 -6.3125 8.441406 -5.539062 8.671875 -4.75 C 8.898438 -3.957031 9.117188 -3.171875 9.328125 -2.390625 C 9.546875 -1.617188 9.738281 -0.9375 9.90625 -0.34375 C 9.769531 -0.1875 9.570312 -0.0664062 9.3125 0.015625 C 9.050781 0.109375 8.742188 0.15625 8.390625 0.15625 C 8.128906 0.15625 7.910156 0.132812 7.734375 0.09375 C 7.554688 0.0507812 7.410156 -0.0078125 7.296875 -0.09375 C 7.179688 -0.1875 7.085938 -0.300781 7.015625 -0.4375 C 6.953125 -0.582031 6.890625 -0.742188 6.828125 -0.921875 L 6.546875 -2.046875 L 3.609375 -2.046875 C 3.515625 -1.722656 3.425781 -1.382812 3.34375 -1.03125 C 3.257812 -0.6875 3.171875 -0.351562 3.078125 -0.03125 C 2.929688 0.0195312 2.773438 0.0625 2.609375 0.09375 C 2.441406 0.132812 2.238281 0.15625 2 0.15625 C 1.445312 0.15625 1.035156 0.0625 0.765625 -0.125 C 0.503906 -0.3125 0.375 -0.570312 0.375 -0.90625 C 0.375 -1.0625 0.394531 -1.210938 0.4375 -1.359375 C 0.476562 -1.515625 0.523438 -1.695312 0.578125 -1.90625 C 0.660156 -2.195312 0.769531 -2.554688 0.90625 -2.984375 C 1.039062 -3.421875 1.1875 -3.890625 1.34375 -4.390625 C 1.507812 -4.890625 1.679688 -5.40625 1.859375 -5.9375 C 2.046875 -6.46875 2.21875 -6.96875 2.375 -7.4375 C 2.539062 -7.914062 2.691406 -8.335938 2.828125 -8.703125 C 2.960938 -9.066406 3.070312 -9.347656 3.15625 -9.546875 Z M 5.09375 -7.453125 C 4.945312 -6.992188 4.773438 -6.484375 4.578125 -5.921875 C 4.390625 -5.367188 4.222656 -4.804688 4.078125 -4.234375 L 6.09375 -4.234375 C 5.9375 -4.816406 5.78125 -5.382812 5.625 -5.9375 C 5.46875 -6.5 5.320312 -7.003906 5.1875 -7.453125 Z M 5.09375 -7.453125 "/></g></g></g><g fill="#5271ff" fill-opacity="1"><g transform="translate(162.793362, 48.123197)"><g><path d="M 5.296875 -5.953125 C 5.023438 -5.953125 4.765625 -5.910156 4.515625 -5.828125 C 4.273438 -5.742188 4.066406 -5.613281 3.890625 -5.4375 C 3.710938 -5.269531 3.566406 -5.0625 3.453125 -4.8125 C 3.347656 -4.570312 3.296875 -4.28125 3.296875 -3.9375 C 3.296875 -3.269531 3.488281 -2.769531 3.875 -2.4375 C 4.257812 -2.101562 4.726562 -1.9375 5.28125 -1.9375 C 5.601562 -1.9375 5.882812 -1.972656 6.125 -2.046875 C 6.363281 -2.117188 6.570312 -2.195312 6.75 -2.28125 C 6.96875 -2.132812 7.128906 -1.972656 7.234375 -1.796875 C 7.347656 -1.617188 7.40625 -1.40625 7.40625 -1.15625 C 7.40625 -0.707031 7.191406 -0.359375 6.765625 -0.109375 C 6.347656 0.128906 5.765625 0.25 5.015625 0.25 C 4.335938 0.25 3.722656 0.148438 3.171875 -0.046875 C 2.617188 -0.253906 2.144531 -0.535156 1.75 -0.890625 C 1.351562 -1.253906 1.046875 -1.691406 0.828125 -2.203125 C 0.609375 -2.710938 0.5 -3.273438 0.5 -3.890625 C 0.5 -4.609375 0.613281 -5.234375 0.84375 -5.765625 C 1.082031 -6.304688 1.398438 -6.75 1.796875 -7.09375 C 2.203125 -7.4375 2.664062 -7.695312 3.1875 -7.875 C 3.71875 -8.050781 4.273438 -8.140625 4.859375 -8.140625 C 5.628906 -8.140625 6.226562 -8 6.65625 -7.71875 C 7.082031 -7.4375 7.296875 -7.070312 7.296875 -6.625 C 7.296875 -6.414062 7.242188 -6.222656 7.140625 -6.046875 C 7.046875 -5.867188 6.929688 -5.710938 6.796875 -5.578125 C 6.617188 -5.671875 6.398438 -5.753906 6.140625 -5.828125 C 5.878906 -5.910156 5.597656 -5.953125 5.296875 -5.953125 Z M 5.296875 -5.953125 "/></g></g></g><g fill="#5271ff" fill-opacity="1"><g transform="translate(170.724346, 48.123197)"><g><path d="M 4.21875 -1.75 C 4.40625 -1.75 4.609375 -1.765625 4.828125 -1.796875 C 5.046875 -1.835938 5.210938 -1.894531 5.328125 -1.96875 L 5.328125 -3.265625 L 4.15625 -3.171875 C 3.851562 -3.148438 3.601562 -3.082031 3.40625 -2.96875 C 3.207031 -2.863281 3.109375 -2.703125 3.109375 -2.484375 C 3.109375 -2.265625 3.191406 -2.085938 3.359375 -1.953125 C 3.535156 -1.816406 3.820312 -1.75 4.21875 -1.75 Z M 4.09375 -8.140625 C 4.675781 -8.140625 5.207031 -8.078125 5.6875 -7.953125 C 6.164062 -7.835938 6.578125 -7.65625 6.921875 -7.40625 C 7.265625 -7.164062 7.523438 -6.859375 7.703125 -6.484375 C 7.890625 -6.109375 7.984375 -5.664062 7.984375 -5.15625 L 7.984375 -1.53125 C 7.984375 -1.25 7.90625 -1.015625 7.75 -0.828125 C 7.59375 -0.648438 7.40625 -0.5 7.1875 -0.375 C 6.488281 0.0507812 5.5 0.265625 4.21875 0.265625 C 3.644531 0.265625 3.128906 0.207031 2.671875 0.09375 C 2.210938 -0.0078125 1.816406 -0.171875 1.484375 -0.390625 C 1.148438 -0.609375 0.894531 -0.882812 0.71875 -1.21875 C 0.539062 -1.550781 0.453125 -1.941406 0.453125 -2.390625 C 0.453125 -3.128906 0.671875 -3.695312 1.109375 -4.09375 C 1.554688 -4.5 2.25 -4.753906 3.1875 -4.859375 L 5.3125 -5.078125 L 5.3125 -5.1875 C 5.3125 -5.507812 5.171875 -5.738281 4.890625 -5.875 C 4.617188 -6.007812 4.222656 -6.078125 3.703125 -6.078125 C 3.285156 -6.078125 2.882812 -6.03125 2.5 -5.9375 C 2.113281 -5.851562 1.757812 -5.742188 1.4375 -5.609375 C 1.300781 -5.710938 1.179688 -5.863281 1.078125 -6.0625 C 0.984375 -6.257812 0.9375 -6.46875 0.9375 -6.6875 C 0.9375 -6.96875 1.003906 -7.191406 1.140625 -7.359375 C 1.273438 -7.523438 1.484375 -7.671875 1.765625 -7.796875 C 2.078125 -7.910156 2.445312 -7.992188 2.875 -8.046875 C 3.300781 -8.109375 3.707031 -8.140625 4.09375 -8.140625 Z M 4.09375 -8.140625 "/></g></g></g><g fill="#5271ff" fill-opacity="1"><g transform="translate(179.547363, 48.123197)"><g><path d="M 0.5 -3.9375 C 0.5 -4.65625 0.609375 -5.273438 0.828125 -5.796875 C 1.046875 -6.328125 1.347656 -6.765625 1.734375 -7.109375 C 2.117188 -7.453125 2.566406 -7.707031 3.078125 -7.875 C 3.585938 -8.050781 4.140625 -8.140625 4.734375 -8.140625 C 4.953125 -8.140625 5.164062 -8.117188 5.375 -8.078125 C 5.582031 -8.035156 5.75 -7.988281 5.875 -7.9375 L 5.875 -10.5625 C 5.988281 -10.601562 6.160156 -10.640625 6.390625 -10.671875 C 6.628906 -10.710938 6.875 -10.734375 7.125 -10.734375 C 7.363281 -10.734375 7.578125 -10.71875 7.765625 -10.6875 C 7.953125 -10.65625 8.109375 -10.585938 8.234375 -10.484375 C 8.367188 -10.390625 8.46875 -10.257812 8.53125 -10.09375 C 8.601562 -9.925781 8.640625 -9.707031 8.640625 -9.4375 L 8.640625 -1.734375 C 8.640625 -1.222656 8.398438 -0.816406 7.921875 -0.515625 C 7.609375 -0.316406 7.203125 -0.140625 6.703125 0.015625 C 6.203125 0.179688 5.628906 0.265625 4.984375 0.265625 C 4.273438 0.265625 3.640625 0.164062 3.078125 -0.03125 C 2.523438 -0.226562 2.054688 -0.507812 1.671875 -0.875 C 1.296875 -1.238281 1.003906 -1.675781 0.796875 -2.1875 C 0.597656 -2.707031 0.5 -3.289062 0.5 -3.9375 Z M 5.109375 -5.96875 C 4.523438 -5.96875 4.078125 -5.800781 3.765625 -5.46875 C 3.453125 -5.132812 3.296875 -4.625 3.296875 -3.9375 C 3.296875 -3.269531 3.441406 -2.765625 3.734375 -2.421875 C 4.023438 -2.085938 4.445312 -1.921875 5 -1.921875 C 5.195312 -1.921875 5.375 -1.945312 5.53125 -2 C 5.6875 -2.0625 5.804688 -2.128906 5.890625 -2.203125 L 5.890625 -5.78125 C 5.671875 -5.90625 5.410156 -5.96875 5.109375 -5.96875 Z M 5.109375 -5.96875 "/></g></g></g><g fill="#5271ff" fill-opacity="1"><g transform="translate(189.051566, 48.123197)"><g><path d="M 5.015625 0.265625 C 4.378906 0.265625 3.785156 0.175781 3.234375 0 C 2.691406 -0.1875 2.21875 -0.457031 1.8125 -0.8125 C 1.40625 -1.164062 1.082031 -1.613281 0.84375 -2.15625 C 0.613281 -2.695312 0.5 -3.332031 0.5 -4.0625 C 0.5 -4.769531 0.613281 -5.378906 0.84375 -5.890625 C 1.082031 -6.410156 1.390625 -6.832031 1.765625 -7.15625 C 2.148438 -7.488281 2.582031 -7.734375 3.0625 -7.890625 C 3.550781 -8.054688 4.050781 -8.140625 4.5625 -8.140625 C 5.132812 -8.140625 5.65625 -8.050781 6.125 -7.875 C 6.59375 -7.695312 7 -7.457031 7.34375 -7.15625 C 7.6875 -6.851562 7.953125 -6.488281 8.140625 -6.0625 C 8.328125 -5.644531 8.421875 -5.1875 8.421875 -4.6875 C 8.421875 -4.320312 8.316406 -4.039062 8.109375 -3.84375 C 7.910156 -3.65625 7.625 -3.53125 7.25 -3.46875 L 3.25 -2.875 C 3.363281 -2.519531 3.601562 -2.25 3.96875 -2.0625 C 4.34375 -1.882812 4.769531 -1.796875 5.25 -1.796875 C 5.6875 -1.796875 6.101562 -1.851562 6.5 -1.96875 C 6.894531 -2.082031 7.21875 -2.21875 7.46875 -2.375 C 7.644531 -2.257812 7.789062 -2.101562 7.90625 -1.90625 C 8.019531 -1.71875 8.078125 -1.515625 8.078125 -1.296875 C 8.078125 -0.804688 7.851562 -0.445312 7.40625 -0.21875 C 7.0625 -0.03125 6.671875 0.09375 6.234375 0.15625 C 5.796875 0.226562 5.390625 0.265625 5.015625 0.265625 Z M 4.5625 -6.125 C 4.300781 -6.125 4.078125 -6.078125 3.890625 -5.984375 C 3.703125 -5.898438 3.546875 -5.789062 3.421875 -5.65625 C 3.304688 -5.519531 3.21875 -5.367188 3.15625 -5.203125 C 3.09375 -5.035156 3.054688 -4.863281 3.046875 -4.6875 L 5.828125 -5.140625 C 5.796875 -5.359375 5.675781 -5.578125 5.46875 -5.796875 C 5.257812 -6.015625 4.957031 -6.125 4.5625 -6.125 Z M 4.5625 -6.125 "/></g></g></g><g fill="#5271ff" fill-opacity="1"><g transform="translate(197.955676, 48.123197)"><g><path d="M 4.625 -8.140625 C 5.070312 -8.140625 5.507812 -8.078125 5.9375 -7.953125 C 6.363281 -7.828125 6.734375 -7.640625 7.046875 -7.390625 C 7.367188 -7.609375 7.734375 -7.785156 8.140625 -7.921875 C 8.546875 -8.066406 9.035156 -8.140625 9.609375 -8.140625 C 10.023438 -8.140625 10.425781 -8.082031 10.8125 -7.96875 C 11.207031 -7.863281 11.5625 -7.691406 11.875 -7.453125 C 12.1875 -7.222656 12.429688 -6.914062 12.609375 -6.53125 C 12.796875 -6.144531 12.890625 -5.675781 12.890625 -5.125 L 12.890625 -0.015625 C 12.785156 0.015625 12.613281 0.046875 12.375 0.078125 C 12.144531 0.109375 11.90625 0.125 11.65625 0.125 C 11.414062 0.125 11.203125 0.109375 11.015625 0.078125 C 10.828125 0.046875 10.664062 -0.015625 10.53125 -0.109375 C 10.40625 -0.210938 10.304688 -0.347656 10.234375 -0.515625 C 10.160156 -0.679688 10.125 -0.898438 10.125 -1.171875 L 10.125 -5.046875 C 10.125 -5.367188 10.03125 -5.601562 9.84375 -5.75 C 9.664062 -5.894531 9.421875 -5.96875 9.109375 -5.96875 C 8.953125 -5.96875 8.785156 -5.929688 8.609375 -5.859375 C 8.441406 -5.796875 8.316406 -5.726562 8.234375 -5.65625 C 8.242188 -5.601562 8.25 -5.554688 8.25 -5.515625 C 8.25 -5.484375 8.25 -5.453125 8.25 -5.421875 L 8.25 -0.015625 C 8.125 0.015625 7.945312 0.046875 7.71875 0.078125 C 7.488281 0.109375 7.253906 0.125 7.015625 0.125 C 6.773438 0.125 6.5625 0.109375 6.375 0.078125 C 6.1875 0.046875 6.023438 -0.015625 5.890625 -0.109375 C 5.765625 -0.210938 5.664062 -0.347656 5.59375 -0.515625 C 5.519531 -0.679688 5.484375 -0.898438 5.484375 -1.171875 L 5.484375 -5.046875 C 5.484375 -5.367188 5.382812 -5.601562 5.1875 -5.75 C 4.988281 -5.894531 4.75 -5.96875 4.46875 -5.96875 C 4.269531 -5.96875 4.097656 -5.9375 3.953125 -5.875 C 3.816406 -5.820312 3.703125 -5.769531 3.609375 -5.71875 L 3.609375 -0.015625 C 3.492188 0.015625 3.320312 0.046875 3.09375 0.078125 C 2.863281 0.109375 2.625 0.125 2.375 0.125 C 2.132812 0.125 1.914062 0.109375 1.71875 0.078125 C 1.53125 0.046875 1.375 -0.015625 1.25 -0.109375 C 1.125 -0.210938 1.023438 -0.347656 0.953125 -0.515625 C 0.878906 -0.679688 0.84375 -0.898438 0.84375 -1.171875 L 0.84375 -6.078125 C 0.84375 -6.367188 0.90625 -6.597656 1.03125 -6.765625 C 1.15625 -6.941406 1.328125 -7.101562 1.546875 -7.25 C 1.910156 -7.507812 2.363281 -7.722656 2.90625 -7.890625 C 3.457031 -8.054688 4.03125 -8.140625 4.625 -8.140625 Z M 4.625 -8.140625 "/></g></g></g><g fill="#5271ff" fill-opacity="1"><g transform="translate(211.676764, 48.123197)"><g><path d="M 2.078125 -2.015625 C 1.960938 -2.285156 1.835938 -2.585938 1.703125 -2.921875 C 1.566406 -3.253906 1.425781 -3.632812 1.28125 -4.0625 C 1.132812 -4.5 0.976562 -4.992188 0.8125 -5.546875 C 0.65625 -6.109375 0.492188 -6.753906 0.328125 -7.484375 C 0.472656 -7.640625 0.671875 -7.769531 0.921875 -7.875 C 1.179688 -7.988281 1.460938 -8.046875 1.765625 -8.046875 C 2.148438 -8.046875 2.460938 -7.96875 2.703125 -7.8125 C 2.953125 -7.65625 3.140625 -7.363281 3.265625 -6.9375 L 4.546875 -2.46875 L 4.609375 -2.46875 C 4.742188 -2.832031 4.867188 -3.226562 4.984375 -3.65625 C 5.109375 -4.09375 5.226562 -4.539062 5.34375 -5 C 5.46875 -5.46875 5.582031 -5.929688 5.6875 -6.390625 C 5.789062 -6.847656 5.878906 -7.300781 5.953125 -7.75 C 6.347656 -7.945312 6.773438 -8.046875 7.234375 -8.046875 C 7.617188 -8.046875 7.9375 -7.960938 8.1875 -7.796875 C 8.4375 -7.640625 8.5625 -7.363281 8.5625 -6.96875 C 8.5625 -6.675781 8.519531 -6.335938 8.4375 -5.953125 C 8.363281 -5.566406 8.265625 -5.15625 8.140625 -4.71875 C 8.015625 -4.289062 7.867188 -3.84375 7.703125 -3.375 C 7.535156 -2.914062 7.359375 -2.460938 7.171875 -2.015625 C 6.992188 -1.578125 6.804688 -1.160156 6.609375 -0.765625 C 6.410156 -0.367188 6.222656 -0.015625 6.046875 0.296875 C 5.734375 0.828125 5.445312 1.257812 5.1875 1.59375 C 4.9375 1.925781 4.691406 2.1875 4.453125 2.375 C 4.210938 2.5625 3.972656 2.691406 3.734375 2.765625 C 3.492188 2.835938 3.242188 2.875 2.984375 2.875 C 2.535156 2.875 2.171875 2.738281 1.890625 2.46875 C 1.609375 2.195312 1.4375 1.84375 1.375 1.40625 C 1.726562 1.132812 2.078125 0.832031 2.421875 0.5 C 2.765625 0.175781 3.078125 -0.15625 3.359375 -0.5 C 3.171875 -0.550781 2.972656 -0.675781 2.765625 -0.875 C 2.554688 -1.082031 2.328125 -1.460938 2.078125 -2.015625 Z M 2.078125 -2.015625 "/></g></g></g></svg>