<svg xmlns="http://www.w3.org/2000/svg" xmlns:xlink="http://www.w3.org/1999/xlink" width="500" zoomAndPan="magnify" viewBox="0 0 375 60" height="80" preserveAspectRatio="xMidYMid meet" version="1.0"><defs><g/></defs><g fill="#000000" fill-opacity="1"><g transform="translate(174.666925, 27.448836)"><g><path d="M 0.015625 -0.296875 C 0.015625 -0.304688 0.0195312 -0.316406 0.03125 -0.328125 C 0.0390625 -0.335938 0.0507812 -0.34375 0.0625 -0.34375 C 0.0820312 -0.34375 0.09375 -0.335938 0.09375 -0.328125 C 0.101562 -0.316406 0.109375 -0.304688 0.109375 -0.296875 C 0.109375 -0.285156 0.101562 -0.273438 0.09375 -0.265625 C 0.09375 -0.253906 0.0820312 -0.25 0.0625 -0.25 C 0.0507812 -0.25 0.0390625 -0.253906 0.03125 -0.265625 C 0.0195312 -0.273438 0.015625 -0.285156 0.015625 -0.296875 Z M 0.109375 0 C 0.109375 0 0.101562 0 0.09375 0 C 0.0820312 0 0.078125 0 0.078125 0 C 0.0664062 0 0.0546875 0 0.046875 0 C 0.046875 0 0.0390625 0 0.03125 0 C 0.03125 -0.0078125 0.03125 -0.0195312 0.03125 -0.03125 L 0.03125 -0.234375 C 0.0390625 -0.234375 0.0507812 -0.234375 0.0625 -0.234375 C 0.0703125 -0.234375 0.078125 -0.234375 0.078125 -0.234375 C 0.0859375 -0.234375 0.09375 -0.226562 0.09375 -0.21875 C 0.101562 -0.21875 0.109375 -0.210938 0.109375 -0.203125 Z M 0.109375 0 "/></g></g></g><g fill="#000000" fill-opacity="1"><g transform="translate(174.802819, 27.448836)"><g><path d="M 0.140625 -0.234375 C 0.148438 -0.234375 0.160156 -0.234375 0.171875 -0.234375 C 0.191406 -0.234375 0.203125 -0.226562 0.203125 -0.21875 C 0.210938 -0.21875 0.222656 -0.21875 0.234375 -0.21875 C 0.242188 -0.226562 0.257812 -0.234375 0.28125 -0.234375 C 0.289062 -0.234375 0.300781 -0.234375 0.3125 -0.234375 C 0.332031 -0.234375 0.347656 -0.226562 0.359375 -0.21875 C 0.367188 -0.207031 0.375 -0.195312 0.375 -0.1875 C 0.382812 -0.175781 0.390625 -0.164062 0.390625 -0.15625 L 0.390625 0 C 0.378906 0 0.367188 0 0.359375 0 C 0.359375 0 0.351562 0 0.34375 0 C 0.34375 0 0.335938 0 0.328125 0 C 0.316406 0 0.3125 0 0.3125 0 C 0.3125 0 0.304688 0 0.296875 0 C 0.296875 -0.0078125 0.296875 -0.0195312 0.296875 -0.03125 L 0.296875 -0.15625 C 0.296875 -0.164062 0.289062 -0.171875 0.28125 -0.171875 C 0.28125 -0.179688 0.273438 -0.1875 0.265625 -0.1875 C 0.265625 -0.1875 0.257812 -0.179688 0.25 -0.171875 C 0.25 -0.171875 0.242188 -0.171875 0.234375 -0.171875 C 0.242188 -0.171875 0.25 -0.171875 0.25 -0.171875 C 0.25 -0.171875 0.25 -0.164062 0.25 -0.15625 L 0.25 0 C 0.238281 0 0.226562 0 0.21875 0 C 0.21875 0 0.210938 0 0.203125 0 C 0.203125 0 0.195312 0 0.1875 0 C 0.1875 0 0.179688 0 0.171875 0 C 0.171875 -0.0078125 0.171875 -0.0195312 0.171875 -0.03125 L 0.171875 -0.15625 C 0.171875 -0.164062 0.164062 -0.171875 0.15625 -0.171875 C 0.144531 -0.179688 0.140625 -0.1875 0.140625 -0.1875 C 0.128906 -0.1875 0.117188 -0.179688 0.109375 -0.171875 L 0.109375 0 C 0.109375 0 0.101562 0 0.09375 0 C 0.0820312 0 0.0703125 0 0.0625 0 C 0.0625 0 0.0546875 0 0.046875 0 C 0.046875 0 0.0390625 0 0.03125 0 C 0.03125 0 0.0234375 0 0.015625 0 C 0.015625 -0.0078125 0.015625 -0.0195312 0.015625 -0.03125 L 0.015625 -0.1875 C 0.015625 -0.195312 0.015625 -0.203125 0.015625 -0.203125 C 0.0234375 -0.203125 0.0351562 -0.207031 0.046875 -0.21875 C 0.0546875 -0.21875 0.0664062 -0.21875 0.078125 -0.21875 C 0.0976562 -0.226562 0.117188 -0.234375 0.140625 -0.234375 Z M 0.140625 -0.234375 "/></g></g></g><g fill="#000000" fill-opacity="1"><g transform="translate(175.210501, 27.448836)"><g><path d="M 0.140625 -0.234375 C 0.148438 -0.234375 0.160156 -0.226562 0.171875 -0.21875 C 0.191406 -0.21875 0.207031 -0.210938 0.21875 -0.203125 C 0.238281 -0.203125 0.25 -0.191406 0.25 -0.171875 C 0.257812 -0.160156 0.265625 -0.140625 0.265625 -0.109375 C 0.265625 -0.0859375 0.257812 -0.0664062 0.25 -0.046875 C 0.25 -0.0351562 0.242188 -0.0234375 0.234375 -0.015625 C 0.222656 -0.00390625 0.207031 0 0.1875 0 C 0.175781 0 0.160156 0 0.140625 0 C 0.128906 0 0.117188 0 0.109375 0 L 0.109375 0.078125 C 0.109375 0.078125 0.101562 0.078125 0.09375 0.078125 C 0.0820312 0.078125 0.0703125 0.078125 0.0625 0.078125 C 0.0625 0.078125 0.0546875 0.078125 0.046875 0.078125 C 0.046875 0.078125 0.0390625 0.078125 0.03125 0.078125 C 0.03125 0.078125 0.0234375 0.0703125 0.015625 0.0625 C 0.015625 0.0625 0.015625 0.0546875 0.015625 0.046875 L 0.015625 -0.1875 C 0.015625 -0.195312 0.015625 -0.203125 0.015625 -0.203125 C 0.0234375 -0.203125 0.0351562 -0.207031 0.046875 -0.21875 C 0.0546875 -0.226562 0.0664062 -0.234375 0.078125 -0.234375 C 0.0976562 -0.234375 0.117188 -0.234375 0.140625 -0.234375 Z M 0.140625 -0.0625 C 0.171875 -0.0625 0.1875 -0.078125 0.1875 -0.109375 C 0.1875 -0.140625 0.179688 -0.160156 0.171875 -0.171875 C 0.160156 -0.179688 0.148438 -0.1875 0.140625 -0.1875 C 0.128906 -0.1875 0.117188 -0.179688 0.109375 -0.171875 L 0.109375 -0.0625 C 0.117188 -0.0625 0.128906 -0.0625 0.140625 -0.0625 Z M 0.140625 -0.0625 "/></g></g></g><g fill="#000000" fill-opacity="1"><g transform="translate(175.492409, 27.448836)"><g><path d="M 0.125 -0.046875 C 0.132812 -0.046875 0.140625 -0.046875 0.140625 -0.046875 C 0.148438 -0.046875 0.15625 -0.0507812 0.15625 -0.0625 L 0.15625 -0.09375 L 0.125 -0.09375 C 0.113281 -0.09375 0.101562 -0.0859375 0.09375 -0.078125 C 0.09375 -0.0664062 0.09375 -0.0546875 0.09375 -0.046875 C 0.101562 -0.046875 0.113281 -0.046875 0.125 -0.046875 Z M 0.125 -0.234375 C 0.144531 -0.234375 0.160156 -0.234375 0.171875 -0.234375 C 0.179688 -0.234375 0.191406 -0.226562 0.203125 -0.21875 C 0.210938 -0.207031 0.21875 -0.195312 0.21875 -0.1875 C 0.226562 -0.175781 0.234375 -0.164062 0.234375 -0.15625 L 0.234375 -0.046875 C 0.234375 -0.0351562 0.226562 -0.0234375 0.21875 -0.015625 C 0.21875 -0.015625 0.210938 -0.0078125 0.203125 0 C 0.191406 0 0.164062 0 0.125 0 C 0.101562 0 0.0859375 0 0.078125 0 C 0.0664062 0 0.0546875 0 0.046875 0 C 0.0351562 -0.0078125 0.0234375 -0.0195312 0.015625 -0.03125 C 0.015625 -0.0390625 0.015625 -0.0507812 0.015625 -0.0625 C 0.015625 -0.09375 0.0195312 -0.113281 0.03125 -0.125 C 0.0390625 -0.132812 0.0625 -0.140625 0.09375 -0.140625 L 0.15625 -0.15625 C 0.15625 -0.164062 0.148438 -0.171875 0.140625 -0.171875 C 0.140625 -0.179688 0.128906 -0.1875 0.109375 -0.1875 C 0.0976562 -0.1875 0.0859375 -0.179688 0.078125 -0.171875 C 0.0664062 -0.171875 0.0546875 -0.171875 0.046875 -0.171875 C 0.0351562 -0.171875 0.03125 -0.171875 0.03125 -0.171875 C 0.03125 -0.179688 0.03125 -0.191406 0.03125 -0.203125 C 0.03125 -0.210938 0.0351562 -0.222656 0.046875 -0.234375 C 0.0546875 -0.234375 0.0664062 -0.234375 0.078125 -0.234375 C 0.0976562 -0.234375 0.113281 -0.234375 0.125 -0.234375 Z M 0.125 -0.234375 "/></g></g></g><g fill="#000000" fill-opacity="1"><g transform="translate(175.754559, 27.448836)"><g><path d="M 0.15625 -0.171875 C 0.144531 -0.171875 0.132812 -0.171875 0.125 -0.171875 C 0.125 -0.171875 0.117188 -0.164062 0.109375 -0.15625 C 0.109375 -0.15625 0.101562 -0.148438 0.09375 -0.140625 C 0.09375 -0.140625 0.09375 -0.132812 0.09375 -0.125 C 0.09375 -0.101562 0.0976562 -0.0859375 0.109375 -0.078125 C 0.128906 -0.0664062 0.144531 -0.0625 0.15625 -0.0625 C 0.164062 -0.0625 0.175781 -0.0625 0.1875 -0.0625 C 0.195312 -0.0625 0.203125 -0.0625 0.203125 -0.0625 C 0.203125 -0.0625 0.203125 -0.0546875 0.203125 -0.046875 C 0.210938 -0.046875 0.21875 -0.0390625 0.21875 -0.03125 C 0.21875 -0.0195312 0.210938 -0.0078125 0.203125 0 C 0.191406 0 0.175781 0 0.15625 0 C 0.132812 0 0.113281 0 0.09375 0 C 0.0703125 0 0.0546875 -0.00390625 0.046875 -0.015625 C 0.0351562 -0.0351562 0.0234375 -0.0507812 0.015625 -0.0625 C 0.015625 -0.0820312 0.015625 -0.0976562 0.015625 -0.109375 C 0.015625 -0.140625 0.015625 -0.160156 0.015625 -0.171875 C 0.0234375 -0.191406 0.0351562 -0.203125 0.046875 -0.203125 C 0.0546875 -0.210938 0.0703125 -0.21875 0.09375 -0.21875 C 0.113281 -0.226562 0.128906 -0.234375 0.140625 -0.234375 C 0.171875 -0.234375 0.191406 -0.226562 0.203125 -0.21875 C 0.210938 -0.21875 0.21875 -0.210938 0.21875 -0.203125 C 0.21875 -0.191406 0.210938 -0.179688 0.203125 -0.171875 C 0.203125 -0.171875 0.195312 -0.171875 0.1875 -0.171875 C 0.175781 -0.171875 0.164062 -0.171875 0.15625 -0.171875 Z M 0.15625 -0.171875 "/></g></g></g><g fill="#000000" fill-opacity="1"><g transform="translate(175.990205, 27.448836)"><g><path d="M 0.109375 -0.078125 C 0.109375 -0.0664062 0.109375 -0.0625 0.109375 -0.0625 C 0.117188 -0.0625 0.128906 -0.0625 0.140625 -0.0625 C 0.148438 -0.0625 0.160156 -0.0625 0.171875 -0.0625 C 0.171875 -0.0507812 0.171875 -0.046875 0.171875 -0.046875 C 0.171875 -0.046875 0.171875 -0.0390625 0.171875 -0.03125 C 0.171875 -0.0195312 0.164062 -0.0078125 0.15625 0 C 0.15625 0 0.140625 0 0.109375 0 C 0.0859375 0 0.0664062 -0.00390625 0.046875 -0.015625 C 0.0234375 -0.0234375 0.015625 -0.046875 0.015625 -0.078125 L 0.015625 -0.28125 C 0.0234375 -0.28125 0.03125 -0.28125 0.03125 -0.28125 C 0.0390625 -0.28125 0.0507812 -0.28125 0.0625 -0.28125 C 0.0703125 -0.28125 0.0820312 -0.273438 0.09375 -0.265625 C 0.101562 -0.265625 0.109375 -0.257812 0.109375 -0.25 L 0.109375 -0.21875 L 0.171875 -0.21875 C 0.171875 -0.207031 0.171875 -0.203125 0.171875 -0.203125 C 0.179688 -0.203125 0.1875 -0.195312 0.1875 -0.1875 C 0.1875 -0.175781 0.179688 -0.164062 0.171875 -0.15625 C 0.171875 -0.15625 0.164062 -0.15625 0.15625 -0.15625 L 0.109375 -0.15625 Z M 0.109375 -0.078125 "/></g></g></g><g fill="#000000" fill-opacity="1"><g transform="translate(176.182962, 27.448836)"><g><path d="M 0.15625 0 C 0.132812 0 0.113281 0 0.09375 0 C 0.0820312 0 0.0664062 -0.00390625 0.046875 -0.015625 C 0.0351562 -0.0234375 0.0234375 -0.0390625 0.015625 -0.0625 C 0.015625 -0.0820312 0.015625 -0.101562 0.015625 -0.125 C 0.015625 -0.144531 0.015625 -0.160156 0.015625 -0.171875 C 0.0234375 -0.191406 0.0351562 -0.203125 0.046875 -0.203125 C 0.0546875 -0.210938 0.0664062 -0.21875 0.078125 -0.21875 C 0.0976562 -0.226562 0.117188 -0.234375 0.140625 -0.234375 C 0.148438 -0.234375 0.160156 -0.226562 0.171875 -0.21875 C 0.191406 -0.21875 0.207031 -0.210938 0.21875 -0.203125 C 0.226562 -0.203125 0.234375 -0.191406 0.234375 -0.171875 C 0.242188 -0.160156 0.25 -0.148438 0.25 -0.140625 C 0.25 -0.128906 0.242188 -0.117188 0.234375 -0.109375 C 0.234375 -0.109375 0.226562 -0.109375 0.21875 -0.109375 L 0.09375 -0.078125 C 0.101562 -0.0664062 0.113281 -0.0546875 0.125 -0.046875 C 0.132812 -0.046875 0.144531 -0.046875 0.15625 -0.046875 C 0.164062 -0.046875 0.175781 -0.046875 0.1875 -0.046875 C 0.195312 -0.0546875 0.207031 -0.0625 0.21875 -0.0625 C 0.21875 -0.0625 0.21875 -0.0546875 0.21875 -0.046875 C 0.226562 -0.046875 0.234375 -0.0390625 0.234375 -0.03125 C 0.234375 -0.0195312 0.226562 -0.0078125 0.21875 0 C 0.207031 0 0.195312 0 0.1875 0 C 0.175781 0 0.164062 0 0.15625 0 Z M 0.140625 -0.1875 C 0.128906 -0.1875 0.117188 -0.179688 0.109375 -0.171875 C 0.109375 -0.171875 0.101562 -0.171875 0.09375 -0.171875 C 0.09375 -0.171875 0.09375 -0.164062 0.09375 -0.15625 C 0.09375 -0.15625 0.09375 -0.148438 0.09375 -0.140625 L 0.171875 -0.15625 C 0.171875 -0.164062 0.164062 -0.171875 0.15625 -0.171875 C 0.15625 -0.179688 0.148438 -0.1875 0.140625 -0.1875 Z M 0.140625 -0.1875 "/></g></g></g><g fill="#000000" fill-opacity="1"><g transform="translate(176.447522, 27.448836)"><g><path d="M 0.109375 0 C 0.109375 0 0.101562 0 0.09375 0 C 0.0820312 0 0.0703125 0 0.0625 0 C 0.0625 0 0.0546875 0 0.046875 0 C 0.046875 0 0.0390625 0 0.03125 0 C 0.03125 0 0.0234375 0 0.015625 0 C 0.015625 -0.0078125 0.015625 -0.0195312 0.015625 -0.03125 L 0.015625 -0.1875 C 0.0234375 -0.195312 0.03125 -0.203125 0.03125 -0.203125 C 0.0390625 -0.210938 0.046875 -0.21875 0.046875 -0.21875 C 0.0546875 -0.21875 0.0664062 -0.21875 0.078125 -0.21875 C 0.0859375 -0.226562 0.0976562 -0.234375 0.109375 -0.234375 C 0.117188 -0.234375 0.128906 -0.234375 0.140625 -0.234375 C 0.160156 -0.234375 0.171875 -0.226562 0.171875 -0.21875 C 0.179688 -0.21875 0.1875 -0.210938 0.1875 -0.203125 C 0.1875 -0.203125 0.1875 -0.195312 0.1875 -0.1875 C 0.175781 -0.1875 0.164062 -0.179688 0.15625 -0.171875 C 0.15625 -0.171875 0.148438 -0.171875 0.140625 -0.171875 C 0.128906 -0.171875 0.117188 -0.171875 0.109375 -0.171875 Z M 0.109375 0 "/></g></g></g><g fill="#000000" fill-opacity="1"><g transform="translate(176.64558, 27.448836)"><g><path d="M 0.125 -0.046875 C 0.132812 -0.046875 0.140625 -0.046875 0.140625 -0.046875 C 0.148438 -0.046875 0.15625 -0.0507812 0.15625 -0.0625 L 0.15625 -0.09375 L 0.125 -0.09375 C 0.113281 -0.09375 0.101562 -0.0859375 0.09375 -0.078125 C 0.09375 -0.0664062 0.09375 -0.0546875 0.09375 -0.046875 C 0.101562 -0.046875 0.113281 -0.046875 0.125 -0.046875 Z M 0.125 -0.234375 C 0.144531 -0.234375 0.160156 -0.234375 0.171875 -0.234375 C 0.179688 -0.234375 0.191406 -0.226562 0.203125 -0.21875 C 0.210938 -0.207031 0.21875 -0.195312 0.21875 -0.1875 C 0.226562 -0.175781 0.234375 -0.164062 0.234375 -0.15625 L 0.234375 -0.046875 C 0.234375 -0.0351562 0.226562 -0.0234375 0.21875 -0.015625 C 0.21875 -0.015625 0.210938 -0.0078125 0.203125 0 C 0.191406 0 0.164062 0 0.125 0 C 0.101562 0 0.0859375 0 0.078125 0 C 0.0664062 0 0.0546875 0 0.046875 0 C 0.0351562 -0.0078125 0.0234375 -0.0195312 0.015625 -0.03125 C 0.015625 -0.0390625 0.015625 -0.0507812 0.015625 -0.0625 C 0.015625 -0.09375 0.0195312 -0.113281 0.03125 -0.125 C 0.0390625 -0.132812 0.0625 -0.140625 0.09375 -0.140625 L 0.15625 -0.15625 C 0.15625 -0.164062 0.148438 -0.171875 0.140625 -0.171875 C 0.140625 -0.179688 0.128906 -0.1875 0.109375 -0.1875 C 0.0976562 -0.1875 0.0859375 -0.179688 0.078125 -0.171875 C 0.0664062 -0.171875 0.0546875 -0.171875 0.046875 -0.171875 C 0.0351562 -0.171875 0.03125 -0.171875 0.03125 -0.171875 C 0.03125 -0.179688 0.03125 -0.191406 0.03125 -0.203125 C 0.03125 -0.210938 0.0351562 -0.222656 0.046875 -0.234375 C 0.0546875 -0.234375 0.0664062 -0.234375 0.078125 -0.234375 C 0.0976562 -0.234375 0.113281 -0.234375 0.125 -0.234375 Z M 0.125 -0.234375 "/></g></g></g><g fill="#000000" fill-opacity="1"><g transform="translate(176.90773, 27.448836)"><g><path d="M 0 -0.03125 C 0 -0.0507812 0.00390625 -0.0625 0.015625 -0.0625 C 0.0234375 -0.0703125 0.0390625 -0.078125 0.0625 -0.078125 C 0.0703125 -0.078125 0.0820312 -0.0703125 0.09375 -0.0625 C 0.101562 -0.0625 0.109375 -0.0507812 0.109375 -0.03125 C 0.109375 -0.0195312 0.101562 -0.0078125 0.09375 0 C 0.0820312 0 0.0703125 0 0.0625 0 C 0.0390625 0 0.0234375 0 0.015625 0 C 0.00390625 -0.0078125 0 -0.0195312 0 -0.03125 Z M 0 -0.03125 "/></g></g></g><g fill="#212f3d" fill-opacity="1"><g transform="translate(42.213819, 44.25)"><g><path d="M 2.734375 -35.359375 C 2.734375 -36.796875 3.21875 -38.007812 4.1875 -39 C 5.15625 -39.988281 6.4375 -40.484375 8.03125 -40.484375 C 9.625 -40.484375 10.90625 -39.988281 11.875 -39 C 12.84375 -38.007812 13.328125 -36.796875 13.328125 -35.359375 C 13.328125 -33.910156 12.84375 -32.691406 11.875 -31.703125 C 10.90625 -30.722656 9.625 -30.234375 8.03125 -30.234375 C 6.4375 -30.234375 5.15625 -30.722656 4.1875 -31.703125 C 3.21875 -32.691406 2.734375 -33.910156 2.734375 -35.359375 Z M 12.875 -0.0625 C 12.445312 0.0195312 11.828125 0.125 11.015625 0.25 C 10.203125 0.382812 9.378906 0.453125 8.546875 0.453125 C 7.703125 0.453125 6.945312 0.394531 6.28125 0.28125 C 5.625 0.164062 5.066406 -0.0546875 4.609375 -0.390625 C 4.148438 -0.734375 3.796875 -1.195312 3.546875 -1.78125 C 3.304688 -2.375 3.1875 -3.144531 3.1875 -4.09375 L 3.1875 -27.265625 C 3.601562 -27.347656 4.21875 -27.453125 5.03125 -27.578125 C 5.851562 -27.710938 6.679688 -27.78125 7.515625 -27.78125 C 8.347656 -27.78125 9.097656 -27.722656 9.765625 -27.609375 C 10.429688 -27.492188 10.988281 -27.265625 11.4375 -26.921875 C 11.894531 -26.585938 12.25 -26.125 12.5 -25.53125 C 12.75 -24.945312 12.875 -24.179688 12.875 -23.234375 Z M 12.875 -0.0625 "/></g></g></g><g fill="#212f3d" fill-opacity="1"><g transform="translate(58.268002, 44.25)"><g><path d="M 16.234375 -28.53125 C 17.785156 -28.53125 19.3125 -28.3125 20.8125 -27.875 C 22.3125 -27.4375 23.609375 -26.78125 24.703125 -25.90625 C 25.847656 -26.664062 27.128906 -27.289062 28.546875 -27.78125 C 29.972656 -28.28125 31.691406 -28.53125 33.703125 -28.53125 C 35.148438 -28.53125 36.566406 -28.335938 37.953125 -27.953125 C 39.335938 -27.578125 40.566406 -26.976562 41.640625 -26.15625 C 42.722656 -25.34375 43.585938 -24.257812 44.234375 -22.90625 C 44.878906 -21.5625 45.203125 -19.925781 45.203125 -18 L 45.203125 -0.0625 C 44.828125 0.0507812 44.226562 0.164062 43.40625 0.28125 C 42.59375 0.394531 41.75 0.453125 40.875 0.453125 C 40.039062 0.453125 39.289062 0.394531 38.625 0.28125 C 37.96875 0.164062 37.410156 -0.0546875 36.953125 -0.390625 C 36.492188 -0.734375 36.140625 -1.195312 35.890625 -1.78125 C 35.648438 -2.375 35.53125 -3.144531 35.53125 -4.09375 L 35.53125 -17.703125 C 35.53125 -18.847656 35.207031 -19.675781 34.5625 -20.1875 C 33.914062 -20.695312 33.039062 -20.953125 31.9375 -20.953125 C 31.40625 -20.953125 30.835938 -20.828125 30.234375 -20.578125 C 29.628906 -20.335938 29.175781 -20.082031 28.875 -19.8125 C 28.90625 -19.664062 28.921875 -19.523438 28.921875 -19.390625 C 28.921875 -19.253906 28.921875 -19.128906 28.921875 -19.015625 L 28.921875 -0.0625 C 28.503906 0.0507812 27.882812 0.164062 27.0625 0.28125 C 26.25 0.394531 25.425781 0.453125 24.59375 0.453125 C 23.757812 0.453125 23.007812 0.394531 22.34375 0.28125 C 21.675781 0.164062 21.113281 -0.0546875 20.65625 -0.390625 C 20.207031 -0.734375 19.859375 -1.195312 19.609375 -1.78125 C 19.367188 -2.375 19.25 -3.144531 19.25 -4.09375 L 19.25 -17.703125 C 19.25 -18.847656 18.894531 -19.675781 18.1875 -20.1875 C 17.488281 -20.695312 16.644531 -20.953125 15.65625 -20.953125 C 14.976562 -20.953125 14.390625 -20.847656 13.890625 -20.640625 C 13.398438 -20.429688 12.984375 -20.234375 12.640625 -20.046875 L 12.640625 -0.0625 C 12.265625 0.0507812 11.664062 0.164062 10.84375 0.28125 C 10.03125 0.394531 9.1875 0.453125 8.3125 0.453125 C 7.476562 0.453125 6.726562 0.394531 6.0625 0.28125 C 5.394531 0.164062 4.832031 -0.0546875 4.375 -0.390625 C 3.925781 -0.734375 3.578125 -1.195312 3.328125 -1.78125 C 3.078125 -2.375 2.953125 -3.144531 2.953125 -4.09375 L 2.953125 -21.296875 C 2.953125 -22.316406 3.171875 -23.128906 3.609375 -23.734375 C 4.046875 -24.347656 4.644531 -24.921875 5.40625 -25.453125 C 6.695312 -26.359375 8.300781 -27.097656 10.21875 -27.671875 C 12.132812 -28.242188 14.140625 -28.53125 16.234375 -28.53125 Z M 16.234375 -28.53125 "/></g></g></g><g fill="#212f3d" fill-opacity="1"><g transform="translate(106.43053, 44.25)"><g><path d="M 15.65625 -28.53125 C 17.9375 -28.53125 20.050781 -28.234375 22 -27.640625 C 23.957031 -27.054688 25.640625 -26.15625 27.046875 -24.9375 C 28.453125 -23.71875 29.550781 -22.1875 30.34375 -20.34375 C 31.144531 -18.507812 31.546875 -16.320312 31.546875 -13.78125 C 31.546875 -11.351562 31.203125 -9.226562 30.515625 -7.40625 C 29.835938 -5.582031 28.867188 -4.050781 27.609375 -2.8125 C 26.359375 -1.582031 24.847656 -0.660156 23.078125 -0.046875 C 21.316406 0.554688 19.351562 0.859375 17.1875 0.859375 C 15.5625 0.859375 14.046875 0.609375 12.640625 0.109375 L 12.640625 9.5625 C 12.265625 9.675781 11.65625 9.800781 10.8125 9.9375 C 9.976562 10.070312 9.125 10.140625 8.25 10.140625 C 7.414062 10.140625 6.664062 10.082031 6 9.96875 C 5.34375 9.851562 4.785156 9.625 4.328125 9.28125 C 3.867188 8.9375 3.523438 8.46875 3.296875 7.875 C 3.066406 7.289062 2.953125 6.523438 2.953125 5.578125 L 2.953125 -21.75 C 2.953125 -22.769531 3.171875 -23.601562 3.609375 -24.25 C 4.046875 -24.894531 4.644531 -25.484375 5.40625 -26.015625 C 6.582031 -26.773438 8.039062 -27.382812 9.78125 -27.84375 C 11.53125 -28.300781 13.488281 -28.53125 15.65625 -28.53125 Z M 15.765625 -6.78125 C 19.679688 -6.78125 21.640625 -9.113281 21.640625 -13.78125 C 21.640625 -16.207031 21.15625 -18.007812 20.1875 -19.1875 C 19.21875 -20.363281 17.820312 -20.953125 16 -20.953125 C 15.28125 -20.953125 14.632812 -20.863281 14.0625 -20.6875 C 13.488281 -20.519531 12.992188 -20.320312 12.578125 -20.09375 L 12.578125 -7.578125 C 13.035156 -7.347656 13.53125 -7.15625 14.0625 -7 C 14.59375 -6.851562 15.160156 -6.78125 15.765625 -6.78125 Z M 15.765625 -6.78125 "/></g></g></g><g fill="#212f3d" fill-opacity="1"><g transform="translate(139.734415, 44.25)"><g><path d="M 14.796875 -6.15625 C 15.441406 -6.15625 16.15625 -6.21875 16.9375 -6.34375 C 17.71875 -6.476562 18.296875 -6.660156 18.671875 -6.890625 L 18.671875 -11.4375 L 14.578125 -11.109375 C 13.515625 -11.023438 12.640625 -10.789062 11.953125 -10.40625 C 11.273438 -10.03125 10.9375 -9.46875 10.9375 -8.71875 C 10.9375 -7.957031 11.226562 -7.335938 11.8125 -6.859375 C 12.40625 -6.390625 13.398438 -6.15625 14.796875 -6.15625 Z M 14.34375 -28.53125 C 16.394531 -28.53125 18.265625 -28.316406 19.953125 -27.890625 C 21.640625 -27.472656 23.082031 -26.835938 24.28125 -25.984375 C 25.476562 -25.128906 26.398438 -24.046875 27.046875 -22.734375 C 27.691406 -21.429688 28.015625 -19.890625 28.015625 -18.109375 L 28.015625 -5.359375 C 28.015625 -4.367188 27.738281 -3.5625 27.1875 -2.9375 C 26.632812 -2.3125 25.976562 -1.769531 25.21875 -1.3125 C 22.75 0.164062 19.273438 0.90625 14.796875 0.90625 C 12.785156 0.90625 10.972656 0.710938 9.359375 0.328125 C 7.753906 -0.046875 6.367188 -0.609375 5.203125 -1.359375 C 4.046875 -2.117188 3.15625 -3.085938 2.53125 -4.265625 C 1.90625 -5.441406 1.59375 -6.8125 1.59375 -8.375 C 1.59375 -10.988281 2.367188 -13 3.921875 -14.40625 C 5.484375 -15.8125 7.894531 -16.6875 11.15625 -17.03125 L 18.625 -17.828125 L 18.625 -18.21875 C 18.625 -19.320312 18.140625 -20.109375 17.171875 -20.578125 C 16.203125 -21.054688 14.804688 -21.296875 12.984375 -21.296875 C 11.535156 -21.296875 10.128906 -21.144531 8.765625 -20.84375 C 7.398438 -20.539062 6.164062 -20.160156 5.0625 -19.703125 C 4.570312 -20.046875 4.15625 -20.566406 3.8125 -21.265625 C 3.46875 -21.960938 3.296875 -22.691406 3.296875 -23.453125 C 3.296875 -24.441406 3.53125 -25.226562 4 -25.8125 C 4.476562 -26.40625 5.210938 -26.910156 6.203125 -27.328125 C 7.304688 -27.742188 8.609375 -28.046875 10.109375 -28.234375 C 11.609375 -28.429688 13.019531 -28.53125 14.34375 -28.53125 Z M 14.34375 -28.53125 "/></g></g></g><g fill="#212f3d" fill-opacity="1"><g transform="translate(170.704186, 44.25)"><g><path d="M 18.5625 -20.890625 C 17.613281 -20.890625 16.710938 -20.738281 15.859375 -20.4375 C 15.003906 -20.132812 14.265625 -19.6875 13.640625 -19.09375 C 13.015625 -18.507812 12.507812 -17.78125 12.125 -16.90625 C 11.75 -16.03125 11.5625 -15.003906 11.5625 -13.828125 C 11.5625 -11.484375 12.234375 -9.722656 13.578125 -8.546875 C 14.921875 -7.367188 16.5625 -6.78125 18.5 -6.78125 C 19.644531 -6.78125 20.632812 -6.910156 21.46875 -7.171875 C 22.300781 -7.441406 23.039062 -7.726562 23.6875 -8.03125 C 24.445312 -7.5 25.015625 -6.921875 25.390625 -6.296875 C 25.773438 -5.671875 25.96875 -4.921875 25.96875 -4.046875 C 25.96875 -2.484375 25.222656 -1.273438 23.734375 -0.421875 C 22.253906 0.429688 20.207031 0.859375 17.59375 0.859375 C 15.195312 0.859375 13.03125 0.507812 11.09375 -0.1875 C 9.164062 -0.894531 7.507812 -1.882812 6.125 -3.15625 C 4.738281 -4.425781 3.664062 -5.953125 2.90625 -7.734375 C 2.144531 -9.523438 1.765625 -11.503906 1.765625 -13.671875 C 1.765625 -16.171875 2.171875 -18.359375 2.984375 -20.234375 C 3.804688 -22.117188 4.914062 -23.664062 6.3125 -24.875 C 7.71875 -26.09375 9.34375 -27.003906 11.1875 -27.609375 C 13.03125 -28.222656 14.976562 -28.53125 17.03125 -28.53125 C 19.757812 -28.53125 21.863281 -28.035156 23.34375 -27.046875 C 24.820312 -26.054688 25.5625 -24.785156 25.5625 -23.234375 C 25.5625 -22.515625 25.390625 -21.835938 25.046875 -21.203125 C 24.710938 -20.578125 24.316406 -20.039062 23.859375 -19.59375 C 23.210938 -19.894531 22.429688 -20.1875 21.515625 -20.46875 C 20.609375 -20.75 19.625 -20.890625 18.5625 -20.890625 Z M 18.5625 -20.890625 "/></g></g></g><g fill="#212f3d" fill-opacity="1"><g transform="translate(198.542808, 44.25)"><g><path d="M 12.640625 -9.515625 C 12.640625 -8.523438 12.953125 -7.820312 13.578125 -7.40625 C 14.203125 -6.988281 15.085938 -6.78125 16.234375 -6.78125 C 16.796875 -6.78125 17.378906 -6.828125 17.984375 -6.921875 C 18.597656 -7.015625 19.132812 -7.132812 19.59375 -7.28125 C 19.925781 -6.863281 20.21875 -6.398438 20.46875 -5.890625 C 20.71875 -5.378906 20.84375 -4.765625 20.84375 -4.046875 C 20.84375 -2.597656 20.300781 -1.414062 19.21875 -0.5 C 18.132812 0.40625 16.226562 0.859375 13.5 0.859375 C 10.15625 0.859375 7.582031 0.0976562 5.78125 -1.421875 C 3.976562 -2.941406 3.078125 -5.410156 3.078125 -8.828125 L 3.078125 -33.1875 C 3.492188 -33.300781 4.085938 -33.425781 4.859375 -33.5625 C 5.640625 -33.695312 6.46875 -33.765625 7.34375 -33.765625 C 9.007812 -33.765625 10.304688 -33.46875 11.234375 -32.875 C 12.171875 -32.289062 12.640625 -31.050781 12.640625 -29.15625 L 12.640625 -25.515625 L 20.09375 -25.515625 C 20.320312 -25.085938 20.539062 -24.5625 20.75 -23.9375 C 20.957031 -23.3125 21.0625 -22.617188 21.0625 -21.859375 C 21.0625 -20.535156 20.765625 -19.578125 20.171875 -18.984375 C 19.585938 -18.398438 18.804688 -18.109375 17.828125 -18.109375 L 12.640625 -18.109375 Z M 12.640625 -9.515625 "/></g></g></g><g fill="#3e3a4e" fill-opacity="1"><g transform="translate(221.299749, 44.25)"><g><path d="M 1.828125 -22.484375 C 1.828125 -24.078125 2.316406 -25.40625 3.296875 -26.46875 C 4.285156 -27.53125 5.632812 -28.0625 7.34375 -28.0625 C 9.050781 -28.0625 10.398438 -27.53125 11.390625 -26.46875 C 12.378906 -25.40625 12.875 -24.078125 12.875 -22.484375 C 12.875 -20.890625 12.378906 -19.5625 11.390625 -18.5 C 10.398438 -17.4375 9.050781 -16.90625 7.34375 -16.90625 C 5.632812 -16.90625 4.285156 -17.4375 3.296875 -18.5 C 2.316406 -19.5625 1.828125 -20.890625 1.828125 -22.484375 Z M 1.828125 -4.609375 C 1.828125 -6.203125 2.316406 -7.53125 3.296875 -8.59375 C 4.285156 -9.65625 5.632812 -10.1875 7.34375 -10.1875 C 9.050781 -10.1875 10.398438 -9.65625 11.390625 -8.59375 C 12.378906 -7.53125 12.875 -6.203125 12.875 -4.609375 C 12.875 -3.015625 12.378906 -1.6875 11.390625 -0.625 C 10.398438 0.4375 9.050781 0.96875 7.34375 0.96875 C 5.632812 0.96875 4.285156 0.4375 3.296875 -0.625 C 2.316406 -1.6875 1.828125 -3.015625 1.828125 -4.609375 Z M 1.828125 -4.609375 "/></g></g></g><g fill="#212f3d" fill-opacity="1"><g transform="translate(235.971623, 44.25)"><g><path d="M 17.59375 0.90625 C 15.351562 0.90625 13.273438 0.59375 11.359375 -0.03125 C 9.441406 -0.65625 7.769531 -1.59375 6.34375 -2.84375 C 4.925781 -4.09375 3.804688 -5.664062 2.984375 -7.5625 C 2.171875 -9.46875 1.765625 -11.691406 1.765625 -14.234375 C 1.765625 -16.742188 2.171875 -18.898438 2.984375 -20.703125 C 3.804688 -22.503906 4.878906 -23.984375 6.203125 -25.140625 C 7.535156 -26.296875 9.054688 -27.148438 10.765625 -27.703125 C 12.472656 -28.253906 14.21875 -28.53125 16 -28.53125 C 18.007812 -28.53125 19.835938 -28.222656 21.484375 -27.609375 C 23.140625 -27.003906 24.566406 -26.171875 25.765625 -25.109375 C 26.960938 -24.046875 27.890625 -22.773438 28.546875 -21.296875 C 29.210938 -19.816406 29.546875 -18.203125 29.546875 -16.453125 C 29.546875 -15.160156 29.1875 -14.171875 28.46875 -13.484375 C 27.75 -12.804688 26.742188 -12.375 25.453125 -12.1875 L 11.390625 -10.078125 C 11.804688 -8.828125 12.660156 -7.882812 13.953125 -7.25 C 15.242188 -6.625 16.722656 -6.3125 18.390625 -6.3125 C 19.941406 -6.3125 21.410156 -6.507812 22.796875 -6.90625 C 24.179688 -7.3125 25.3125 -7.78125 26.1875 -8.3125 C 26.800781 -7.9375 27.316406 -7.40625 27.734375 -6.71875 C 28.148438 -6.03125 28.359375 -5.3125 28.359375 -4.5625 C 28.359375 -2.851562 27.5625 -1.578125 25.96875 -0.734375 C 24.75 -0.0859375 23.378906 0.34375 21.859375 0.5625 C 20.347656 0.789062 18.925781 0.90625 17.59375 0.90625 Z M 16 -21.46875 C 15.09375 -21.46875 14.304688 -21.3125 13.640625 -21 C 12.972656 -20.695312 12.429688 -20.304688 12.015625 -19.828125 C 11.597656 -19.359375 11.285156 -18.828125 11.078125 -18.234375 C 10.867188 -17.648438 10.742188 -17.054688 10.703125 -16.453125 L 20.4375 -18.046875 C 20.320312 -18.804688 19.90625 -19.566406 19.1875 -20.328125 C 18.46875 -21.085938 17.40625 -21.46875 16 -21.46875 Z M 16 -21.46875 "/></g></g></g><g fill="#212f3d" fill-opacity="1"><g transform="translate(267.226031, 44.25)"><g><path d="M 12.640625 -0.0625 C 12.265625 0.0507812 11.664062 0.164062 10.84375 0.28125 C 10.03125 0.394531 9.1875 0.453125 8.3125 0.453125 C 7.476562 0.453125 6.726562 0.394531 6.0625 0.28125 C 5.394531 0.164062 4.832031 -0.0546875 4.375 -0.390625 C 3.925781 -0.734375 3.578125 -1.195312 3.328125 -1.78125 C 3.078125 -2.375 2.953125 -3.144531 2.953125 -4.09375 L 2.953125 -21.1875 C 2.953125 -22.050781 3.113281 -22.796875 3.4375 -23.421875 C 3.757812 -24.054688 4.226562 -24.617188 4.84375 -25.109375 C 5.445312 -25.597656 6.191406 -26.039062 7.078125 -26.4375 C 7.972656 -26.84375 8.929688 -27.195312 9.953125 -27.5 C 10.984375 -27.800781 12.046875 -28.035156 13.140625 -28.203125 C 14.242188 -28.378906 15.347656 -28.46875 16.453125 -28.46875 C 18.273438 -28.46875 19.71875 -28.113281 20.78125 -27.40625 C 21.84375 -26.707031 22.375 -25.5625 22.375 -23.96875 C 22.375 -23.4375 22.296875 -22.914062 22.140625 -22.40625 C 21.992188 -21.894531 21.804688 -21.429688 21.578125 -21.015625 C 20.785156 -21.015625 19.96875 -20.972656 19.125 -20.890625 C 18.289062 -20.816406 17.472656 -20.703125 16.671875 -20.546875 C 15.878906 -20.398438 15.128906 -20.238281 14.421875 -20.0625 C 13.722656 -19.894531 13.128906 -19.695312 12.640625 -19.46875 Z M 12.640625 -0.0625 "/></g></g></g><g fill="#212f3d" fill-opacity="1"><g transform="translate(290.62414, 44.25)"><g><path d="M 14.796875 -6.15625 C 15.441406 -6.15625 16.15625 -6.21875 16.9375 -6.34375 C 17.71875 -6.476562 18.296875 -6.660156 18.671875 -6.890625 L 18.671875 -11.4375 L 14.578125 -11.109375 C 13.515625 -11.023438 12.640625 -10.789062 11.953125 -10.40625 C 11.273438 -10.03125 10.9375 -9.46875 10.9375 -8.71875 C 10.9375 -7.957031 11.226562 -7.335938 11.8125 -6.859375 C 12.40625 -6.390625 13.398438 -6.15625 14.796875 -6.15625 Z M 14.34375 -28.53125 C 16.394531 -28.53125 18.265625 -28.316406 19.953125 -27.890625 C 21.640625 -27.472656 23.082031 -26.835938 24.28125 -25.984375 C 25.476562 -25.128906 26.398438 -24.046875 27.046875 -22.734375 C 27.691406 -21.429688 28.015625 -19.890625 28.015625 -18.109375 L 28.015625 -5.359375 C 28.015625 -4.367188 27.738281 -3.5625 27.1875 -2.9375 C 26.632812 -2.3125 25.976562 -1.769531 25.21875 -1.3125 C 22.75 0.164062 19.273438 0.90625 14.796875 0.90625 C 12.785156 0.90625 10.972656 0.710938 9.359375 0.328125 C 7.753906 -0.046875 6.367188 -0.609375 5.203125 -1.359375 C 4.046875 -2.117188 3.15625 -3.085938 2.53125 -4.265625 C 1.90625 -5.441406 1.59375 -6.8125 1.59375 -8.375 C 1.59375 -10.988281 2.367188 -13 3.921875 -14.40625 C 5.484375 -15.8125 7.894531 -16.6875 11.15625 -17.03125 L 18.625 -17.828125 L 18.625 -18.21875 C 18.625 -19.320312 18.140625 -20.109375 17.171875 -20.578125 C 16.203125 -21.054688 14.804688 -21.296875 12.984375 -21.296875 C 11.535156 -21.296875 10.128906 -21.144531 8.765625 -20.84375 C 7.398438 -20.539062 6.164062 -20.160156 5.0625 -19.703125 C 4.570312 -20.046875 4.15625 -20.566406 3.8125 -21.265625 C 3.46875 -21.960938 3.296875 -22.691406 3.296875 -23.453125 C 3.296875 -24.441406 3.53125 -25.226562 4 -25.8125 C 4.476562 -26.40625 5.210938 -26.910156 6.203125 -27.328125 C 7.304688 -27.742188 8.609375 -28.046875 10.109375 -28.234375 C 11.609375 -28.429688 13.019531 -28.53125 14.34375 -28.53125 Z M 14.34375 -28.53125 "/></g></g></g><g fill="#545359" fill-opacity="1"><g transform="translate(321.614137, 43.177699)"><g><path d="M 2.46875 0 L 2.46875 -4.042969 L 3.949219 -4.042969 L 3.949219 -4.867188 L 0.0625 -4.867188 L 0.0625 -4.042969 L 1.550781 -4.042969 L 1.550781 0 Z M 2.46875 0 "/></g></g></g><g fill="#545359" fill-opacity="1"><g transform="translate(325.633035, 43.177699)"><g><path d="M 1.351562 0 L 1.351562 -4.152344 L 2.511719 0 L 3.414062 0 L 4.574219 -4.179688 L 4.574219 0 L 5.492188 0 L 5.492188 -4.867188 L 3.960938 -4.867188 L 2.960938 -1.109375 L 1.953125 -4.867188 L 0.433594 -4.867188 L 0.433594 0 Z M 1.351562 0 "/></g></g></g></svg>