<svg xmlns="http://www.w3.org/2000/svg" xmlns:xlink="http://www.w3.org/1999/xlink" width="500" zoomAndPan="magnify" viewBox="0 0 375 374.999991" height="500" preserveAspectRatio="xMidYMid meet" version="1.0"><defs><g/></defs><rect x="-37.5" width="450" fill="#ffffff" y="-37.499999" height="449.999989" fill-opacity="1"/><rect x="-37.5" width="450" fill="#ffffff" y="-37.499999" height="449.999989" fill-opacity="1"/><rect x="-37.5" width="450" fill="#ffffff" y="-37.499999" height="449.999989" fill-opacity="1"/><g fill="#000000" fill-opacity="1"><g transform="translate(-1.676303, 56.999996)"><g><path d="M 3.71875 -48.0625 C 3.71875 -50.03125 4.375 -51.679688 5.6875 -53.015625 C 7 -54.359375 8.742188 -55.03125 10.921875 -55.03125 C 13.085938 -55.03125 14.828125 -54.359375 16.140625 -53.015625 C 17.453125 -51.679688 18.109375 -50.03125 18.109375 -48.0625 C 18.109375 -46.101562 17.453125 -44.453125 16.140625 -43.109375 C 14.828125 -41.773438 13.085938 -41.109375 10.921875 -41.109375 C 8.742188 -41.109375 7 -41.773438 5.6875 -43.109375 C 4.375 -44.453125 3.71875 -46.101562 3.71875 -48.0625 Z M 17.5 -0.078125 C 16.925781 0.0234375 16.082031 0.164062 14.96875 0.34375 C 13.863281 0.53125 12.742188 0.625 11.609375 0.625 C 10.472656 0.625 9.453125 0.546875 8.546875 0.390625 C 7.648438 0.234375 6.890625 -0.0703125 6.265625 -0.53125 C 5.648438 -1 5.171875 -1.632812 4.828125 -2.4375 C 4.492188 -3.238281 4.328125 -4.285156 4.328125 -5.578125 L 4.328125 -37.078125 C 4.898438 -37.179688 5.738281 -37.320312 6.84375 -37.5 C 7.957031 -37.6875 9.082031 -37.78125 10.21875 -37.78125 C 11.351562 -37.78125 12.367188 -37.703125 13.265625 -37.546875 C 14.171875 -37.390625 14.929688 -37.078125 15.546875 -36.609375 C 16.171875 -36.148438 16.648438 -35.519531 16.984375 -34.71875 C 17.328125 -33.914062 17.5 -32.867188 17.5 -31.578125 Z M 17.5 -0.078125 "/></g></g></g><g fill="#000000" fill-opacity="1"><g transform="translate(20.151138, 56.999996)"><g><path d="M 22.0625 -38.78125 C 24.175781 -38.78125 26.25 -38.484375 28.28125 -37.890625 C 30.320312 -37.296875 32.09375 -36.40625 33.59375 -35.21875 C 35.144531 -36.25 36.882812 -37.097656 38.8125 -37.765625 C 40.75 -38.441406 43.085938 -38.78125 45.828125 -38.78125 C 47.785156 -38.78125 49.707031 -38.519531 51.59375 -38 C 53.476562 -37.488281 55.15625 -36.675781 56.625 -35.5625 C 58.09375 -34.457031 59.265625 -32.988281 60.140625 -31.15625 C 61.015625 -29.320312 61.453125 -27.085938 61.453125 -24.453125 L 61.453125 -0.078125 C 60.941406 0.078125 60.128906 0.234375 59.015625 0.390625 C 57.910156 0.546875 56.765625 0.625 55.578125 0.625 C 54.441406 0.625 53.421875 0.546875 52.515625 0.390625 C 51.617188 0.234375 50.859375 -0.0703125 50.234375 -0.53125 C 49.617188 -1 49.140625 -1.632812 48.796875 -2.4375 C 48.460938 -3.238281 48.296875 -4.285156 48.296875 -5.578125 L 48.296875 -24.078125 C 48.296875 -25.617188 47.859375 -26.738281 46.984375 -27.4375 C 46.109375 -28.132812 44.921875 -28.484375 43.421875 -28.484375 C 42.703125 -28.484375 41.925781 -28.316406 41.09375 -27.984375 C 40.269531 -27.648438 39.65625 -27.300781 39.25 -26.9375 C 39.300781 -26.726562 39.328125 -26.53125 39.328125 -26.34375 C 39.328125 -26.164062 39.328125 -26.003906 39.328125 -25.859375 L 39.328125 -0.078125 C 38.753906 0.078125 37.910156 0.234375 36.796875 0.390625 C 35.691406 0.546875 34.570312 0.625 33.4375 0.625 C 32.300781 0.625 31.28125 0.546875 30.375 0.390625 C 29.476562 0.234375 28.71875 -0.0703125 28.09375 -0.53125 C 27.476562 -1 27 -1.632812 26.65625 -2.4375 C 26.320312 -3.238281 26.15625 -4.285156 26.15625 -5.578125 L 26.15625 -24.078125 C 26.15625 -25.617188 25.675781 -26.738281 24.71875 -27.4375 C 23.769531 -28.132812 22.625 -28.484375 21.28125 -28.484375 C 20.351562 -28.484375 19.550781 -28.34375 18.875 -28.0625 C 18.207031 -27.78125 17.644531 -27.507812 17.1875 -27.25 L 17.1875 -0.078125 C 16.664062 0.078125 15.847656 0.234375 14.734375 0.390625 C 13.628906 0.546875 12.484375 0.625 11.296875 0.625 C 10.160156 0.625 9.140625 0.546875 8.234375 0.390625 C 7.335938 0.234375 6.578125 -0.0703125 5.953125 -0.53125 C 5.335938 -1 4.863281 -1.632812 4.53125 -2.4375 C 4.195312 -3.238281 4.03125 -4.285156 4.03125 -5.578125 L 4.03125 -28.953125 C 4.03125 -30.347656 4.328125 -31.457031 4.921875 -32.28125 C 5.515625 -33.101562 6.328125 -33.875 7.359375 -34.59375 C 9.109375 -35.832031 11.285156 -36.835938 13.890625 -37.609375 C 16.492188 -38.390625 19.21875 -38.78125 22.0625 -38.78125 Z M 22.0625 -38.78125 "/></g></g></g><g fill="#000000" fill-opacity="1"><g transform="translate(85.633471, 56.999996)"><g><path d="M 21.28125 -38.78125 C 24.382812 -38.78125 27.265625 -38.378906 29.921875 -37.578125 C 32.578125 -36.773438 34.859375 -35.546875 36.765625 -33.890625 C 38.671875 -32.242188 40.164062 -30.171875 41.25 -27.671875 C 42.34375 -25.171875 42.890625 -22.191406 42.890625 -18.734375 C 42.890625 -15.429688 42.421875 -12.539062 41.484375 -10.0625 C 40.554688 -7.582031 39.238281 -5.503906 37.53125 -3.828125 C 35.832031 -2.148438 33.78125 -0.898438 31.375 -0.078125 C 28.976562 0.742188 26.3125 1.15625 23.375 1.15625 C 21.15625 1.15625 19.09375 0.820312 17.1875 0.15625 L 17.1875 13 C 16.664062 13.15625 15.835938 13.320312 14.703125 13.5 C 13.566406 13.6875 12.40625 13.78125 11.21875 13.78125 C 10.082031 13.78125 9.0625 13.703125 8.15625 13.546875 C 7.257812 13.390625 6.5 13.078125 5.875 12.609375 C 5.257812 12.148438 4.796875 11.519531 4.484375 10.71875 C 4.179688 9.914062 4.03125 8.867188 4.03125 7.578125 L 4.03125 -29.5625 C 4.03125 -30.957031 4.328125 -32.09375 4.921875 -32.96875 C 5.515625 -33.851562 6.328125 -34.65625 7.359375 -35.375 C 8.953125 -36.40625 10.9375 -37.226562 13.3125 -37.84375 C 15.6875 -38.46875 18.34375 -38.78125 21.28125 -38.78125 Z M 21.4375 -9.21875 C 26.757812 -9.21875 29.421875 -12.390625 29.421875 -18.734375 C 29.421875 -22.035156 28.757812 -24.484375 27.4375 -26.078125 C 26.125 -27.679688 24.226562 -28.484375 21.75 -28.484375 C 20.769531 -28.484375 19.890625 -28.363281 19.109375 -28.125 C 18.335938 -27.894531 17.671875 -27.628906 17.109375 -27.328125 L 17.109375 -10.296875 C 17.722656 -9.984375 18.390625 -9.722656 19.109375 -9.515625 C 19.835938 -9.316406 20.613281 -9.21875 21.4375 -9.21875 Z M 21.4375 -9.21875 "/></g></g></g><g fill="#000000" fill-opacity="1"><g transform="translate(130.913815, 56.999996)"><g><path d="M 20.125 -8.359375 C 21 -8.359375 21.960938 -8.445312 23.015625 -8.625 C 24.078125 -8.8125 24.867188 -9.054688 25.390625 -9.359375 L 25.390625 -15.5625 L 19.8125 -15.09375 C 18.375 -14.988281 17.1875 -14.675781 16.25 -14.15625 C 15.320312 -13.644531 14.859375 -12.875 14.859375 -11.84375 C 14.859375 -10.8125 15.257812 -9.972656 16.0625 -9.328125 C 16.863281 -8.679688 18.21875 -8.359375 20.125 -8.359375 Z M 19.5 -38.78125 C 22.289062 -38.78125 24.832031 -38.492188 27.125 -37.921875 C 29.425781 -37.359375 31.390625 -36.492188 33.015625 -35.328125 C 34.640625 -34.171875 35.890625 -32.703125 36.765625 -30.921875 C 37.640625 -29.140625 38.078125 -27.035156 38.078125 -24.609375 L 38.078125 -7.28125 C 38.078125 -5.9375 37.703125 -4.835938 36.953125 -3.984375 C 36.210938 -3.128906 35.328125 -2.394531 34.296875 -1.78125 C 30.941406 0.226562 26.21875 1.234375 20.125 1.234375 C 17.382812 1.234375 14.914062 0.972656 12.71875 0.453125 C 10.53125 -0.0546875 8.648438 -0.828125 7.078125 -1.859375 C 5.503906 -2.890625 4.289062 -4.203125 3.4375 -5.796875 C 2.59375 -7.398438 2.171875 -9.257812 2.171875 -11.375 C 2.171875 -14.9375 3.226562 -17.671875 5.34375 -19.578125 C 7.457031 -21.492188 10.734375 -22.679688 15.171875 -23.140625 L 25.3125 -24.234375 L 25.3125 -24.765625 C 25.3125 -26.265625 24.648438 -27.335938 23.328125 -27.984375 C 22.015625 -28.628906 20.125 -28.953125 17.65625 -28.953125 C 15.6875 -28.953125 13.773438 -28.742188 11.921875 -28.328125 C 10.066406 -27.921875 8.390625 -27.40625 6.890625 -26.78125 C 6.222656 -27.25 5.65625 -27.957031 5.1875 -28.90625 C 4.71875 -29.863281 4.484375 -30.859375 4.484375 -31.890625 C 4.484375 -33.234375 4.804688 -34.300781 5.453125 -35.09375 C 6.097656 -35.894531 7.09375 -36.582031 8.4375 -37.15625 C 9.9375 -37.71875 11.703125 -38.128906 13.734375 -38.390625 C 15.773438 -38.648438 17.695312 -38.78125 19.5 -38.78125 Z M 19.5 -38.78125 "/></g></g></g><g fill="#000000" fill-opacity="1"><g transform="translate(173.020665, 56.999996)"><g><path d="M 25.234375 -28.40625 C 23.941406 -28.40625 22.710938 -28.195312 21.546875 -27.78125 C 20.390625 -27.375 19.382812 -26.769531 18.53125 -25.96875 C 17.6875 -25.164062 17.003906 -24.171875 16.484375 -22.984375 C 15.972656 -21.796875 15.71875 -20.40625 15.71875 -18.8125 C 15.71875 -15.613281 16.628906 -13.210938 18.453125 -11.609375 C 20.285156 -10.015625 22.519531 -9.21875 25.15625 -9.21875 C 26.707031 -9.21875 28.050781 -9.394531 29.1875 -9.75 C 30.320312 -10.113281 31.328125 -10.503906 32.203125 -10.921875 C 33.234375 -10.191406 34.003906 -9.398438 34.515625 -8.546875 C 35.035156 -7.703125 35.296875 -6.6875 35.296875 -5.5 C 35.296875 -3.382812 34.289062 -1.742188 32.28125 -0.578125 C 30.269531 0.578125 27.484375 1.15625 23.921875 1.15625 C 20.671875 1.15625 17.726562 0.679688 15.09375 -0.265625 C 12.457031 -1.222656 10.195312 -2.566406 8.3125 -4.296875 C 6.4375 -6.023438 4.984375 -8.101562 3.953125 -10.53125 C 2.921875 -12.957031 2.40625 -15.640625 2.40625 -18.578125 C 2.40625 -21.984375 2.957031 -24.960938 4.0625 -27.515625 C 5.175781 -30.066406 6.6875 -32.164062 8.59375 -33.8125 C 10.5 -35.46875 12.703125 -36.707031 15.203125 -37.53125 C 17.710938 -38.363281 20.359375 -38.78125 23.140625 -38.78125 C 26.859375 -38.78125 29.722656 -38.109375 31.734375 -36.765625 C 33.742188 -35.421875 34.75 -33.691406 34.75 -31.578125 C 34.75 -30.597656 34.515625 -29.679688 34.046875 -28.828125 C 33.585938 -27.984375 33.050781 -27.25 32.4375 -26.625 C 31.5625 -27.039062 30.503906 -27.441406 29.265625 -27.828125 C 28.023438 -28.210938 26.679688 -28.40625 25.234375 -28.40625 Z M 25.234375 -28.40625 "/></g></g></g><g fill="#000000" fill-opacity="1"><g transform="translate(210.870382, 56.999996)"><g><path d="M 17.1875 -12.921875 C 17.1875 -11.585938 17.609375 -10.632812 18.453125 -10.0625 C 19.304688 -9.5 20.507812 -9.21875 22.0625 -9.21875 C 22.832031 -9.21875 23.628906 -9.28125 24.453125 -9.40625 C 25.285156 -9.53125 26.007812 -9.695312 26.625 -9.90625 C 27.09375 -9.34375 27.492188 -8.710938 27.828125 -8.015625 C 28.160156 -7.316406 28.328125 -6.476562 28.328125 -5.5 C 28.328125 -3.53125 27.59375 -1.925781 26.125 -0.6875 C 24.65625 0.539062 22.0625 1.15625 18.34375 1.15625 C 13.800781 1.15625 10.304688 0.125 7.859375 -1.9375 C 5.410156 -4 4.1875 -7.351562 4.1875 -12 L 4.1875 -45.125 C 4.75 -45.28125 5.554688 -45.445312 6.609375 -45.625 C 7.671875 -45.8125 8.796875 -45.90625 9.984375 -45.90625 C 12.253906 -45.90625 14.019531 -45.503906 15.28125 -44.703125 C 16.550781 -43.898438 17.1875 -42.207031 17.1875 -39.625 L 17.1875 -34.671875 L 27.328125 -34.671875 C 27.628906 -34.109375 27.921875 -33.398438 28.203125 -32.546875 C 28.492188 -31.691406 28.640625 -30.75 28.640625 -29.71875 C 28.640625 -27.914062 28.238281 -26.613281 27.4375 -25.8125 C 26.632812 -25.007812 25.566406 -24.609375 24.234375 -24.609375 L 17.1875 -24.609375 Z M 17.1875 -12.921875 "/></g></g></g><g fill="#000000" fill-opacity="1"><g transform="translate(241.831295, 56.999996)"><g><path d="M 23.921875 1.234375 C 20.867188 1.234375 18.039062 0.8125 15.4375 -0.03125 C 12.832031 -0.882812 10.5625 -2.160156 8.625 -3.859375 C 6.695312 -5.566406 5.175781 -7.710938 4.0625 -10.296875 C 2.957031 -12.878906 2.40625 -15.894531 2.40625 -19.34375 C 2.40625 -22.75 2.957031 -25.675781 4.0625 -28.125 C 5.175781 -30.582031 6.632812 -32.597656 8.4375 -34.171875 C 10.238281 -35.742188 12.300781 -36.90625 14.625 -37.65625 C 16.945312 -38.40625 19.320312 -38.78125 21.75 -38.78125 C 24.488281 -38.78125 26.976562 -38.363281 29.21875 -37.53125 C 31.46875 -36.707031 33.40625 -35.570312 35.03125 -34.125 C 36.65625 -32.6875 37.914062 -30.960938 38.8125 -28.953125 C 39.71875 -26.941406 40.171875 -24.75 40.171875 -22.375 C 40.171875 -20.613281 39.679688 -19.269531 38.703125 -18.34375 C 37.722656 -17.414062 36.351562 -16.820312 34.59375 -16.5625 L 15.484375 -13.703125 C 16.046875 -11.992188 17.203125 -10.710938 18.953125 -9.859375 C 20.710938 -9.015625 22.726562 -8.59375 25 -8.59375 C 27.113281 -8.59375 29.113281 -8.863281 31 -9.40625 C 32.882812 -9.945312 34.421875 -10.578125 35.609375 -11.296875 C 36.429688 -10.785156 37.125 -10.0625 37.6875 -9.125 C 38.257812 -8.195312 38.546875 -7.21875 38.546875 -6.1875 C 38.546875 -3.863281 37.460938 -2.132812 35.296875 -1 C 33.640625 -0.125 31.78125 0.460938 29.71875 0.765625 C 27.65625 1.078125 25.722656 1.234375 23.921875 1.234375 Z M 21.75 -29.1875 C 20.507812 -29.1875 19.4375 -28.976562 18.53125 -28.5625 C 17.632812 -28.144531 16.898438 -27.613281 16.328125 -26.96875 C 15.765625 -26.332031 15.335938 -25.613281 15.046875 -24.8125 C 14.765625 -24.007812 14.597656 -23.195312 14.546875 -22.375 L 27.78125 -24.53125 C 27.632812 -25.5625 27.066406 -26.59375 26.078125 -27.625 C 25.097656 -28.664062 23.65625 -29.1875 21.75 -29.1875 Z M 21.75 -29.1875 "/></g></g></g><g fill="#000000" fill-opacity="1"><g transform="translate(284.32515, 56.999996)"><g><path d="M 17.1875 -0.078125 C 16.664062 0.078125 15.847656 0.234375 14.734375 0.390625 C 13.628906 0.546875 12.484375 0.625 11.296875 0.625 C 10.160156 0.625 9.140625 0.546875 8.234375 0.390625 C 7.335938 0.234375 6.578125 -0.0703125 5.953125 -0.53125 C 5.335938 -1 4.863281 -1.632812 4.53125 -2.4375 C 4.195312 -3.238281 4.03125 -4.285156 4.03125 -5.578125 L 4.03125 -28.796875 C 4.03125 -29.984375 4.25 -31 4.6875 -31.84375 C 5.125 -32.695312 5.753906 -33.460938 6.578125 -34.140625 C 7.398438 -34.804688 8.414062 -35.410156 9.625 -35.953125 C 10.84375 -36.492188 12.148438 -36.96875 13.546875 -37.375 C 14.941406 -37.789062 16.382812 -38.113281 17.875 -38.34375 C 19.375 -38.582031 20.875 -38.703125 22.375 -38.703125 C 24.84375 -38.703125 26.800781 -38.222656 28.25 -37.265625 C 29.695312 -36.316406 30.421875 -34.757812 30.421875 -32.59375 C 30.421875 -31.863281 30.316406 -31.148438 30.109375 -30.453125 C 29.898438 -29.765625 29.644531 -29.132812 29.34375 -28.5625 C 28.257812 -28.5625 27.148438 -28.507812 26.015625 -28.40625 C 24.878906 -28.300781 23.765625 -28.144531 22.671875 -27.9375 C 21.585938 -27.738281 20.566406 -27.519531 19.609375 -27.28125 C 18.660156 -27.050781 17.851562 -26.78125 17.1875 -26.46875 Z M 17.1875 -0.078125 "/></g></g></g><g fill="#000000" fill-opacity="1"><g transform="translate(316.137503, 56.999996)"><g><path d="M 20.125 -8.359375 C 21 -8.359375 21.960938 -8.445312 23.015625 -8.625 C 24.078125 -8.8125 24.867188 -9.054688 25.390625 -9.359375 L 25.390625 -15.5625 L 19.8125 -15.09375 C 18.375 -14.988281 17.1875 -14.675781 16.25 -14.15625 C 15.320312 -13.644531 14.859375 -12.875 14.859375 -11.84375 C 14.859375 -10.8125 15.257812 -9.972656 16.0625 -9.328125 C 16.863281 -8.679688 18.21875 -8.359375 20.125 -8.359375 Z M 19.5 -38.78125 C 22.289062 -38.78125 24.832031 -38.492188 27.125 -37.921875 C 29.425781 -37.359375 31.390625 -36.492188 33.015625 -35.328125 C 34.640625 -34.171875 35.890625 -32.703125 36.765625 -30.921875 C 37.640625 -29.140625 38.078125 -27.035156 38.078125 -24.609375 L 38.078125 -7.28125 C 38.078125 -5.9375 37.703125 -4.835938 36.953125 -3.984375 C 36.210938 -3.128906 35.328125 -2.394531 34.296875 -1.78125 C 30.941406 0.226562 26.21875 1.234375 20.125 1.234375 C 17.382812 1.234375 14.914062 0.972656 12.71875 0.453125 C 10.53125 -0.0546875 8.648438 -0.828125 7.078125 -1.859375 C 5.503906 -2.890625 4.289062 -4.203125 3.4375 -5.796875 C 2.59375 -7.398438 2.171875 -9.257812 2.171875 -11.375 C 2.171875 -14.9375 3.226562 -17.671875 5.34375 -19.578125 C 7.457031 -21.492188 10.734375 -22.679688 15.171875 -23.140625 L 25.3125 -24.234375 L 25.3125 -24.765625 C 25.3125 -26.265625 24.648438 -27.335938 23.328125 -27.984375 C 22.015625 -28.628906 20.125 -28.953125 17.65625 -28.953125 C 15.6875 -28.953125 13.773438 -28.742188 11.921875 -28.328125 C 10.066406 -27.921875 8.390625 -27.40625 6.890625 -26.78125 C 6.222656 -27.25 5.65625 -27.957031 5.1875 -28.90625 C 4.71875 -29.863281 4.484375 -30.859375 4.484375 -31.890625 C 4.484375 -33.234375 4.804688 -34.300781 5.453125 -35.09375 C 6.097656 -35.894531 7.09375 -36.582031 8.4375 -37.15625 C 9.9375 -37.71875 11.703125 -38.128906 13.734375 -38.390625 C 15.773438 -38.648438 17.695312 -38.78125 19.5 -38.78125 Z M 19.5 -38.78125 "/></g></g></g><g fill="#000000" fill-opacity="1"><g transform="translate(358.244342, 56.999996)"><g><path d="M 1.703125 -6.265625 C 1.703125 -8.429688 2.375 -10.238281 3.71875 -11.6875 C 5.0625 -13.132812 6.894531 -13.859375 9.21875 -13.859375 C 11.53125 -13.859375 13.359375 -13.132812 14.703125 -11.6875 C 16.046875 -10.238281 16.71875 -8.429688 16.71875 -6.265625 C 16.71875 -4.097656 16.046875 -2.289062 14.703125 -0.84375 C 13.359375 0.59375 11.53125 1.3125 9.21875 1.3125 C 6.894531 1.3125 5.0625 0.59375 3.71875 -0.84375 C 2.375 -2.289062 1.703125 -4.097656 1.703125 -6.265625 Z M 1.703125 -6.265625 "/></g></g></g></svg>