<svg xmlns="http://www.w3.org/2000/svg" xmlns:xlink="http://www.w3.org/1999/xlink" width="200" zoomAndPan="magnify" viewBox="0 0 150 30.000001" height="40" preserveAspectRatio="xMidYMid meet" version="1.0"><defs><g/></defs><g fill="#000000" fill-opacity="1"><g transform="translate(68.790448, 13.281696)"><g><path d="M 0.015625 -0.140625 C 0.015625 -0.148438 0.015625 -0.15625 0.015625 -0.15625 C 0.015625 -0.164062 0.0195312 -0.171875 0.03125 -0.171875 C 0.0390625 -0.171875 0.046875 -0.164062 0.046875 -0.15625 C 0.046875 -0.15625 0.046875 -0.148438 0.046875 -0.140625 C 0.046875 -0.140625 0.046875 -0.132812 0.046875 -0.125 C 0.046875 -0.125 0.0390625 -0.125 0.03125 -0.125 C 0.0195312 -0.125 0.015625 -0.125 0.015625 -0.125 C 0.015625 -0.132812 0.015625 -0.140625 0.015625 -0.140625 Z M 0.046875 0 C 0.046875 0 0.0390625 0 0.03125 0 C 0.03125 0 0.0234375 0 0.015625 0 C 0.015625 -0.0078125 0.015625 -0.015625 0.015625 -0.015625 L 0.015625 -0.109375 C 0.0234375 -0.109375 0.03125 -0.109375 0.03125 -0.109375 C 0.0390625 -0.109375 0.046875 -0.109375 0.046875 -0.109375 C 0.046875 -0.109375 0.046875 -0.101562 0.046875 -0.09375 Z M 0.046875 0 "/></g></g></g><g fill="#000000" fill-opacity="1"><g transform="translate(68.856203, 13.281696)"><g><path d="M 0.0625 -0.109375 C 0.0703125 -0.109375 0.078125 -0.109375 0.078125 -0.109375 C 0.0859375 -0.109375 0.0976562 -0.109375 0.109375 -0.109375 C 0.117188 -0.109375 0.128906 -0.109375 0.140625 -0.109375 C 0.148438 -0.109375 0.15625 -0.109375 0.15625 -0.109375 C 0.164062 -0.109375 0.171875 -0.101562 0.171875 -0.09375 C 0.179688 -0.0820312 0.1875 -0.078125 0.1875 -0.078125 L 0.1875 0 C 0.1875 0 0.179688 0 0.171875 0 C 0.160156 0 0.15625 0 0.15625 0 C 0.15625 0 0.148438 0 0.140625 0 C 0.140625 -0.0078125 0.140625 -0.015625 0.140625 -0.015625 L 0.140625 -0.078125 C 0.140625 -0.0859375 0.132812 -0.09375 0.125 -0.09375 C 0.125 -0.09375 0.125 -0.0859375 0.125 -0.078125 C 0.125 -0.078125 0.117188 -0.078125 0.109375 -0.078125 C 0.117188 -0.078125 0.125 -0.078125 0.125 -0.078125 L 0.125 0 C 0.113281 0 0.109375 0 0.109375 0 C 0.0976562 0 0.09375 0 0.09375 0 C 0.09375 0 0.0859375 0 0.078125 0 C 0.078125 -0.0078125 0.078125 -0.015625 0.078125 -0.015625 L 0.078125 -0.078125 C 0.078125 -0.078125 0.0703125 -0.078125 0.0625 -0.078125 C 0.0625 -0.0859375 0.0625 -0.09375 0.0625 -0.09375 C 0.0625 -0.09375 0.0546875 -0.0859375 0.046875 -0.078125 L 0.046875 0 C 0.046875 0 0.0390625 0 0.03125 0 C 0.03125 0 0.0234375 0 0.015625 0 C 0.015625 -0.0078125 0.015625 -0.015625 0.015625 -0.015625 L 0.015625 -0.09375 C 0.015625 -0.101562 0.015625 -0.109375 0.015625 -0.109375 C 0.0234375 -0.109375 0.03125 -0.109375 0.03125 -0.109375 C 0.0390625 -0.109375 0.0507812 -0.109375 0.0625 -0.109375 Z M 0.0625 -0.109375 "/></g></g></g><g fill="#000000" fill-opacity="1"><g transform="translate(69.053469, 13.281696)"><g><path d="M 0.0625 -0.109375 C 0.0703125 -0.109375 0.0820312 -0.109375 0.09375 -0.109375 C 0.101562 -0.109375 0.109375 -0.101562 0.109375 -0.09375 C 0.117188 -0.09375 0.125 -0.0859375 0.125 -0.078125 C 0.125 -0.078125 0.125 -0.0664062 0.125 -0.046875 C 0.125 -0.046875 0.125 -0.0390625 0.125 -0.03125 C 0.125 -0.0195312 0.117188 -0.0078125 0.109375 0 C 0.109375 0 0.101562 0 0.09375 0 C 0.0820312 0 0.0703125 0 0.0625 0 C 0.0625 0 0.0546875 0 0.046875 0 L 0.046875 0.046875 C 0.046875 0.046875 0.0390625 0.046875 0.03125 0.046875 C 0.03125 0.046875 0.0234375 0.046875 0.015625 0.046875 C 0.015625 0.046875 0.015625 0.0390625 0.015625 0.03125 C 0.015625 0.03125 0.015625 0.0234375 0.015625 0.015625 L 0.015625 -0.09375 C 0.015625 -0.101562 0.015625 -0.109375 0.015625 -0.109375 C 0.0234375 -0.109375 0.03125 -0.109375 0.03125 -0.109375 C 0.0390625 -0.109375 0.0507812 -0.109375 0.0625 -0.109375 Z M 0.0625 -0.03125 C 0.0820312 -0.03125 0.09375 -0.0351562 0.09375 -0.046875 C 0.09375 -0.0664062 0.0859375 -0.078125 0.078125 -0.078125 C 0.078125 -0.0859375 0.0703125 -0.09375 0.0625 -0.09375 C 0.0625 -0.09375 0.0546875 -0.0859375 0.046875 -0.078125 L 0.046875 -0.03125 C 0.0546875 -0.03125 0.0625 -0.03125 0.0625 -0.03125 Z M 0.0625 -0.03125 "/></g></g></g><g fill="#000000" fill-opacity="1"><g transform="translate(69.189876, 13.281696)"><g><path d="M 0.0625 -0.03125 C 0.0703125 -0.03125 0.078125 -0.03125 0.078125 -0.03125 L 0.078125 -0.046875 L 0.0625 -0.046875 C 0.0507812 -0.046875 0.046875 -0.046875 0.046875 -0.046875 C 0.046875 -0.046875 0.046875 -0.0390625 0.046875 -0.03125 C 0.046875 -0.03125 0.0507812 -0.03125 0.0625 -0.03125 Z M 0.0625 -0.109375 C 0.0703125 -0.109375 0.078125 -0.109375 0.078125 -0.109375 C 0.0859375 -0.109375 0.09375 -0.109375 0.09375 -0.109375 C 0.101562 -0.109375 0.109375 -0.101562 0.109375 -0.09375 C 0.109375 -0.0820312 0.109375 -0.078125 0.109375 -0.078125 L 0.109375 -0.015625 C 0.109375 -0.015625 0.109375 -0.0078125 0.109375 0 C 0.0976562 0 0.0820312 0 0.0625 0 C 0.0507812 0 0.0390625 0 0.03125 0 C 0.03125 0 0.0234375 0 0.015625 0 C 0.015625 -0.0078125 0.0078125 -0.015625 0 -0.015625 C 0 -0.0234375 0 -0.03125 0 -0.03125 C 0 -0.0390625 0.00390625 -0.046875 0.015625 -0.046875 C 0.0234375 -0.0546875 0.0351562 -0.0625 0.046875 -0.0625 L 0.078125 -0.078125 C 0.078125 -0.078125 0.0703125 -0.078125 0.0625 -0.078125 C 0.0625 -0.0859375 0.0546875 -0.09375 0.046875 -0.09375 C 0.046875 -0.09375 0.0390625 -0.0859375 0.03125 -0.078125 C 0.03125 -0.078125 0.0234375 -0.078125 0.015625 -0.078125 C 0.015625 -0.0859375 0.015625 -0.09375 0.015625 -0.09375 C 0.015625 -0.101562 0.015625 -0.109375 0.015625 -0.109375 C 0.015625 -0.109375 0.0195312 -0.109375 0.03125 -0.109375 C 0.0390625 -0.109375 0.0507812 -0.109375 0.0625 -0.109375 Z M 0.0625 -0.109375 "/></g></g></g><g fill="#000000" fill-opacity="1"><g transform="translate(69.316723, 13.281696)"><g><path d="M 0.078125 -0.078125 C 0.0664062 -0.078125 0.0625 -0.078125 0.0625 -0.078125 C 0.0625 -0.078125 0.0546875 -0.078125 0.046875 -0.078125 C 0.046875 -0.078125 0.046875 -0.0703125 0.046875 -0.0625 C 0.046875 -0.0507812 0.046875 -0.0390625 0.046875 -0.03125 C 0.0546875 -0.03125 0.0664062 -0.03125 0.078125 -0.03125 C 0.0859375 -0.03125 0.09375 -0.03125 0.09375 -0.03125 C 0.101562 -0.03125 0.109375 -0.0234375 0.109375 -0.015625 C 0.109375 -0.00390625 0.101562 0 0.09375 0 C 0.09375 0 0.0859375 0 0.078125 0 C 0.0664062 0 0.0546875 0 0.046875 0 C 0.0351562 0 0.0234375 0 0.015625 0 C 0.015625 -0.0078125 0.0078125 -0.0195312 0 -0.03125 C 0 -0.0390625 0 -0.046875 0 -0.046875 C 0 -0.0664062 0 -0.078125 0 -0.078125 C 0.0078125 -0.0859375 0.015625 -0.09375 0.015625 -0.09375 C 0.0234375 -0.101562 0.0351562 -0.109375 0.046875 -0.109375 C 0.0546875 -0.109375 0.0625 -0.109375 0.0625 -0.109375 C 0.0820312 -0.109375 0.09375 -0.109375 0.09375 -0.109375 C 0.101562 -0.109375 0.109375 -0.101562 0.109375 -0.09375 C 0.109375 -0.09375 0.109375 -0.0859375 0.109375 -0.078125 C 0.109375 -0.078125 0.101562 -0.078125 0.09375 -0.078125 C 0.09375 -0.078125 0.0859375 -0.078125 0.078125 -0.078125 Z M 0.078125 -0.078125 "/></g></g></g><g fill="#000000" fill-opacity="1"><g transform="translate(69.430745, 13.281696)"><g><path d="M 0.046875 -0.046875 C 0.046875 -0.0351562 0.046875 -0.03125 0.046875 -0.03125 C 0.0546875 -0.03125 0.0625 -0.03125 0.0625 -0.03125 C 0.0703125 -0.03125 0.078125 -0.03125 0.078125 -0.03125 C 0.078125 -0.03125 0.078125 -0.0234375 0.078125 -0.015625 C 0.078125 -0.00390625 0.078125 0 0.078125 0 C 0.078125 0 0.0664062 0 0.046875 0 C 0.0351562 0 0.0234375 0 0.015625 0 C 0.015625 -0.0078125 0.015625 -0.0195312 0.015625 -0.03125 L 0.015625 -0.140625 C 0.0234375 -0.140625 0.03125 -0.140625 0.03125 -0.140625 C 0.0390625 -0.140625 0.046875 -0.132812 0.046875 -0.125 L 0.046875 -0.109375 L 0.078125 -0.109375 C 0.078125 -0.109375 0.078125 -0.101562 0.078125 -0.09375 C 0.0859375 -0.09375 0.09375 -0.09375 0.09375 -0.09375 C 0.09375 -0.0820312 0.0859375 -0.078125 0.078125 -0.078125 L 0.046875 -0.078125 Z M 0.046875 -0.046875 "/></g></g></g><g fill="#000000" fill-opacity="1"><g transform="translate(69.524015, 13.281696)"><g><path d="M 0.078125 0 C 0.0664062 0 0.0546875 0 0.046875 0 C 0.0351562 0 0.0234375 0 0.015625 0 C 0.015625 -0.0078125 0.0078125 -0.0195312 0 -0.03125 C 0 -0.0390625 0 -0.0507812 0 -0.0625 C 0 -0.0703125 0 -0.078125 0 -0.078125 C 0.0078125 -0.0859375 0.015625 -0.09375 0.015625 -0.09375 C 0.0234375 -0.101562 0.03125 -0.109375 0.03125 -0.109375 C 0.0390625 -0.109375 0.0507812 -0.109375 0.0625 -0.109375 C 0.0703125 -0.109375 0.078125 -0.109375 0.078125 -0.109375 C 0.0859375 -0.109375 0.09375 -0.101562 0.09375 -0.09375 C 0.101562 -0.09375 0.109375 -0.0859375 0.109375 -0.078125 C 0.117188 -0.078125 0.125 -0.0703125 0.125 -0.0625 C 0.125 -0.0625 0.117188 -0.0546875 0.109375 -0.046875 L 0.046875 -0.046875 C 0.046875 -0.0351562 0.046875 -0.03125 0.046875 -0.03125 C 0.0546875 -0.03125 0.0664062 -0.03125 0.078125 -0.03125 C 0.078125 -0.03125 0.0820312 -0.03125 0.09375 -0.03125 C 0.101562 -0.03125 0.109375 -0.03125 0.109375 -0.03125 C 0.109375 -0.03125 0.109375 -0.0234375 0.109375 -0.015625 C 0.109375 -0.00390625 0.109375 0 0.109375 0 C 0.0976562 0 0.0859375 0 0.078125 0 Z M 0.0625 -0.09375 C 0.0625 -0.09375 0.0546875 -0.0859375 0.046875 -0.078125 C 0.046875 -0.078125 0.046875 -0.0703125 0.046875 -0.0625 L 0.078125 -0.078125 C 0.078125 -0.0859375 0.0703125 -0.09375 0.0625 -0.09375 Z M 0.0625 -0.09375 "/></g></g></g><g fill="#000000" fill-opacity="1"><g transform="translate(69.652027, 13.281696)"><g><path d="M 0.046875 0 C 0.046875 0 0.0390625 0 0.03125 0 C 0.03125 0 0.0234375 0 0.015625 0 C 0.015625 -0.0078125 0.015625 -0.015625 0.015625 -0.015625 L 0.015625 -0.09375 C 0.015625 -0.09375 0.015625 -0.0976562 0.015625 -0.109375 C 0.0234375 -0.109375 0.03125 -0.109375 0.03125 -0.109375 C 0.0390625 -0.109375 0.046875 -0.109375 0.046875 -0.109375 C 0.0546875 -0.109375 0.0625 -0.109375 0.0625 -0.109375 C 0.0703125 -0.109375 0.078125 -0.109375 0.078125 -0.109375 C 0.0859375 -0.109375 0.09375 -0.101562 0.09375 -0.09375 C 0.0820312 -0.09375 0.078125 -0.0859375 0.078125 -0.078125 C 0.078125 -0.078125 0.0703125 -0.078125 0.0625 -0.078125 C 0.0625 -0.078125 0.0546875 -0.078125 0.046875 -0.078125 Z M 0.046875 0 "/></g></g></g><g fill="#000000" fill-opacity="1"><g transform="translate(69.747862, 13.281696)"><g><path d="M 0.0625 -0.03125 C 0.0703125 -0.03125 0.078125 -0.03125 0.078125 -0.03125 L 0.078125 -0.046875 L 0.0625 -0.046875 C 0.0507812 -0.046875 0.046875 -0.046875 0.046875 -0.046875 C 0.046875 -0.046875 0.046875 -0.0390625 0.046875 -0.03125 C 0.046875 -0.03125 0.0507812 -0.03125 0.0625 -0.03125 Z M 0.0625 -0.109375 C 0.0703125 -0.109375 0.078125 -0.109375 0.078125 -0.109375 C 0.0859375 -0.109375 0.09375 -0.109375 0.09375 -0.109375 C 0.101562 -0.109375 0.109375 -0.101562 0.109375 -0.09375 C 0.109375 -0.0820312 0.109375 -0.078125 0.109375 -0.078125 L 0.109375 -0.015625 C 0.109375 -0.015625 0.109375 -0.0078125 0.109375 0 C 0.0976562 0 0.0820312 0 0.0625 0 C 0.0507812 0 0.0390625 0 0.03125 0 C 0.03125 0 0.0234375 0 0.015625 0 C 0.015625 -0.0078125 0.0078125 -0.015625 0 -0.015625 C 0 -0.0234375 0 -0.03125 0 -0.03125 C 0 -0.0390625 0.00390625 -0.046875 0.015625 -0.046875 C 0.0234375 -0.0546875 0.0351562 -0.0625 0.046875 -0.0625 L 0.078125 -0.078125 C 0.078125 -0.078125 0.0703125 -0.078125 0.0625 -0.078125 C 0.0625 -0.0859375 0.0546875 -0.09375 0.046875 -0.09375 C 0.046875 -0.09375 0.0390625 -0.0859375 0.03125 -0.078125 C 0.03125 -0.078125 0.0234375 -0.078125 0.015625 -0.078125 C 0.015625 -0.0859375 0.015625 -0.09375 0.015625 -0.09375 C 0.015625 -0.101562 0.015625 -0.109375 0.015625 -0.109375 C 0.015625 -0.109375 0.0195312 -0.109375 0.03125 -0.109375 C 0.0390625 -0.109375 0.0507812 -0.109375 0.0625 -0.109375 Z M 0.0625 -0.109375 "/></g></g></g><g fill="#000000" fill-opacity="1"><g transform="translate(69.874709, 13.281696)"><g><path d="M 0 -0.015625 C 0 -0.0234375 0 -0.03125 0 -0.03125 C 0.0078125 -0.0390625 0.0195312 -0.046875 0.03125 -0.046875 C 0.03125 -0.046875 0.03125 -0.0390625 0.03125 -0.03125 C 0.0390625 -0.03125 0.046875 -0.0234375 0.046875 -0.015625 C 0.046875 -0.00390625 0.0390625 0 0.03125 0 C 0.0195312 0 0.0078125 0 0 0 C 0 0 0 -0.00390625 0 -0.015625 Z M 0 -0.015625 "/></g></g></g><g fill="#192746" fill-opacity="1"><g transform="translate(5.890778, 21.411292)"><g><path d="M 1.328125 -17.109375 C 1.328125 -17.804688 1.5625 -18.390625 2.03125 -18.859375 C 2.5 -19.335938 3.117188 -19.578125 3.890625 -19.578125 C 4.660156 -19.578125 5.28125 -19.335938 5.75 -18.859375 C 6.21875 -18.390625 6.453125 -17.804688 6.453125 -17.109375 C 6.453125 -16.410156 6.21875 -15.820312 5.75 -15.34375 C 5.28125 -14.863281 4.660156 -14.625 3.890625 -14.625 C 3.117188 -14.625 2.5 -14.863281 2.03125 -15.34375 C 1.5625 -15.820312 1.328125 -16.410156 1.328125 -17.109375 Z M 6.21875 -0.03125 C 6.019531 0.0078125 5.722656 0.0625 5.328125 0.125 C 4.929688 0.1875 4.53125 0.21875 4.125 0.21875 C 3.726562 0.21875 3.367188 0.191406 3.046875 0.140625 C 2.722656 0.0859375 2.453125 -0.0195312 2.234375 -0.1875 C 2.015625 -0.351562 1.84375 -0.578125 1.71875 -0.859375 C 1.601562 -1.148438 1.546875 -1.523438 1.546875 -1.984375 L 1.546875 -13.1875 C 1.742188 -13.226562 2.039062 -13.28125 2.4375 -13.34375 C 2.832031 -13.40625 3.234375 -13.4375 3.640625 -13.4375 C 4.046875 -13.4375 4.40625 -13.410156 4.71875 -13.359375 C 5.039062 -13.304688 5.3125 -13.195312 5.53125 -13.03125 C 5.757812 -12.863281 5.929688 -12.632812 6.046875 -12.34375 C 6.160156 -12.0625 6.21875 -11.691406 6.21875 -11.234375 Z M 6.21875 -0.03125 "/></g></g></g><g fill="#192746" fill-opacity="1"><g transform="translate(13.658931, 21.411292)"><g><path d="M 7.84375 -13.796875 C 8.601562 -13.796875 9.34375 -13.691406 10.0625 -13.484375 C 10.789062 -13.273438 11.421875 -12.957031 11.953125 -12.53125 C 12.503906 -12.894531 13.125 -13.195312 13.8125 -13.4375 C 14.5 -13.675781 15.332031 -13.796875 16.3125 -13.796875 C 17.007812 -13.796875 17.691406 -13.703125 18.359375 -13.515625 C 19.023438 -13.335938 19.617188 -13.050781 20.140625 -12.65625 C 20.671875 -12.257812 21.09375 -11.734375 21.40625 -11.078125 C 21.71875 -10.429688 21.875 -9.640625 21.875 -8.703125 L 21.875 -0.03125 C 21.6875 0.03125 21.394531 0.0859375 21 0.140625 C 20.601562 0.191406 20.195312 0.21875 19.78125 0.21875 C 19.375 0.21875 19.007812 0.191406 18.6875 0.140625 C 18.363281 0.0859375 18.09375 -0.0195312 17.875 -0.1875 C 17.65625 -0.351562 17.484375 -0.578125 17.359375 -0.859375 C 17.242188 -1.148438 17.1875 -1.523438 17.1875 -1.984375 L 17.1875 -8.5625 C 17.1875 -9.113281 17.03125 -9.515625 16.71875 -9.765625 C 16.40625 -10.015625 15.984375 -10.140625 15.453125 -10.140625 C 15.191406 -10.140625 14.914062 -10.078125 14.625 -9.953125 C 14.332031 -9.835938 14.113281 -9.71875 13.96875 -9.59375 C 13.988281 -9.507812 14 -9.4375 14 -9.375 C 14 -9.3125 14 -9.253906 14 -9.203125 L 14 -0.03125 C 13.789062 0.03125 13.488281 0.0859375 13.09375 0.140625 C 12.695312 0.191406 12.300781 0.21875 11.90625 0.21875 C 11.5 0.21875 11.132812 0.191406 10.8125 0.140625 C 10.488281 0.0859375 10.21875 -0.0195312 10 -0.1875 C 9.78125 -0.351562 9.609375 -0.578125 9.484375 -0.859375 C 9.367188 -1.148438 9.3125 -1.523438 9.3125 -1.984375 L 9.3125 -8.5625 C 9.3125 -9.113281 9.140625 -9.515625 8.796875 -9.765625 C 8.460938 -10.015625 8.054688 -10.140625 7.578125 -10.140625 C 7.242188 -10.140625 6.957031 -10.085938 6.71875 -9.984375 C 6.476562 -9.878906 6.273438 -9.785156 6.109375 -9.703125 L 6.109375 -0.03125 C 5.929688 0.03125 5.644531 0.0859375 5.25 0.140625 C 4.851562 0.191406 4.441406 0.21875 4.015625 0.21875 C 3.617188 0.21875 3.257812 0.191406 2.9375 0.140625 C 2.613281 0.0859375 2.34375 -0.0195312 2.125 -0.1875 C 1.90625 -0.351562 1.734375 -0.578125 1.609375 -0.859375 C 1.492188 -1.148438 1.4375 -1.523438 1.4375 -1.984375 L 1.4375 -10.296875 C 1.4375 -10.796875 1.539062 -11.191406 1.75 -11.484375 C 1.957031 -11.773438 2.242188 -12.050781 2.609375 -12.3125 C 3.234375 -12.75 4.007812 -13.101562 4.9375 -13.375 C 5.863281 -13.65625 6.832031 -13.796875 7.84375 -13.796875 Z M 7.84375 -13.796875 "/></g></g></g><g fill="#192746" fill-opacity="1"><g transform="translate(36.963381, 21.411292)"><g><path d="M 7.578125 -13.796875 C 8.679688 -13.796875 9.703125 -13.65625 10.640625 -13.375 C 11.585938 -13.09375 12.398438 -12.65625 13.078125 -12.0625 C 13.765625 -11.476562 14.300781 -10.738281 14.6875 -9.84375 C 15.070312 -8.957031 15.265625 -7.898438 15.265625 -6.671875 C 15.265625 -5.492188 15.097656 -4.460938 14.765625 -3.578125 C 14.429688 -2.703125 13.960938 -1.960938 13.359375 -1.359375 C 12.753906 -0.765625 12.023438 -0.320312 11.171875 -0.03125 C 10.316406 0.257812 9.363281 0.40625 8.3125 0.40625 C 7.53125 0.40625 6.796875 0.289062 6.109375 0.0625 L 6.109375 4.625 C 5.929688 4.675781 5.640625 4.734375 5.234375 4.796875 C 4.828125 4.867188 4.414062 4.90625 4 4.90625 C 3.59375 4.90625 3.226562 4.875 2.90625 4.8125 C 2.582031 4.757812 2.3125 4.648438 2.09375 4.484375 C 1.875 4.328125 1.707031 4.101562 1.59375 3.8125 C 1.488281 3.53125 1.4375 3.160156 1.4375 2.703125 L 1.4375 -10.515625 C 1.4375 -11.015625 1.539062 -11.421875 1.75 -11.734375 C 1.957031 -12.046875 2.242188 -12.332031 2.609375 -12.59375 C 3.179688 -12.957031 3.890625 -13.25 4.734375 -13.46875 C 5.578125 -13.6875 6.523438 -13.796875 7.578125 -13.796875 Z M 7.625 -3.28125 C 9.519531 -3.28125 10.46875 -4.410156 10.46875 -6.671875 C 10.46875 -7.835938 10.234375 -8.707031 9.765625 -9.28125 C 9.296875 -9.851562 8.617188 -10.140625 7.734375 -10.140625 C 7.390625 -10.140625 7.078125 -10.097656 6.796875 -10.015625 C 6.523438 -9.929688 6.289062 -9.832031 6.09375 -9.71875 L 6.09375 -3.65625 C 6.3125 -3.550781 6.546875 -3.460938 6.796875 -3.390625 C 7.054688 -3.316406 7.332031 -3.28125 7.625 -3.28125 Z M 7.625 -3.28125 "/></g></g></g><g fill="#192746" fill-opacity="1"><g transform="translate(53.078164, 21.411292)"><g><path d="M 7.15625 -2.96875 C 7.46875 -2.96875 7.8125 -3 8.1875 -3.0625 C 8.570312 -3.132812 8.851562 -3.222656 9.03125 -3.328125 L 9.03125 -5.53125 L 7.046875 -5.375 C 6.535156 -5.332031 6.113281 -5.21875 5.78125 -5.03125 C 5.445312 -4.851562 5.28125 -4.582031 5.28125 -4.21875 C 5.28125 -3.84375 5.421875 -3.539062 5.703125 -3.3125 C 5.992188 -3.082031 6.476562 -2.96875 7.15625 -2.96875 Z M 6.9375 -13.796875 C 7.925781 -13.796875 8.828125 -13.691406 9.640625 -13.484375 C 10.460938 -13.285156 11.160156 -12.976562 11.734375 -12.5625 C 12.316406 -12.15625 12.765625 -11.632812 13.078125 -11 C 13.390625 -10.363281 13.546875 -9.617188 13.546875 -8.765625 L 13.546875 -2.59375 C 13.546875 -2.113281 13.410156 -1.722656 13.140625 -1.421875 C 12.878906 -1.117188 12.566406 -0.859375 12.203125 -0.640625 C 11.003906 0.078125 9.320312 0.4375 7.15625 0.4375 C 6.1875 0.4375 5.3125 0.34375 4.53125 0.15625 C 3.75 -0.0195312 3.078125 -0.289062 2.515625 -0.65625 C 1.960938 -1.03125 1.53125 -1.5 1.21875 -2.0625 C 0.914062 -2.632812 0.765625 -3.296875 0.765625 -4.046875 C 0.765625 -5.316406 1.140625 -6.289062 1.890625 -6.96875 C 2.648438 -7.644531 3.820312 -8.066406 5.40625 -8.234375 L 9.015625 -8.625 L 9.015625 -8.8125 C 9.015625 -9.34375 8.78125 -9.722656 8.3125 -9.953125 C 7.84375 -10.179688 7.164062 -10.296875 6.28125 -10.296875 C 5.582031 -10.296875 4.898438 -10.222656 4.234375 -10.078125 C 3.578125 -9.929688 2.984375 -9.75 2.453125 -9.53125 C 2.210938 -9.695312 2.007812 -9.945312 1.84375 -10.28125 C 1.675781 -10.625 1.59375 -10.976562 1.59375 -11.34375 C 1.59375 -11.820312 1.707031 -12.203125 1.9375 -12.484375 C 2.164062 -12.773438 2.519531 -13.019531 3 -13.21875 C 3.53125 -13.425781 4.160156 -13.570312 4.890625 -13.65625 C 5.617188 -13.75 6.300781 -13.796875 6.9375 -13.796875 Z M 6.9375 -13.796875 "/></g></g></g><g fill="#192746" fill-opacity="1"><g transform="translate(68.063538, 21.411292)"><g><path d="M 8.984375 -10.109375 C 8.523438 -10.109375 8.085938 -10.035156 7.671875 -9.890625 C 7.253906 -9.742188 6.894531 -9.523438 6.59375 -9.234375 C 6.289062 -8.953125 6.046875 -8.597656 5.859375 -8.171875 C 5.679688 -7.753906 5.59375 -7.257812 5.59375 -6.6875 C 5.59375 -5.550781 5.914062 -4.695312 6.5625 -4.125 C 7.21875 -3.5625 8.015625 -3.28125 8.953125 -3.28125 C 9.503906 -3.28125 9.976562 -3.34375 10.375 -3.46875 C 10.78125 -3.59375 11.140625 -3.734375 11.453125 -3.890625 C 11.828125 -3.628906 12.101562 -3.347656 12.28125 -3.046875 C 12.46875 -2.742188 12.5625 -2.378906 12.5625 -1.953125 C 12.5625 -1.203125 12.203125 -0.617188 11.484375 -0.203125 C 10.765625 0.203125 9.773438 0.40625 8.515625 0.40625 C 7.359375 0.40625 6.3125 0.238281 5.375 -0.09375 C 4.4375 -0.4375 3.628906 -0.914062 2.953125 -1.53125 C 2.285156 -2.144531 1.769531 -2.882812 1.40625 -3.75 C 1.039062 -4.613281 0.859375 -5.566406 0.859375 -6.609375 C 0.859375 -7.816406 1.050781 -8.875 1.4375 -9.78125 C 1.832031 -10.695312 2.367188 -11.445312 3.046875 -12.03125 C 3.734375 -12.625 4.519531 -13.066406 5.40625 -13.359375 C 6.300781 -13.648438 7.242188 -13.796875 8.234375 -13.796875 C 9.554688 -13.796875 10.578125 -13.554688 11.296875 -13.078125 C 12.015625 -12.609375 12.375 -11.992188 12.375 -11.234375 C 12.375 -10.890625 12.289062 -10.566406 12.125 -10.265625 C 11.957031 -9.960938 11.765625 -9.695312 11.546875 -9.46875 C 11.234375 -9.625 10.851562 -9.769531 10.40625 -9.90625 C 9.96875 -10.039062 9.492188 -10.109375 8.984375 -10.109375 Z M 8.984375 -10.109375 "/></g></g></g><g fill="#192746" fill-opacity="1"><g transform="translate(81.533839, 21.411292)"><g><path d="M 6.109375 -4.59375 C 6.109375 -4.125 6.257812 -3.785156 6.5625 -3.578125 C 6.875 -3.378906 7.300781 -3.28125 7.84375 -3.28125 C 8.125 -3.28125 8.410156 -3.300781 8.703125 -3.34375 C 8.992188 -3.394531 9.25 -3.457031 9.46875 -3.53125 C 9.632812 -3.320312 9.773438 -3.09375 9.890625 -2.84375 C 10.015625 -2.601562 10.078125 -2.304688 10.078125 -1.953125 C 10.078125 -1.253906 9.816406 -0.6875 9.296875 -0.25 C 8.773438 0.1875 7.851562 0.40625 6.53125 0.40625 C 4.914062 0.40625 3.671875 0.0390625 2.796875 -0.6875 C 1.921875 -1.425781 1.484375 -2.617188 1.484375 -4.265625 L 1.484375 -16.0625 C 1.691406 -16.113281 1.984375 -16.171875 2.359375 -16.234375 C 2.734375 -16.296875 3.128906 -16.328125 3.546875 -16.328125 C 4.359375 -16.328125 4.988281 -16.1875 5.4375 -15.90625 C 5.882812 -15.625 6.109375 -15.023438 6.109375 -14.109375 L 6.109375 -12.34375 L 9.71875 -12.34375 C 9.832031 -12.132812 9.9375 -11.878906 10.03125 -11.578125 C 10.132812 -11.273438 10.1875 -10.941406 10.1875 -10.578125 C 10.1875 -9.929688 10.046875 -9.46875 9.765625 -9.1875 C 9.484375 -8.90625 9.101562 -8.765625 8.625 -8.765625 L 6.109375 -8.765625 Z M 6.109375 -4.59375 "/></g></g></g><g fill="#00a6a6" fill-opacity="1"><g transform="translate(92.545263, 21.411292)"><g><path d="M 0.875 -10.875 C 0.875 -11.644531 1.113281 -12.285156 1.59375 -12.796875 C 2.070312 -13.316406 2.722656 -13.578125 3.546875 -13.578125 C 4.378906 -13.578125 5.03125 -13.316406 5.5 -12.796875 C 5.976562 -12.285156 6.21875 -11.644531 6.21875 -10.875 C 6.21875 -10.101562 5.976562 -9.460938 5.5 -8.953125 C 5.03125 -8.441406 4.378906 -8.1875 3.546875 -8.1875 C 2.722656 -8.1875 2.070312 -8.441406 1.59375 -8.953125 C 1.113281 -9.460938 0.875 -10.101562 0.875 -10.875 Z M 0.875 -2.234375 C 0.875 -3.003906 1.113281 -3.644531 1.59375 -4.15625 C 2.070312 -4.675781 2.722656 -4.9375 3.546875 -4.9375 C 4.378906 -4.9375 5.03125 -4.675781 5.5 -4.15625 C 5.976562 -3.644531 6.21875 -3.003906 6.21875 -2.234375 C 6.21875 -1.460938 5.976562 -0.816406 5.5 -0.296875 C 5.03125 0.210938 4.378906 0.46875 3.546875 0.46875 C 2.722656 0.46875 2.070312 0.210938 1.59375 -0.296875 C 1.113281 -0.816406 0.875 -1.460938 0.875 -2.234375 Z M 0.875 -2.234375 "/></g></g></g><g fill="#192746" fill-opacity="1"><g transform="translate(99.644557, 21.411292)"><g><path d="M 8.515625 0.4375 C 7.429688 0.4375 6.425781 0.285156 5.5 -0.015625 C 4.570312 -0.316406 3.757812 -0.769531 3.0625 -1.375 C 2.375 -1.976562 1.832031 -2.738281 1.4375 -3.65625 C 1.050781 -4.582031 0.859375 -5.660156 0.859375 -6.890625 C 0.859375 -8.097656 1.050781 -9.140625 1.4375 -10.015625 C 1.832031 -10.890625 2.351562 -11.601562 3 -12.15625 C 3.644531 -12.71875 4.378906 -13.128906 5.203125 -13.390625 C 6.035156 -13.660156 6.878906 -13.796875 7.734375 -13.796875 C 8.710938 -13.796875 9.597656 -13.648438 10.390625 -13.359375 C 11.191406 -13.066406 11.878906 -12.660156 12.453125 -12.140625 C 13.035156 -11.628906 13.488281 -11.015625 13.8125 -10.296875 C 14.132812 -9.585938 14.296875 -8.8125 14.296875 -7.96875 C 14.296875 -7.34375 14.117188 -6.863281 13.765625 -6.53125 C 13.421875 -6.195312 12.9375 -5.984375 12.3125 -5.890625 L 5.515625 -4.875 C 5.710938 -4.269531 6.125 -3.816406 6.75 -3.515625 C 7.375 -3.210938 8.085938 -3.0625 8.890625 -3.0625 C 9.648438 -3.0625 10.363281 -3.15625 11.03125 -3.34375 C 11.695312 -3.539062 12.242188 -3.765625 12.671875 -4.015625 C 12.960938 -3.835938 13.207031 -3.582031 13.40625 -3.25 C 13.613281 -2.914062 13.71875 -2.566406 13.71875 -2.203125 C 13.71875 -1.378906 13.332031 -0.765625 12.5625 -0.359375 C 11.976562 -0.046875 11.316406 0.160156 10.578125 0.265625 C 9.835938 0.378906 9.148438 0.4375 8.515625 0.4375 Z M 7.734375 -10.390625 C 7.296875 -10.390625 6.914062 -10.3125 6.59375 -10.15625 C 6.269531 -10.007812 6.007812 -9.820312 5.8125 -9.59375 C 5.613281 -9.363281 5.460938 -9.109375 5.359375 -8.828125 C 5.253906 -8.546875 5.191406 -8.257812 5.171875 -7.96875 L 9.890625 -8.734375 C 9.835938 -9.097656 9.632812 -9.460938 9.28125 -9.828125 C 8.9375 -10.203125 8.421875 -10.390625 7.734375 -10.390625 Z M 7.734375 -10.390625 "/></g></g></g><g fill="#192746" fill-opacity="1"><g transform="translate(114.767659, 21.411292)"><g><path d="M 6.109375 -0.03125 C 5.929688 0.03125 5.644531 0.0859375 5.25 0.140625 C 4.851562 0.191406 4.441406 0.21875 4.015625 0.21875 C 3.617188 0.21875 3.257812 0.191406 2.9375 0.140625 C 2.613281 0.0859375 2.34375 -0.0195312 2.125 -0.1875 C 1.90625 -0.351562 1.734375 -0.578125 1.609375 -0.859375 C 1.492188 -1.148438 1.4375 -1.523438 1.4375 -1.984375 L 1.4375 -10.25 C 1.4375 -10.664062 1.515625 -11.023438 1.671875 -11.328125 C 1.828125 -11.640625 2.050781 -11.910156 2.34375 -12.140625 C 2.632812 -12.378906 2.992188 -12.59375 3.421875 -12.78125 C 3.859375 -12.976562 4.320312 -13.148438 4.8125 -13.296875 C 5.3125 -13.453125 5.828125 -13.570312 6.359375 -13.65625 C 6.890625 -13.738281 7.425781 -13.78125 7.96875 -13.78125 C 8.84375 -13.78125 9.535156 -13.609375 10.046875 -13.265625 C 10.566406 -12.921875 10.828125 -12.363281 10.828125 -11.59375 C 10.828125 -11.34375 10.789062 -11.09375 10.71875 -10.84375 C 10.644531 -10.59375 10.550781 -10.367188 10.4375 -10.171875 C 10.050781 -10.171875 9.65625 -10.148438 9.25 -10.109375 C 8.851562 -10.066406 8.460938 -10.007812 8.078125 -9.9375 C 7.691406 -9.863281 7.328125 -9.785156 6.984375 -9.703125 C 6.640625 -9.628906 6.347656 -9.535156 6.109375 -9.421875 Z M 6.109375 -0.03125 "/></g></g></g><g fill="#192746" fill-opacity="1"><g transform="translate(126.089324, 21.411292)"><g><path d="M 7.15625 -2.96875 C 7.46875 -2.96875 7.8125 -3 8.1875 -3.0625 C 8.570312 -3.132812 8.851562 -3.222656 9.03125 -3.328125 L 9.03125 -5.53125 L 7.046875 -5.375 C 6.535156 -5.332031 6.113281 -5.21875 5.78125 -5.03125 C 5.445312 -4.851562 5.28125 -4.582031 5.28125 -4.21875 C 5.28125 -3.84375 5.421875 -3.539062 5.703125 -3.3125 C 5.992188 -3.082031 6.476562 -2.96875 7.15625 -2.96875 Z M 6.9375 -13.796875 C 7.925781 -13.796875 8.828125 -13.691406 9.640625 -13.484375 C 10.460938 -13.285156 11.160156 -12.976562 11.734375 -12.5625 C 12.316406 -12.15625 12.765625 -11.632812 13.078125 -11 C 13.390625 -10.363281 13.546875 -9.617188 13.546875 -8.765625 L 13.546875 -2.59375 C 13.546875 -2.113281 13.410156 -1.722656 13.140625 -1.421875 C 12.878906 -1.117188 12.566406 -0.859375 12.203125 -0.640625 C 11.003906 0.078125 9.320312 0.4375 7.15625 0.4375 C 6.1875 0.4375 5.3125 0.34375 4.53125 0.15625 C 3.75 -0.0195312 3.078125 -0.289062 2.515625 -0.65625 C 1.960938 -1.03125 1.53125 -1.5 1.21875 -2.0625 C 0.914062 -2.632812 0.765625 -3.296875 0.765625 -4.046875 C 0.765625 -5.316406 1.140625 -6.289062 1.890625 -6.96875 C 2.648438 -7.644531 3.820312 -8.066406 5.40625 -8.234375 L 9.015625 -8.625 L 9.015625 -8.8125 C 9.015625 -9.34375 8.78125 -9.722656 8.3125 -9.953125 C 7.84375 -10.179688 7.164062 -10.296875 6.28125 -10.296875 C 5.582031 -10.296875 4.898438 -10.222656 4.234375 -10.078125 C 3.578125 -9.929688 2.984375 -9.75 2.453125 -9.53125 C 2.210938 -9.695312 2.007812 -9.945312 1.84375 -10.28125 C 1.675781 -10.625 1.59375 -10.976562 1.59375 -11.34375 C 1.59375 -11.820312 1.707031 -12.203125 1.9375 -12.484375 C 2.164062 -12.773438 2.519531 -13.019531 3 -13.21875 C 3.53125 -13.425781 4.160156 -13.570312 4.890625 -13.65625 C 5.617188 -13.75 6.300781 -13.796875 6.9375 -13.796875 Z M 6.9375 -13.796875 "/></g></g></g></svg>