<svg xmlns="http://www.w3.org/2000/svg" xmlns:xlink="http://www.w3.org/1999/xlink" width="500" zoomAndPan="magnify" viewBox="0 0 375 374.999991" height="500" preserveAspectRatio="xMidYMid meet" version="1.0"><defs><g/></defs><g fill="#f7fbff" fill-opacity="1"><g transform="translate(3.97266, 53.249997)"><g><path d="M 3.046875 -39.375 C 3.046875 -40.976562 3.582031 -42.328125 4.65625 -43.421875 C 5.738281 -44.523438 7.164062 -45.078125 8.9375 -45.078125 C 10.71875 -45.078125 12.144531 -44.523438 13.21875 -43.421875 C 14.300781 -42.328125 14.84375 -40.976562 14.84375 -39.375 C 14.84375 -37.769531 14.300781 -36.414062 13.21875 -35.3125 C 12.144531 -34.21875 10.71875 -33.671875 8.9375 -33.671875 C 7.164062 -33.671875 5.738281 -34.21875 4.65625 -35.3125 C 3.582031 -36.414062 3.046875 -37.769531 3.046875 -39.375 Z M 14.328125 -0.0625 C 13.859375 0.0195312 13.171875 0.132812 12.265625 0.28125 C 11.359375 0.425781 10.441406 0.5 9.515625 0.5 C 8.578125 0.5 7.738281 0.4375 7 0.3125 C 6.257812 0.1875 5.632812 -0.0625 5.125 -0.4375 C 4.625 -0.820312 4.234375 -1.34375 3.953125 -2 C 3.679688 -2.65625 3.546875 -3.507812 3.546875 -4.5625 L 3.546875 -30.375 C 4.015625 -30.457031 4.703125 -30.570312 5.609375 -30.71875 C 6.515625 -30.863281 7.4375 -30.9375 8.375 -30.9375 C 9.300781 -30.9375 10.132812 -30.875 10.875 -30.75 C 11.613281 -30.625 12.234375 -30.367188 12.734375 -29.984375 C 13.242188 -29.609375 13.632812 -29.09375 13.90625 -28.4375 C 14.1875 -27.78125 14.328125 -26.925781 14.328125 -25.875 Z M 14.328125 -0.0625 "/></g></g></g><g fill="#f7fbff" fill-opacity="1"><g transform="translate(21.851032, 53.249997)"><g><path d="M 18.078125 -31.765625 C 19.804688 -31.765625 21.503906 -31.519531 23.171875 -31.03125 C 24.835938 -30.550781 26.285156 -29.820312 27.515625 -28.84375 C 28.785156 -29.695312 30.210938 -30.394531 31.796875 -30.9375 C 33.378906 -31.488281 35.289062 -31.765625 37.53125 -31.765625 C 39.144531 -31.765625 40.722656 -31.550781 42.265625 -31.125 C 43.804688 -30.707031 45.175781 -30.039062 46.375 -29.125 C 47.582031 -28.21875 48.546875 -27.015625 49.265625 -25.515625 C 49.984375 -24.015625 50.34375 -22.1875 50.34375 -20.03125 L 50.34375 -0.0625 C 49.914062 0.0625 49.25 0.1875 48.34375 0.3125 C 47.4375 0.4375 46.5 0.5 45.53125 0.5 C 44.59375 0.5 43.753906 0.4375 43.015625 0.3125 C 42.273438 0.1875 41.648438 -0.0625 41.140625 -0.4375 C 40.640625 -0.820312 40.25 -1.34375 39.96875 -2 C 39.695312 -2.65625 39.5625 -3.507812 39.5625 -4.5625 L 39.5625 -19.71875 C 39.5625 -20.988281 39.203125 -21.90625 38.484375 -22.46875 C 37.765625 -23.039062 36.796875 -23.328125 35.578125 -23.328125 C 34.984375 -23.328125 34.347656 -23.191406 33.671875 -22.921875 C 32.992188 -22.648438 32.484375 -22.363281 32.140625 -22.0625 C 32.179688 -21.894531 32.203125 -21.738281 32.203125 -21.59375 C 32.203125 -21.445312 32.203125 -21.304688 32.203125 -21.171875 L 32.203125 -0.0625 C 31.742188 0.0625 31.054688 0.1875 30.140625 0.3125 C 29.234375 0.4375 28.316406 0.5 27.390625 0.5 C 26.460938 0.5 25.628906 0.4375 24.890625 0.3125 C 24.148438 0.1875 23.523438 -0.0625 23.015625 -0.4375 C 22.503906 -0.820312 22.113281 -1.34375 21.84375 -2 C 21.570312 -2.65625 21.4375 -3.507812 21.4375 -4.5625 L 21.4375 -19.71875 C 21.4375 -20.988281 21.039062 -21.90625 20.25 -22.46875 C 19.46875 -23.039062 18.53125 -23.328125 17.4375 -23.328125 C 16.675781 -23.328125 16.019531 -23.210938 15.46875 -22.984375 C 14.914062 -22.753906 14.453125 -22.53125 14.078125 -22.3125 L 14.078125 -0.0625 C 13.648438 0.0625 12.984375 0.1875 12.078125 0.3125 C 11.171875 0.4375 10.226562 0.5 9.25 0.5 C 8.320312 0.5 7.488281 0.4375 6.75 0.3125 C 6.007812 0.1875 5.382812 -0.0625 4.875 -0.4375 C 4.375 -0.820312 3.984375 -1.34375 3.703125 -2 C 3.429688 -2.65625 3.296875 -3.507812 3.296875 -4.5625 L 3.296875 -23.71875 C 3.296875 -24.851562 3.535156 -25.757812 4.015625 -26.4375 C 4.503906 -27.113281 5.175781 -27.75 6.03125 -28.34375 C 7.457031 -29.351562 9.238281 -30.175781 11.375 -30.8125 C 13.507812 -31.445312 15.742188 -31.765625 18.078125 -31.765625 Z M 18.078125 -31.765625 "/></g></g></g><g fill="#f7fbff" fill-opacity="1"><g transform="translate(75.486145, 53.249997)"><g><path d="M 17.4375 -31.765625 C 19.96875 -31.765625 22.320312 -31.4375 24.5 -30.78125 C 26.675781 -30.125 28.546875 -29.117188 30.109375 -27.765625 C 31.679688 -26.421875 32.910156 -24.722656 33.796875 -22.671875 C 34.679688 -20.617188 35.125 -18.175781 35.125 -15.34375 C 35.125 -12.632812 34.742188 -10.265625 33.984375 -8.234375 C 33.222656 -6.210938 32.144531 -4.515625 30.75 -3.140625 C 29.351562 -1.765625 27.671875 -0.738281 25.703125 -0.0625 C 23.742188 0.613281 21.5625 0.953125 19.15625 0.953125 C 17.332031 0.953125 15.640625 0.675781 14.078125 0.125 L 14.078125 10.65625 C 13.648438 10.78125 12.972656 10.914062 12.046875 11.0625 C 11.117188 11.207031 10.164062 11.28125 9.1875 11.28125 C 8.257812 11.28125 7.425781 11.21875 6.6875 11.09375 C 5.945312 10.96875 5.320312 10.710938 4.8125 10.328125 C 4.3125 9.953125 3.929688 9.4375 3.671875 8.78125 C 3.421875 8.125 3.296875 7.269531 3.296875 6.21875 L 3.296875 -24.21875 C 3.296875 -25.363281 3.535156 -26.296875 4.015625 -27.015625 C 4.503906 -27.734375 5.175781 -28.390625 6.03125 -28.984375 C 7.332031 -29.828125 8.957031 -30.5 10.90625 -31 C 12.851562 -31.507812 15.03125 -31.765625 17.4375 -31.765625 Z M 17.5625 -7.546875 C 21.914062 -7.546875 24.09375 -10.144531 24.09375 -15.34375 C 24.09375 -18.050781 23.550781 -20.054688 22.46875 -21.359375 C 21.394531 -22.671875 19.84375 -23.328125 17.8125 -23.328125 C 17.007812 -23.328125 16.289062 -23.234375 15.65625 -23.046875 C 15.019531 -22.859375 14.472656 -22.632812 14.015625 -22.375 L 14.015625 -8.4375 C 14.523438 -8.175781 15.070312 -7.960938 15.65625 -7.796875 C 16.25 -7.628906 16.882812 -7.546875 17.5625 -7.546875 Z M 17.5625 -7.546875 "/></g></g></g><g fill="#f7fbff" fill-opacity="1"><g transform="translate(112.574258, 53.249997)"><g><path d="M 16.484375 -6.84375 C 17.203125 -6.84375 17.992188 -6.914062 18.859375 -7.0625 C 19.722656 -7.21875 20.367188 -7.421875 20.796875 -7.671875 L 20.796875 -12.75 L 16.234375 -12.359375 C 15.046875 -12.273438 14.070312 -12.019531 13.3125 -11.59375 C 12.550781 -11.175781 12.171875 -10.546875 12.171875 -9.703125 C 12.171875 -8.859375 12.5 -8.171875 13.15625 -7.640625 C 13.8125 -7.109375 14.921875 -6.84375 16.484375 -6.84375 Z M 15.984375 -31.765625 C 18.265625 -31.765625 20.34375 -31.53125 22.21875 -31.0625 C 24.101562 -30.601562 25.710938 -29.894531 27.046875 -28.9375 C 28.378906 -27.988281 29.40625 -26.785156 30.125 -25.328125 C 30.84375 -23.867188 31.203125 -22.144531 31.203125 -20.15625 L 31.203125 -5.953125 C 31.203125 -4.859375 30.894531 -3.960938 30.28125 -3.265625 C 29.664062 -2.566406 28.9375 -1.960938 28.09375 -1.453125 C 25.34375 0.191406 21.472656 1.015625 16.484375 1.015625 C 14.242188 1.015625 12.222656 0.800781 10.421875 0.375 C 8.628906 -0.0390625 7.085938 -0.671875 5.796875 -1.515625 C 4.515625 -2.367188 3.523438 -3.445312 2.828125 -4.75 C 2.128906 -6.0625 1.78125 -7.585938 1.78125 -9.328125 C 1.78125 -12.242188 2.644531 -14.484375 4.375 -16.046875 C 6.101562 -17.609375 8.785156 -18.578125 12.421875 -18.953125 L 20.734375 -19.84375 L 20.734375 -20.296875 C 20.734375 -21.515625 20.191406 -22.390625 19.109375 -22.921875 C 18.035156 -23.453125 16.484375 -23.71875 14.453125 -23.71875 C 12.847656 -23.71875 11.285156 -23.546875 9.765625 -23.203125 C 8.242188 -22.867188 6.867188 -22.445312 5.640625 -21.9375 C 5.085938 -22.320312 4.617188 -22.90625 4.234375 -23.6875 C 3.859375 -24.46875 3.671875 -25.28125 3.671875 -26.125 C 3.671875 -27.21875 3.9375 -28.09375 4.46875 -28.75 C 5 -29.40625 5.8125 -29.96875 6.90625 -30.4375 C 8.132812 -30.894531 9.582031 -31.226562 11.25 -31.4375 C 12.925781 -31.65625 14.503906 -31.765625 15.984375 -31.765625 Z M 15.984375 -31.765625 "/></g></g></g><g fill="#f7fbff" fill-opacity="1"><g transform="translate(147.063029, 53.249997)"><g><path d="M 20.671875 -23.265625 C 19.609375 -23.265625 18.601562 -23.09375 17.65625 -22.75 C 16.707031 -22.414062 15.882812 -21.921875 15.1875 -21.265625 C 14.488281 -20.617188 13.925781 -19.804688 13.5 -18.828125 C 13.082031 -17.859375 12.875 -16.71875 12.875 -15.40625 C 12.875 -12.78125 13.625 -10.8125 15.125 -9.5 C 16.625 -8.195312 18.453125 -7.546875 20.609375 -7.546875 C 21.878906 -7.546875 22.976562 -7.691406 23.90625 -7.984375 C 24.832031 -8.285156 25.65625 -8.601562 26.375 -8.9375 C 27.21875 -8.34375 27.847656 -7.695312 28.265625 -7 C 28.691406 -6.300781 28.90625 -5.46875 28.90625 -4.5 C 28.90625 -2.769531 28.082031 -1.425781 26.4375 -0.46875 C 24.789062 0.476562 22.507812 0.953125 19.59375 0.953125 C 16.925781 0.953125 14.515625 0.5625 12.359375 -0.21875 C 10.203125 -1 8.351562 -2.097656 6.8125 -3.515625 C 5.269531 -4.929688 4.078125 -6.632812 3.234375 -8.625 C 2.390625 -10.613281 1.96875 -12.8125 1.96875 -15.21875 C 1.96875 -18.007812 2.421875 -20.445312 3.328125 -22.53125 C 4.234375 -24.625 5.46875 -26.347656 7.03125 -27.703125 C 8.601562 -29.054688 10.410156 -30.070312 12.453125 -30.75 C 14.503906 -31.425781 16.671875 -31.765625 18.953125 -31.765625 C 22.003906 -31.765625 24.351562 -31.210938 26 -30.109375 C 27.644531 -29.015625 28.46875 -27.601562 28.46875 -25.875 C 28.46875 -25.070312 28.273438 -24.320312 27.890625 -23.625 C 27.515625 -22.925781 27.070312 -22.320312 26.5625 -21.8125 C 25.84375 -22.144531 24.976562 -22.46875 23.96875 -22.78125 C 22.957031 -23.101562 21.859375 -23.265625 20.671875 -23.265625 Z M 20.671875 -23.265625 "/></g></g></g><g fill="#f7fbff" fill-opacity="1"><g transform="translate(178.064889, 53.249997)"><g><path d="M 14.078125 -10.59375 C 14.078125 -9.488281 14.425781 -8.703125 15.125 -8.234375 C 15.820312 -7.773438 16.804688 -7.546875 18.078125 -7.546875 C 18.703125 -7.546875 19.351562 -7.597656 20.03125 -7.703125 C 20.707031 -7.804688 21.300781 -7.941406 21.8125 -8.109375 C 22.1875 -7.648438 22.507812 -7.132812 22.78125 -6.5625 C 23.0625 -5.988281 23.203125 -5.300781 23.203125 -4.5 C 23.203125 -2.894531 22.597656 -1.582031 21.390625 -0.5625 C 20.191406 0.445312 18.070312 0.953125 15.03125 0.953125 C 11.3125 0.953125 8.445312 0.109375 6.4375 -1.578125 C 4.425781 -3.273438 3.421875 -6.023438 3.421875 -9.828125 L 3.421875 -36.96875 C 3.890625 -37.09375 4.554688 -37.226562 5.421875 -37.375 C 6.285156 -37.519531 7.203125 -37.59375 8.171875 -37.59375 C 10.035156 -37.59375 11.484375 -37.265625 12.515625 -36.609375 C 13.554688 -35.960938 14.078125 -34.582031 14.078125 -32.46875 L 14.078125 -28.40625 L 22.375 -28.40625 C 22.632812 -27.9375 22.878906 -27.351562 23.109375 -26.65625 C 23.335938 -25.957031 23.453125 -25.1875 23.453125 -24.34375 C 23.453125 -22.863281 23.125 -21.796875 22.46875 -21.140625 C 21.820312 -20.484375 20.945312 -20.15625 19.84375 -20.15625 L 14.078125 -20.15625 Z M 14.078125 -10.59375 "/></g></g></g><g fill="#f7fbff" fill-opacity="1"><g transform="translate(203.424285, 53.249997)"><g><path d="M 2.03125 -25.046875 C 2.03125 -26.816406 2.578125 -28.296875 3.671875 -29.484375 C 4.773438 -30.671875 6.273438 -31.265625 8.171875 -31.265625 C 10.078125 -31.265625 11.578125 -30.671875 12.671875 -29.484375 C 13.773438 -28.296875 14.328125 -26.816406 14.328125 -25.046875 C 14.328125 -23.265625 13.773438 -21.78125 12.671875 -20.59375 C 11.578125 -19.414062 10.078125 -18.828125 8.171875 -18.828125 C 6.273438 -18.828125 4.773438 -19.414062 3.671875 -20.59375 C 2.578125 -21.78125 2.03125 -23.265625 2.03125 -25.046875 Z M 2.03125 -5.140625 C 2.03125 -6.910156 2.578125 -8.382812 3.671875 -9.5625 C 4.773438 -10.75 6.273438 -11.34375 8.171875 -11.34375 C 10.078125 -11.34375 11.578125 -10.75 12.671875 -9.5625 C 13.773438 -8.382812 14.328125 -6.910156 14.328125 -5.140625 C 14.328125 -3.359375 13.773438 -1.875 12.671875 -0.6875 C 11.578125 0.488281 10.078125 1.078125 8.171875 1.078125 C 6.273438 1.078125 4.773438 0.488281 3.671875 -0.6875 C 2.578125 -1.875 2.03125 -3.359375 2.03125 -5.140625 Z M 2.03125 -5.140625 "/></g></g></g><g fill="#f7fbff" fill-opacity="1"><g transform="translate(219.781096, 53.249997)"><g><path d="M 19.59375 1.015625 C 17.09375 1.015625 14.773438 0.664062 12.640625 -0.03125 C 10.515625 -0.726562 8.65625 -1.773438 7.0625 -3.171875 C 5.476562 -4.566406 4.234375 -6.320312 3.328125 -8.4375 C 2.421875 -10.550781 1.96875 -13.019531 1.96875 -15.84375 C 1.96875 -18.632812 2.421875 -21.035156 3.328125 -23.046875 C 4.234375 -25.054688 5.425781 -26.703125 6.90625 -27.984375 C 8.382812 -29.273438 10.078125 -30.226562 11.984375 -30.84375 C 13.890625 -31.457031 15.832031 -31.765625 17.8125 -31.765625 C 20.050781 -31.765625 22.085938 -31.425781 23.921875 -30.75 C 25.765625 -30.070312 27.351562 -29.140625 28.6875 -27.953125 C 30.019531 -26.773438 31.054688 -25.359375 31.796875 -23.703125 C 32.535156 -22.054688 32.90625 -20.265625 32.90625 -18.328125 C 32.90625 -16.890625 32.503906 -15.789062 31.703125 -15.03125 C 30.898438 -14.269531 29.78125 -13.78125 28.34375 -13.5625 L 12.6875 -11.21875 C 13.144531 -9.820312 14.09375 -8.773438 15.53125 -8.078125 C 16.96875 -7.378906 18.617188 -7.03125 20.484375 -7.03125 C 22.210938 -7.03125 23.847656 -7.253906 25.390625 -7.703125 C 26.929688 -8.148438 28.191406 -8.664062 29.171875 -9.25 C 29.847656 -8.832031 30.414062 -8.242188 30.875 -7.484375 C 31.34375 -6.722656 31.578125 -5.921875 31.578125 -5.078125 C 31.578125 -3.171875 30.6875 -1.753906 28.90625 -0.828125 C 27.5625 -0.109375 26.039062 0.375 24.34375 0.625 C 22.65625 0.882812 21.070312 1.015625 19.59375 1.015625 Z M 17.8125 -23.90625 C 16.800781 -23.90625 15.925781 -23.734375 15.1875 -23.390625 C 14.445312 -23.054688 13.84375 -22.625 13.375 -22.09375 C 12.914062 -21.5625 12.566406 -20.96875 12.328125 -20.3125 C 12.097656 -19.664062 11.960938 -19.003906 11.921875 -18.328125 L 22.765625 -20.09375 C 22.640625 -20.945312 22.171875 -21.796875 21.359375 -22.640625 C 20.554688 -23.484375 19.375 -23.90625 17.8125 -23.90625 Z M 17.8125 -23.90625 "/></g></g></g><g fill="#f7fbff" fill-opacity="1"><g transform="translate(254.586856, 53.249997)"><g><path d="M 14.078125 -0.0625 C 13.648438 0.0625 12.984375 0.1875 12.078125 0.3125 C 11.171875 0.4375 10.226562 0.5 9.25 0.5 C 8.320312 0.5 7.488281 0.4375 6.75 0.3125 C 6.007812 0.1875 5.382812 -0.0625 4.875 -0.4375 C 4.375 -0.820312 3.984375 -1.34375 3.703125 -2 C 3.429688 -2.65625 3.296875 -3.507812 3.296875 -4.5625 L 3.296875 -23.59375 C 3.296875 -24.5625 3.472656 -25.394531 3.828125 -26.09375 C 4.191406 -26.789062 4.710938 -27.414062 5.390625 -27.96875 C 6.066406 -28.507812 6.898438 -29.003906 7.890625 -29.453125 C 8.890625 -29.898438 9.957031 -30.289062 11.09375 -30.625 C 12.238281 -30.957031 13.421875 -31.21875 14.640625 -31.40625 C 15.867188 -31.601562 17.097656 -31.703125 18.328125 -31.703125 C 20.359375 -31.703125 21.960938 -31.3125 23.140625 -30.53125 C 24.328125 -29.75 24.921875 -28.46875 24.921875 -26.6875 C 24.921875 -26.101562 24.832031 -25.523438 24.65625 -24.953125 C 24.488281 -24.378906 24.28125 -23.859375 24.03125 -23.390625 C 23.144531 -23.390625 22.234375 -23.347656 21.296875 -23.265625 C 20.367188 -23.179688 19.460938 -23.054688 18.578125 -22.890625 C 17.691406 -22.722656 16.859375 -22.539062 16.078125 -22.34375 C 15.296875 -22.15625 14.628906 -21.9375 14.078125 -21.6875 Z M 14.078125 -0.0625 "/></g></g></g><g fill="#f7fbff" fill-opacity="1"><g transform="translate(280.643633, 53.249997)"><g><path d="M 16.484375 -6.84375 C 17.203125 -6.84375 17.992188 -6.914062 18.859375 -7.0625 C 19.722656 -7.21875 20.367188 -7.421875 20.796875 -7.671875 L 20.796875 -12.75 L 16.234375 -12.359375 C 15.046875 -12.273438 14.070312 -12.019531 13.3125 -11.59375 C 12.550781 -11.175781 12.171875 -10.546875 12.171875 -9.703125 C 12.171875 -8.859375 12.5 -8.171875 13.15625 -7.640625 C 13.8125 -7.109375 14.921875 -6.84375 16.484375 -6.84375 Z M 15.984375 -31.765625 C 18.265625 -31.765625 20.34375 -31.53125 22.21875 -31.0625 C 24.101562 -30.601562 25.710938 -29.894531 27.046875 -28.9375 C 28.378906 -27.988281 29.40625 -26.785156 30.125 -25.328125 C 30.84375 -23.867188 31.203125 -22.144531 31.203125 -20.15625 L 31.203125 -5.953125 C 31.203125 -4.859375 30.894531 -3.960938 30.28125 -3.265625 C 29.664062 -2.566406 28.9375 -1.960938 28.09375 -1.453125 C 25.34375 0.191406 21.472656 1.015625 16.484375 1.015625 C 14.242188 1.015625 12.222656 0.800781 10.421875 0.375 C 8.628906 -0.0390625 7.085938 -0.671875 5.796875 -1.515625 C 4.515625 -2.367188 3.523438 -3.445312 2.828125 -4.75 C 2.128906 -6.0625 1.78125 -7.585938 1.78125 -9.328125 C 1.78125 -12.242188 2.644531 -14.484375 4.375 -16.046875 C 6.101562 -17.609375 8.785156 -18.578125 12.421875 -18.953125 L 20.734375 -19.84375 L 20.734375 -20.296875 C 20.734375 -21.515625 20.191406 -22.390625 19.109375 -22.921875 C 18.035156 -23.453125 16.484375 -23.71875 14.453125 -23.71875 C 12.847656 -23.71875 11.285156 -23.546875 9.765625 -23.203125 C 8.242188 -22.867188 6.867188 -22.445312 5.640625 -21.9375 C 5.085938 -22.320312 4.617188 -22.90625 4.234375 -23.6875 C 3.859375 -24.46875 3.671875 -25.28125 3.671875 -26.125 C 3.671875 -27.21875 3.9375 -28.09375 4.46875 -28.75 C 5 -29.40625 5.8125 -29.96875 6.90625 -30.4375 C 8.132812 -30.894531 9.582031 -31.226562 11.25 -31.4375 C 12.925781 -31.65625 14.503906 -31.765625 15.984375 -31.765625 Z M 15.984375 -31.765625 "/></g></g></g><g fill="#c6b7e0" fill-opacity="1"><g transform="translate(138.317697, 82.158789)"><g><path d="M 2.246094 0 L 3.371094 -6.296875 L 9.886719 -6.296875 L 10.144531 -7.808594 L 3.628906 -7.808594 L 4.457031 -12.519531 L 11.839844 -12.519531 L 12.117188 -14.046875 L 3.039062 -14.046875 L 0.550781 0 Z M 2.246094 0 "/></g></g></g><g fill="#c6b7e0" fill-opacity="1"><g transform="translate(149.382199, 82.158789)"><g><path d="M 4.917969 0.183594 C 8.324219 0.183594 10.957031 -2.835938 10.957031 -6.222656 C 10.957031 -8.671875 9.355469 -10.367188 6.792969 -10.367188 C 3.425781 -10.367188 0.792969 -7.421875 0.792969 -4.015625 C 0.792969 -1.511719 2.375 0.183594 4.917969 0.183594 Z M 5.175781 -1.195312 C 3.5 -1.195312 2.375 -2.429688 2.375 -4.273438 C 2.375 -6.703125 4.199219 -8.984375 6.535156 -8.984375 C 8.25 -8.984375 9.355469 -7.714844 9.355469 -5.945312 C 9.355469 -3.535156 7.511719 -1.195312 5.175781 -1.195312 Z M 5.175781 -1.195312 "/></g></g></g><g fill="#c6b7e0" fill-opacity="1"><g transform="translate(161.146278, 82.158789)"><g><path d="M 1.96875 0 L 2.925781 -5.359375 C 3.148438 -6.628906 3.609375 -7.492188 4.289062 -8.066406 C 4.859375 -8.542969 5.578125 -8.800781 6.40625 -8.800781 L 6.941406 -8.800781 L 7.21875 -10.367188 L 7.144531 -10.367188 C 5.761719 -10.367188 4.660156 -9.925781 3.515625 -8.78125 L 3.773438 -10.183594 L 2.210938 -10.183594 L 0.40625 0 Z M 1.96875 0 "/></g></g></g><g fill="#c6b7e0" fill-opacity="1"><g transform="translate(167.829158, 82.158789)"><g><path d="M 4.898438 0.183594 C 7.421875 0.183594 9.242188 -1.363281 10.21875 -3.277344 L 8.542969 -3.277344 C 7.898438 -2.152344 6.683594 -1.195312 5.136719 -1.195312 C 3.425781 -1.195312 2.355469 -2.613281 2.355469 -4.328125 C 2.355469 -4.492188 2.355469 -4.640625 2.375 -4.789062 L 10.660156 -4.789062 C 10.789062 -5.542969 10.84375 -5.964844 10.863281 -6.425781 C 10.863281 -9.003906 9.003906 -10.367188 6.738281 -10.367188 C 3.371094 -10.367188 0.792969 -7.328125 0.792969 -3.957031 C 0.792969 -1.527344 2.339844 0.183594 4.898438 0.183594 Z M 2.761719 -6.167969 C 2.871094 -6.480469 3.039062 -6.847656 3.242188 -7.164062 C 3.996094 -8.324219 5.15625 -8.984375 6.519531 -8.984375 C 8.046875 -8.984375 9.242188 -8.066406 9.242188 -6.589844 C 9.242188 -6.445312 9.242188 -6.296875 9.226562 -6.167969 Z M 2.761719 -6.167969 "/></g></g></g><g fill="#c6b7e0" fill-opacity="1"><g transform="translate(179.409136, 82.158789)"><g><path d="M 4.472656 0.183594 C 7.015625 0.183594 9.003906 -1.195312 9.003906 -3.5 C 9.003906 -5.285156 7.199219 -5.671875 5.597656 -5.964844 C 4.34375 -6.203125 3.203125 -6.445312 3.203125 -7.347656 C 3.203125 -8.359375 4.144531 -8.984375 5.597656 -8.984375 C 6.941406 -8.984375 7.863281 -8.414062 7.9375 -7.125 L 9.390625 -7.125 C 9.390625 -9.152344 8.066406 -10.367188 5.855469 -10.367188 C 3.554688 -10.367188 1.582031 -9.058594 1.582031 -6.960938 C 1.582031 -5.304688 3.257812 -4.933594 4.824219 -4.621094 C 6.148438 -4.363281 7.382812 -4.070312 7.382812 -3.019531 C 7.382812 -1.824219 6.203125 -1.195312 4.75 -1.195312 C 2.925781 -1.195312 2.171875 -2.042969 2.117188 -3.277344 L 0.480469 -3.277344 C 0.480469 -1.140625 1.878906 0.183594 4.472656 0.183594 Z M 4.472656 0.183594 "/></g></g></g><g fill="#c6b7e0" fill-opacity="1"><g transform="translate(189.663591, 82.158789)"><g><path d="M 3.3125 -11.929688 C 4.050781 -11.929688 4.730469 -12.558594 4.730469 -13.277344 C 4.730469 -13.808594 4.308594 -14.234375 3.71875 -14.234375 C 2.984375 -14.234375 2.300781 -13.589844 2.300781 -12.871094 C 2.300781 -12.335938 2.726562 -11.929688 3.3125 -11.929688 Z M 1.96875 0 L 3.773438 -10.183594 L 2.210938 -10.183594 L 0.40625 0 Z M 1.96875 0 "/></g></g></g><g fill="#c6b7e0" fill-opacity="1"><g transform="translate(193.842699, 82.158789)"><g><path d="M 4.179688 4.050781 C 6.847656 4.050781 8.96875 2.964844 9.554688 -0.351562 L 11.285156 -10.183594 L 9.722656 -10.183594 L 9.445312 -8.597656 C 8.636719 -9.925781 7.808594 -10.367188 6.40625 -10.367188 C 3.09375 -10.367188 0.847656 -7.179688 0.847656 -3.773438 C 0.847656 -1.398438 2.210938 0.183594 4.546875 0.183594 C 5.910156 0.183594 6.90625 -0.222656 8.195312 -1.582031 L 7.9375 -0.0546875 C 7.640625 1.640625 6.554688 2.667969 4.417969 2.667969 C 2.742188 2.667969 1.914062 2.042969 1.804688 0.828125 L 0.203125 0.828125 C 0.203125 3.296875 2.117188 4.050781 4.179688 4.050781 Z M 4.953125 -1.195312 C 3.332031 -1.195312 2.429688 -2.394531 2.429688 -4.125 C 2.429688 -6.5 3.976562 -8.984375 6.316406 -8.984375 C 7.9375 -8.984375 8.96875 -7.769531 8.96875 -6.003906 C 8.96875 -3.644531 7.308594 -1.195312 4.953125 -1.195312 Z M 4.953125 -1.195312 "/></g></g></g><g fill="#c6b7e0" fill-opacity="1"><g transform="translate(205.533135, 82.158789)"><g><path d="M 1.988281 0 L 2.761719 -4.34375 C 3.222656 -6.976562 4.050781 -8.984375 6.351562 -8.984375 C 7.585938 -8.984375 8.121094 -8.453125 8.121094 -7.21875 C 8.121094 -6.90625 8.082031 -6.535156 8.007812 -6.132812 L 6.921875 0 L 8.488281 0 L 9.574219 -6.132812 C 9.648438 -6.519531 9.722656 -7.035156 9.722656 -7.585938 C 9.722656 -9.390625 8.765625 -10.367188 6.847656 -10.367188 C 5.746094 -10.367188 4.769531 -9.925781 3.515625 -8.597656 L 4.472656 -14.046875 L 2.910156 -14.046875 L 0.421875 0 Z M 1.988281 0 "/></g></g></g><g fill="#c6b7e0" fill-opacity="1"><g transform="translate(216.155792, 82.158789)"><g><path d="M 5.0625 0 L 5.304688 -1.382812 L 4.253906 -1.382812 C 3.441406 -1.382812 3.222656 -1.675781 3.222656 -2.171875 C 3.222656 -2.375 3.257812 -2.613281 3.3125 -2.871094 L 4.363281 -8.800781 L 6.648438 -8.800781 L 6.886719 -10.183594 L 4.601562 -10.183594 L 5.285156 -14.046875 L 3.71875 -14.046875 L 3.039062 -10.183594 L 1.398438 -10.183594 L 1.160156 -8.800781 L 2.796875 -8.800781 L 1.695312 -2.558594 C 1.640625 -2.226562 1.601562 -1.933594 1.601562 -1.675781 C 1.601562 -0.367188 2.375 0 3.644531 0 Z M 5.0625 0 "/></g></g></g><g fill="#c6b7e0" fill-opacity="1"><g transform="translate(222.801857, 82.158789)"><g/></g></g><g fill="#c6b7e0" fill-opacity="1"><g transform="translate(227.956699, 82.158789)"><g><path d="M 4.472656 0.183594 C 7.015625 0.183594 9.003906 -1.195312 9.003906 -3.5 C 9.003906 -5.285156 7.199219 -5.671875 5.597656 -5.964844 C 4.34375 -6.203125 3.203125 -6.445312 3.203125 -7.347656 C 3.203125 -8.359375 4.144531 -8.984375 5.597656 -8.984375 C 6.941406 -8.984375 7.863281 -8.414062 7.9375 -7.125 L 9.390625 -7.125 C 9.390625 -9.152344 8.066406 -10.367188 5.855469 -10.367188 C 3.554688 -10.367188 1.582031 -9.058594 1.582031 -6.960938 C 1.582031 -5.304688 3.257812 -4.933594 4.824219 -4.621094 C 6.148438 -4.363281 7.382812 -4.070312 7.382812 -3.019531 C 7.382812 -1.824219 6.203125 -1.195312 4.75 -1.195312 C 2.925781 -1.195312 2.171875 -2.042969 2.117188 -3.277344 L 0.480469 -3.277344 C 0.480469 -1.140625 1.878906 0.183594 4.472656 0.183594 Z M 4.472656 0.183594 "/></g></g></g><g fill="#c6b7e0" fill-opacity="1"><g transform="translate(238.211154, 82.158789)"><g><path d="M 4.917969 0.183594 C 8.324219 0.183594 10.957031 -2.835938 10.957031 -6.222656 C 10.957031 -8.671875 9.355469 -10.367188 6.792969 -10.367188 C 3.425781 -10.367188 0.792969 -7.421875 0.792969 -4.015625 C 0.792969 -1.511719 2.375 0.183594 4.917969 0.183594 Z M 5.175781 -1.195312 C 3.5 -1.195312 2.375 -2.429688 2.375 -4.273438 C 2.375 -6.703125 4.199219 -8.984375 6.535156 -8.984375 C 8.25 -8.984375 9.355469 -7.714844 9.355469 -5.945312 C 9.355469 -3.535156 7.511719 -1.195312 5.175781 -1.195312 Z M 5.175781 -1.195312 "/></g></g></g><g fill="#c6b7e0" fill-opacity="1"><g transform="translate(249.975233, 82.158789)"><g><path d="M 3.644531 0 L 3.886719 -1.382812 L 3.386719 -1.382812 C 2.578125 -1.382812 2.355469 -1.640625 2.355469 -2.117188 C 2.355469 -2.320312 2.375 -2.539062 2.429688 -2.796875 L 4.417969 -14.046875 L 2.855469 -14.046875 L 0.828125 -2.558594 C 0.773438 -2.226562 0.738281 -1.933594 0.738281 -1.675781 C 0.738281 -0.367188 1.511719 0 2.78125 0 Z M 3.644531 0 "/></g></g></g><g fill="#c6b7e0" fill-opacity="1"><g transform="translate(255.074846, 82.158789)"><g><path d="M 3.8125 0.183594 C 4.988281 0.183594 5.945312 -0.332031 7.144531 -1.582031 L 6.867188 0 L 8.433594 0 L 10.238281 -10.183594 L 8.671875 -10.183594 L 7.898438 -5.835938 C 7.53125 -3.757812 7.070312 -2.652344 6.296875 -1.953125 C 5.746094 -1.453125 5.0625 -1.195312 4.308594 -1.195312 C 3.589844 -1.195312 3.113281 -1.382812 2.835938 -1.769531 C 2.632812 -2.0625 2.539062 -2.429688 2.539062 -2.945312 C 2.539062 -3.277344 2.578125 -3.628906 2.652344 -4.050781 L 3.738281 -10.183594 L 2.171875 -10.183594 L 1.085938 -4.050781 C 0.996094 -3.480469 0.9375 -2.984375 0.9375 -2.558594 C 0.9375 -2.117188 0.996094 -1.730469 1.105469 -1.417969 C 1.472656 -0.351562 2.394531 0.183594 3.8125 0.183594 Z M 3.8125 0.183594 "/></g></g></g><g fill="#c6b7e0" fill-opacity="1"><g transform="translate(265.715905, 82.158789)"><g><path d="M 5.0625 0 L 5.304688 -1.382812 L 4.253906 -1.382812 C 3.441406 -1.382812 3.222656 -1.675781 3.222656 -2.171875 C 3.222656 -2.375 3.257812 -2.613281 3.3125 -2.871094 L 4.363281 -8.800781 L 6.648438 -8.800781 L 6.886719 -10.183594 L 4.601562 -10.183594 L 5.285156 -14.046875 L 3.71875 -14.046875 L 3.039062 -10.183594 L 1.398438 -10.183594 L 1.160156 -8.800781 L 2.796875 -8.800781 L 1.695312 -2.558594 C 1.640625 -2.226562 1.601562 -1.933594 1.601562 -1.675781 C 1.601562 -0.367188 2.375 0 3.644531 0 Z M 5.0625 0 "/></g></g></g><g fill="#c6b7e0" fill-opacity="1"><g transform="translate(272.361969, 82.158789)"><g><path d="M 3.3125 -11.929688 C 4.050781 -11.929688 4.730469 -12.558594 4.730469 -13.277344 C 4.730469 -13.808594 4.308594 -14.234375 3.71875 -14.234375 C 2.984375 -14.234375 2.300781 -13.589844 2.300781 -12.871094 C 2.300781 -12.335938 2.726562 -11.929688 3.3125 -11.929688 Z M 1.96875 0 L 3.773438 -10.183594 L 2.210938 -10.183594 L 0.40625 0 Z M 1.96875 0 "/></g></g></g><g fill="#c6b7e0" fill-opacity="1"><g transform="translate(276.541077, 82.158789)"><g><path d="M 4.917969 0.183594 C 8.324219 0.183594 10.957031 -2.835938 10.957031 -6.222656 C 10.957031 -8.671875 9.355469 -10.367188 6.792969 -10.367188 C 3.425781 -10.367188 0.792969 -7.421875 0.792969 -4.015625 C 0.792969 -1.511719 2.375 0.183594 4.917969 0.183594 Z M 5.175781 -1.195312 C 3.5 -1.195312 2.375 -2.429688 2.375 -4.273438 C 2.375 -6.703125 4.199219 -8.984375 6.535156 -8.984375 C 8.25 -8.984375 9.355469 -7.714844 9.355469 -5.945312 C 9.355469 -3.535156 7.511719 -1.195312 5.175781 -1.195312 Z M 5.175781 -1.195312 "/></g></g></g><g fill="#c6b7e0" fill-opacity="1"><g transform="translate(288.305156, 82.158789)"><g><path d="M 1.96875 0 L 2.742188 -4.34375 C 3.203125 -6.976562 4.03125 -8.984375 6.332031 -8.984375 C 7.566406 -8.984375 8.101562 -8.453125 8.101562 -7.21875 C 8.101562 -6.90625 8.066406 -6.535156 7.992188 -6.132812 L 6.90625 0 L 8.46875 0 L 9.554688 -6.132812 C 9.628906 -6.519531 9.703125 -7.035156 9.703125 -7.585938 C 9.703125 -9.390625 8.746094 -10.367188 6.832031 -10.367188 C 5.707031 -10.367188 4.75 -9.925781 3.5 -8.597656 L 3.773438 -10.183594 L 2.210938 -10.183594 L 0.40625 0 Z M 1.96875 0 "/></g></g></g><g fill="#c6b7e0" fill-opacity="1"><g transform="translate(298.9094, 82.158789)"><g><path d="M 4.472656 0.183594 C 7.015625 0.183594 9.003906 -1.195312 9.003906 -3.5 C 9.003906 -5.285156 7.199219 -5.671875 5.597656 -5.964844 C 4.34375 -6.203125 3.203125 -6.445312 3.203125 -7.347656 C 3.203125 -8.359375 4.144531 -8.984375 5.597656 -8.984375 C 6.941406 -8.984375 7.863281 -8.414062 7.9375 -7.125 L 9.390625 -7.125 C 9.390625 -9.152344 8.066406 -10.367188 5.855469 -10.367188 C 3.554688 -10.367188 1.582031 -9.058594 1.582031 -6.960938 C 1.582031 -5.304688 3.257812 -4.933594 4.824219 -4.621094 C 6.148438 -4.363281 7.382812 -4.070312 7.382812 -3.019531 C 7.382812 -1.824219 6.203125 -1.195312 4.75 -1.195312 C 2.925781 -1.195312 2.171875 -2.042969 2.117188 -3.277344 L 0.480469 -3.277344 C 0.480469 -1.140625 1.878906 0.183594 4.472656 0.183594 Z M 4.472656 0.183594 "/></g></g></g></svg>